{
.appVersion = "3151";
.formatVersion = 3;
DisplayStrings = (
I,
"AÁĂÂÄÀĀĄÅÃÆBCĆČÇĊDĎĐÐEÉĚÊËĖÈĒĘFGĞĢĠHĦIÍÎÏİÌĪĮJKĶLĹĽĻŁMNŃŇŅÑŊOÓÔÖÒŐŌØÕŒPÞQRŔŘŖSŚŠŞȘẞTŤȚUÚŬÛÜÙŰŪŲŮVWẂŴẄẀXYÝŶŸỲZŹŽŻaáăâäàāąåãæbcćčçċdďđðeéěêëėèēęfgğģġhħiıíîï/idotaccent ìīįjȷkķlĺľļłmnńňņñŋoóôöòőōøõœpþqrŕřŗsśšşșßtťțuúŭûüùűūųůvwẃŵẅẁxyýŷÿỳzźžżªº0123456789  /.notdef .,:;…!¡?¿·•*#///backslash/periodcentered.loclCAT/periodcentered.loclCAT.case -–—_(){}[]‚„“”‘’«»‹›\"'@&¶§©®™°|¢$€£¥+−×÷=><~^%̈̇̀́̋/caroncomb.alt ̧̨̦̂̌̆̊̃̄̒¨˙`´˝ˆˇ˘˚˜¯¸˛/B.002/B.003/C.SS02/A.ss01/AE.ss01/C.ss01/E.ss01/F.ss01/H.ss01/I.ss01/J.ss01/L.ss01/M.ss01/N.ss01/OE.ss01/P.ss01/R.ss01/S.ss01/T.ss01/U.ss01/V.ss01/W.ss01/X.ss01/Y.ss01/A.ss02/H.ss02/J.ss02/K.ss02/L.ss02/P.ss02/Q.ss02/R.ss02/T.ss02/M.ss03/R.ss03/M.ss04/Q.ss04/e.ss01/f.ss01/j.ss01/r.ss01/t.ss01/a.ss02/o.ss02/s.ss02/w.ss02/b.ss03/w.ss03/eight.ss02/questiondown.ss01/ampersand.ss01/sterling.ss01/sterling.ss.002/plus.ss01",
A,
G,
"/w.ss03",
wz,
"/w.ss02",
"9",
"ģ",
a,
"1",
"8",
O,
"3",
"6",
"2",
"5",
"4",
w,
r
);
customParameters = (
{
name = glyphOrder;
value = (
A,
Aacute,
Abreve,
Acircumflex,
Adieresis,
Agrave,
Amacron,
Aogonek,
Aring,
Atilde,
AE,
B,
C,
Cacute,
Ccaron,
Ccedilla,
Cdotaccent,
D,
Dcaron,
Dcroat,
Eth,
E,
Eacute,
Ecaron,
Ecircumflex,
Edieresis,
Edotaccent,
Egrave,
Emacron,
Eogonek,
F,
G,
Gbreve,
Gcommaaccent,
Gdotaccent,
H,
Hbar,
I,
Iacute,
Icircumflex,
Idieresis,
Idotaccent,
Igrave,
Imacron,
Iogonek,
J,
K,
Kcommaaccent,
L,
Lacute,
Lcaron,
Lcommaaccent,
Lslash,
M,
N,
Nacute,
Ncaron,
Ncommaaccent,
Ntilde,
Eng,
O,
Oacute,
Ocircumflex,
Odieresis,
Ograve,
Ohungarumlaut,
Omacron,
Oslash,
Otilde,
OE,
P,
Thorn,
Q,
R,
Racute,
Rcaron,
Rcommaaccent,
S,
Sacute,
Scaron,
Scedilla,
Scommaaccent,
Germandbls,
T,
Tcaron,
Tcommaaccent,
U,
Uacute,
Ubreve,
Ucircumflex,
Udieresis,
Ugrave,
Uhungarumlaut,
Umacron,
Uogonek,
Uring,
V,
W,
Wacute,
Wcircumflex,
Wdieresis,
Wgrave,
X,
Y,
Yacute,
Ycircumflex,
Ydieresis,
Ygrave,
Z,
Zacute,
Zcaron,
Zdotaccent,
a,
aacute,
abreve,
acircumflex,
adieresis,

glyphs = (
{
color = 10;
glyphname = A;
lastChange = "2023-11-16 23:28:50 +0000";
layers = (
{
anchors = (
{
name = bottom;
pos = (424,0);
},
{
name = ogonek;
pos = (778,10);
},
{
name = top;
pos = (424,800);
}
);
layerId = "49F060A0-2273-4F54-8B81-08E0B15B03EC";
shapes = (
{
closed = 1;
nodes = (
(409,290,o),
(389,290,o),
(383,290,cs),
(355,290,o),
(325,294,o),
(325,330,cs),
(325,355,o),
(327,456,o),
(435,456,cs),
(543,456,o),
(545,355,o),
(545,330,cs),
(545,303,o),
(530,290,o),
(490,290,cs),
(436,290,ls)
);
},
{
closed = 1;
nodes = (
(345,8,o),
(352,36,o),
(343,67,cs),
(339,81,o),
(327,123,o),
(327,143,cs),
(327,161,o),
(342,182,o),
(383,182,cs),
(448,182,o),
(476,182,o),
(484,182,cs),
(512,182,o),
(543,171,o),
(543,143,cs),
(543,123,o),
(531,81,o),
(527,67,cs),
(518,36,o),
(525,8,o),
(551,-7,cs),
(579,-22,o),
(602,-7,o),
(627,15,cs),
(701,81,o),
(835,255,o),
(835,462,cs),
(835,660,o),
(660,804,o),
(436,804,cs),
(434,804,ls),
(210,804,o),
(35,660,o),
(35,462,cs),
(35,255,o),
(169,81,o),
(243,15,cs),
(268,-7,o),
(291,-22,o),
(319,-7,cs)
);
}
);
width = 870;
}
);
unicode = 65;
},
{
glyphname = Aacute;
lastChange = "2023-11-16 23:28:50 +0000";
layers = (
{
anchors = (
{
name = top;
pos = (413,811);
}
);
layerId = "49F060A0-2273-4F54-8B81-08E0B15B03EC";
shapes = (
{
ref = A;
},
{
closed = 1;
nodes = (
(476,890,o),
(423,865,o),
(379,859,cs),
(349,855,o),
(320,857,o),
(307,882,cs),
(291,914,o),
(311,938,o),
(351,958,cs),
(416,991,o),
(421,1044,o),
(467,1070,cs),
(497,1087,o),
(532,1082,o),
(557,1049,cs),
(588,1008,o),
(569,960,o),
(516,920,cs)
);
}
);
width = 848;
}
);
unicode = 193;
},
{
glyphname = Abreve;
lastChange = "2023-11-16 23:28:50 +0000";
layers = (
{
anchors = (
{
name = top;
pos = (425,1075);
}
);
hints = (
{
horizontal = 1;
place = (857, 183);
place = (857, 183);
type = Stem;
},
{
place = (205, 395);
place = (205, 395);
type = Stem;
}
);
layerId = "49F060A0-2273-4F54-8B81-08E0B15B03EC";
shapes = (
{
ref = A;
},
{
closed = 1;
nodes = (
(295,837,o),
(215,873,o),
(187,940,cs),
(162,1002,o),
(181,1059,o),
(233,1076,cs),
(266,1088,o),
(298,1072,o),
(309,1041,cs),
(315,1024,o),
(317,998,o),
(323,976,cs),
(340,915,o),
(377,903,o),
(426,903,cs),
(474,903,o),
(510,915,o),
(527,976,cs),
(535,1006,o),
(537,1026,o),
(541,1041,cs),
(551,1072,o),
(582,1087,o),
(616,1076,cs),
(669,1059,o),
(688,1002,o),
(663,939,cs),
(635,871,o),
(551,837,o),
(426,837,cs)
);
}
);
width = 848;
}
);
unicode = 258;
},
{
glyphname = Acircumflex;
lastChange = "2023-11-16 23:28:50 +0000";
layers = (
{
anchors = (
{
name = top;
pos = (418,1076);
}
);
layerId = "49F060A0-2273-4F54-8B81-08E0B15B03EC";
shapes = (
{
ref = A;
},
{
closed = 1;
nodes = (
(432,927,o),
(423,918,o),
(399,901,cs),
(346,862,l),
(312,838,o),
(287,820,o),
(268,838,cs),
(253,854,o),
(267,873,o),
(285,911,cs),
(298,936,o),
(315,968,o),
(335,1003,cs),
(362,1051,o),
(398,1081,o),
(442,1081,cs),
(486,1081,o),
(522,1051,o),
(549,1003,cs),
(569,968,o),
(586,936,o),
(599,911,cs),
(617,873,o),
(631,854,o),
(616,838,cs),
(597,820,o),
(572,838,o),
(538,862,cs),
(525,872,o),
(501,889,o),
(480,904,cs),
(462,917,o),
(452,927,o),
(442,927,cs)
);
}
);
width = 848;
},
{
anchors = (
{
name = _top;
pos = (436,1039);
}
);
associatedMasterId = "49F060A0-2273-4F54-8B81-08E0B15B03EC";
layerId = "7002ED80-2CE0-475E-9D40-5767B02273F6";
name = "2 Nov 23 at 05:38";
shapes = (
{
ref = A;
},
{
closed = 1;
nodes = (
(452,921,o),
(464,915,o),
(486,893,cs),
(530,847,o),
(562,827,o),
(584,827,cs),
(600,827,o),
(608,841,o),
(608,855,cs),
(608,896,o),
(590,929,o),
(549,974,cs),
(509,1018,o),
(464,1039,o),
(436,1039,cs),
(407,1039,o),
(362,1018,o),
(322,974,cs),
(281,929,o),
(263,896,o),
(263,855,cs),
(263,841,o),
(271,827,o),
(287,827,cs),
(309,827,o),
(341,847,o),
(385,893,cs),
(407,915,o),
(419,921,o),
(436,921,cs)
);
}
);
width = 886;
}
);
unicode = 194;
},
{
glyphname = Adieresis;
lastChange = "2023-11-16 23:28:50 +0000";
layers = (
{
anchors = (
{
name = top;
pos = (443,1082);
}
);
layerId = "49F060A0-2273-4F54-8B81-08E0B15B03EC";
shapes = (
{
ref = A;
},
{
closed = 1;
nodes = (
(269,961,o),
(299,932,o),
(345,932,cs),
(391,932,o),
(421,961,o),
(421,1006,cs),
(421,1050,o),
(391,1078,o),
(345,1078,cs),
(299,1078,o),
(269,1050,o),
(269,1006,cs)
);
},
{
closed = 1;
nodes = (
(465,961,o),
(495,932,o),
(541,932,cs),
(587,932,o),
(617,961,o),
(617,1006,cs),
(617,1050,o),
(587,1078,o),
(541,1078,cs),
(495,1078,o),
(465,1050,o),
(465,1006,cs)
);
}
);
width = 848;
}
);
unicode = 196;
},
{
glyphname = Agrave;
lastChange = "2023-11-16 23:28:50 +0000";
layers = (
{
anchors = (
{
name = top;
pos = (382,1086);
}
);
layerId = "49F060A0-2273-4F54-8B81-08E0B15B03EC";
shapes = (
{
ref = A;
},
{
closed = 1;
nodes = (
(291,961,o),
(272,1009,o),
(303,1050,cs),
(328,1083,o),
(363,1088,o),
(393,1071,cs),
(439,1045,o),
(444,992,o),
(509,959,cs),
(549,939,o),
(569,915,o),
(553,883,cs),
(540,858,o),
(511,856,o),
(481,860,cs),
(437,866,o),
(384,891,o),
(344,921,cs)
);
}
);
width = 848;
}
);
unicode = 192;
},
{
glyphname = Amacron;
lastChange = "2023-11-16 23:28:50 +0000";
layers = (
{
anchors = (
{
name = top;
pos = (416,1082);
}
);
layerId = "49F060A0-2273-4F54-8B81-08E0B15B03EC";
shapes = (
{
ref = A;
},
{
closed = 1;
nodes = (
(225,918,o),
(187,951,o),
(187,998,cs),
(187,1043,o),
(223,1079,o),
(351,1079,cs),
(458,1079,o),
(543,1065,o),
(565,1061,cs),
(651,1044,o),
(678,1029,o),
(678,1003,cs),
(678,977,o),
(648,957,o),
(571,941,cs),
(535,933,o),
(449,918,o),
(355,918,cs)
);
}
);
width = 848;
}
);
unicode = 256;
},
{
glyphname = Aogonek;
lastChange = "2023-11-16 23:28:50 +0000";
layers = (
{
anchors = (
{
name = "botto=";
pos = (395,-19);
}
);
layerId = "49F060A0-2273-4F54-8B81-08E0B15B03EC";
shapes = (
{
ref = A;
},
{
closed = 1;
nodes = (
(615,-176,o),
(626,-168,o),
(626,-156,cs),
(626,-144,o),
(615,-137,o),
(598,-137,cs),
(570,-137,o),
(554,-127,o),
(554,-107,cs),
(554,-94,o),
(567,-83,o),
(578,-74,cs),
(599,-56,o),
(609,-34,o),
(584,-10,cs),
(565,8,o),
(530,1,o),
(504,-28,cs),
(467,-70,o),
(473,-123,o),
(510,-156,cs),
(533,-177,o),
(561,-184,o),
(599,-178,c)
);
}
);
width = 848;
}
);
unicode = 260;
},
{
glyphname = Aring;
lastChange = "2023-11-16 23:28:50 +0000";
layers = (
{
anchors = (
{
name = top;
pos = (426,1082);
}
);
layerId = "49F060A0-2273-4F54-8B81-08E0B15B03EC";
shapes = (
{
closed = 1;
nodes = (
(298,400,o),
(361,434,o),
(425,434,cs),
(488,434,o),
(550,400,o),
(550,334,cs),
(550,319,o),
(547,297,o),
(533,282,cs),
(516,264,o),
(477,251,o),
(429,251,cs),
(383,251,o),
(336,263,o),
(317,281,cs),
(305,292,o),
(298,309,o),
(298,332,cs)
);
},
{
closed = 1;
nodes = (
(728,71,o),
(837,317,o),
(837,471,cs),
(837,667,o),
(659,817,o),
(424,817,cs),
(193,817,o),
(11,671,o),
(11,468,cs),
(11,317,o),
(112,80,o),
(257,1,cs),
(277,-10,o),
(292,-14,o),
(303,-14,cs),
(347,-14,o),
(344,42,o),
(334,81,cs),
(329,102,o),
(317,137,o),
(317,150,cs),
(317,160,o),
(323,169,o),
(337,175,cs),
(351,181,o),
(387,190,o),
(426,190,cs),
(455,190,o),
(487,185,o),
(511,175,cs),
(528,168,o),
(532,161,o),
(532,153,cs),
(532,137,o),
(518,102,o),
(514,81,cs),
(506,35,o),
(501,-14,o),
(545,-14,cs),
(556,-14,o),
(572,-10,o),
(591,0,cs)
);
},
{
closed = 1;
nodes = (
(487,850,o),
(540,901,o),
(540,968,cs),
(540,1032,o),
(487,1083,o),
(426,1083,cs),
(365,1083,o),
(309,1032,o),
(309,967,cs),
(309,901,o),
(365,850,o),
(424,850,cs)
);
},
{
closed = 1;
nodes = (
(399,884,o),
(382,907,o),
(382,937,cs),
(382,968,o),
(399,991,o),
(424,991,cs),
(450,991,o),
(467,968,o),
(467,937,cs),
(467,907,o),
(450,884,o),
(424,884,cs)
);
}
);
width = 848;
}
);
unicode = 197;
},
{
glyphname = Atilde;
lastChange = "2023-11-16 23:28:50 +0000";
layers = (
{
hints = (
{
horizontal = 1;
place = (904, 72);
place = (904, 72);
type = Stem;
},
{
horizontal = 1;
place = (848, 72);
place = (848, 72);
type = Stem;
},
{
place = (251, 320);
place = (251, 320);
type = Stem;
}
);
layerId = "49F060A0-2273-4F54-8B81-08E0B15B03EC";
shapes = (
{
ref = A;
},
{
closed = 1;
nodes = (
(471,871,o),
(550,853,o),
(612,891,cs),
(681,934,o),
(698,984,o),
(663,1042,cs),
(620,1109,o),
(590,1062,o),
(526,1015,cs),
(502,1003,o),
(484,1001,o),
(471,1011,cs),
(376,1086,o),
(297,1104,o),
(235,1065,cs),
(166,1024,o),
(150,973,o),
(186,915,cs),
(206,882,o),
(232,876,o),
(266,895,cs),
(280,904,o),
(308,931,o),
(322,940,cs),
(343,953,o),
(361,955,o),
(376,945,cs)
);
}
);
width = 848;
}
);
unicode = 195;
},
{
glyphname = AE;
lastChange = "2023-11-16 23:28:50 +0000";
layers = (
{
layerId = "49F060A0-2273-4F54-8B81-08E0B15B03EC";
shapes = (
{
closed = 1;
nodes = (
(299,400,o),
(361,434,o),
(425,434,cs),
(488,434,o),
(549,400,o),
(549,334,cs),
(549,319,o),
(546,298,o),
(532,283,cs),
(515,265,o),
(477,252,o),
(429,252,cs),
(383,252,o),
(337,264,o),
(318,282,cs),
(306,293,o),
(299,310,o),
(299,332,cs)
);
},
{
closed = 1;
nodes = (
(726,73,o),
(835,318,o),
(835,471,cs),
(835,665,o),
(658,815,o),
(424,815,cs),
(194,815,o),
(13,669,o),
(13,468,cs),
(13,318,o),
(114,82,o),
(258,3,cs),
(278,-8,o),
(293,-11,o),
(304,-11,cs),
(347,-11,o),
(344,44,o),
(335,83,cs),
(330,104,o),
(318,139,o),
(318,152,cs),
(318,161,o),
(324,170,o),
(338,176,cs),
(351,182,o),
(387,191,o),
(426,191,cs),
(455,191,o),
(487,186,o),
(510,176,cs),
(527,169,o),
(531,162,o),
(531,154,cs),
(531,139,o),
(517,104,o),
(513,83,cs),
(506,37,o),
(501,-11,o),
(544,-11,cs),
(555,-11,o),
(571,-8,o),
(590,2,c)
);
},
{
closed = 1;
nodes = (
(894,241,o),
(934,229,o),
(971,229,cs),
(1016,229,o),
(1049,241,o),
(1049,284,cs),
(1049,327,o),
(1016,339,o),
(971,339,cs),
(934,339,o),
(894,332,o),
(849,339,cs),
(836,341,o),
(827,348,o),
(827,360,cs),
(827,435,o),
(904,479,o),
(969,479,cs),
(1029,479,o),
(1071,449,o),
(1127,449,cs),
(1223,449,o),
(1286,527,o),
(1286,600,cs),
(1286,747,o),
(1155,815,o),
(1004,815,cs),
(798,815,o),
(554,688,o),
(554,402,cs),
(554,160,o),
(753,-11,o),
(972,-11,cs),
(1031,-11,o),
(1093,0,o),
(1131,17,cs),
(1194,47,o),
(1208,85,o),
(1194,117,cs),
(1183,142,o),
(1142,170,o),
(1096,139,cs),
(1055,110,o),
(1029,94,o),
(983,94,cs),
(909,94,o),
(827,135,o),
(827,212,cs),
(827,224,o),
(836,231,o),
(849,233,cs)
);
}
);
width = 1296;
}
);
unicode = 198;
},
{
color = 10;
glyphname = B;
lastChange = "2023-11-16 23:28:50 +0000";
layers = (
{
layerId = "49F060A0-2273-4F54-8B81-08E0B15B03EC";
shapes = (
{
closed = 1;
nodes = (
(580,278,o),
(580,286,cs),
(580,294,o),
(587,299,o),
(594,300,cs),
(603,301,o),
(815,325,o),
(815,518,cs),
(815,688,o),
(652,812,o),
(445,812,cs),
(200,812,o),
(31,637,o),
(31,405,cs),
(31,165,o),
(211,-14,o),
(441,-14,cs),
(587,-14,o),
(707,67,o),
(707,168,cs),
(707,228,o),
(665,269,o),
(603,272,cs),
(600,272,o),
(597,272,o),
(595,272,cs),
(587,272,o)
);
},
{
closed = 1;
nodes = (
(384,96,o),
(354,114,o),
(354,137,cs),
(354,161,o),
(384,179,o),
(421,179,cs),
(457,179,o),
(487,161,o),
(487,137,cs),
(487,114,o),
(457,96,o),
(421,96,cs)
);
},
{
closed = 1;
nodes = (
(365,231,o),
(264,232,o),
(264,310,cs),
(264,352,o),
(301,400,o),
(354,430,cs),
(416,465,o),
(523,468,o),
(523,390,cs),
(523,353,o),
(493,306,o),
(438,274,cs)
);
}
);
width = 837;
}
);
unicode = 66;
},
{
color = 10;
glyphname = C;
lastChange = "2023-11-16 23:28:50 +0000";
layers = (
{
layerId = "49F060A0-2273-4F54-8B81-08E0B15B03EC";
shapes = (
{
closed = 1;
nodes = (
(737,744,o),
(606,812,o),
(455,812,cs),
(235,812,o),
(5,685,o),
(5,399,cs),
(5,157,o),
(204,-14,o),
(423,-14,cs),
(482,-14,o),
(544,-3,o),
(582,14,cs),
(645,44,o),
(659,82,o),
(645,114,cs),
(634,139,o),
(593,167,o),
(547,136,cs),
(506,107,o),
(480,91,o),
(423,91,cs),
(338,91,o),
(268,132,o),
(268,260,cs),
(268,340,o),
(332,426,o),
(420,426,cs),
(480,426,o),
(522,396,o),
(578,396,cs),
(674,396,o),
(737,474,o),
(737,585,cs)
);
}
);
width = 744;
}
);
unicode = 67;
},
{
glyphname = Cacute;
lastChange = "2023-11-16 23:28:50 +0000";
layers = (
{
layerId = "49F060A0-2273-4F54-8B81-08E0B15B03EC";
shapes = (
{
ref = C;
},
{
closed = 1;
nodes = (
(457,891,o),
(404,866,o),
(360,860,cs),
(330,856,o),
(301,858,o),
(288,883,cs),
(272,915,o),
(292,939,o),
(332,959,cs),
(397,992,o),
(402,1045,o),
(448,1071,cs),
(478,1088,o),
(513,1083,o),
(538,1050,cs),
(569,1009,o),
(550,961,o),
(497,921,cs)
);
}
);
width = 744;
}
);
unicode = 262;
},
{
glyphname = Ccaron;
lastChange = "2023-11-16 23:28:50 +0000";
layers = (
{
anchors = (
{
name = top;
pos = (412,1071);
}
);
layerId = "49F060A0-2273-4F54-8B81-08E0B15B03EC";
shapes = (
{
ref = C;
},
{
closed = 1;
nodes = (
(378,984,o),
(366,990,o),
(344,1012,cs),
(300,1058,o),
(268,1078,o),
(246,1078,cs),
(230,1078,o),
(222,1064,o),
(222,1050,cs),
(222,1009,o),
(240,976,o),
(281,931,cs),
(321,887,o),
(366,866,o),
(395,866,cs),
(423,866,o),
(468,887,o),
(508,931,cs),
(549,976,o),
(567,1009,o),
(567,1050,cs),
(567,1064,o),
(559,1078,o),
(543,1078,cs),
(521,1078,o),
(489,1058,o),
(445,1012,cs),
(423,990,o),
(411,984,o),
(395,984,cs)
);
}
);
width = 744;
}
);
unicode = 268;
},
{
glyphname = Ccedilla;
lastChange = "2023-11-16 23:28:50 +0000";
layers = (
{
anchors = (
{
name = bottom;
pos = (381,-24);
}
);
layerId = "49F060A0-2273-4F54-8B81-08E0B15B03EC";
shapes = (
{
ref = C;
},
{
closed = 1;
nodes = (
(469,-107,o),
(468,-94,o),
(464,-82,cs),
(448,-32,o),
(394,-8,o),
(366,-26,cs),
(356,-33,o),
(343,-46,o),
(343,-66,cs),
(343,-81,o),
(351,-89,o),
(361,-94,cs),
(372,-100,o),
(385,-102,o),
(394,-108,cs),
(399,-112,o),
(403,-118,o),
(403,-126,cs),
(403,-136,o),
(392,-144,o),
(367,-144,cs),
(354,-144,o),
(346,-149,o),
(346,-160,cs),
(346,-174,o),
(358,-177,o),
(378,-177,cs),
(395,-177,o),
(416,-175,o),
(432,-169,cs),
(454,-160,o),
(469,-144,o),
(469,-115,c)
);
}
);
width = 744;
}
);
unicode = 199;
},
{
glyphname = Cdotaccent;
lastChange = "2023-11-16 23:28:50 +0000";
layers = (
{
anchors = (
{
name = top;
pos = (421,1071);
}
);
layerId = "49F060A0-2273-4F54-8B81-08E0B15B03EC";
shapes = (
{
closed = 1;
nodes = (
(338,960,o),
(368,931,o),
(414,931,cs),
(460,931,o),
(490,960,o),
(490,1005,cs),
(490,1049,o),
(460,1077,o),
(414,1077,cs),
(368,1077,o),
(338,1049,o),
(338,1005,cs)
);
},
{
ref = C;
}
);
width = 744;
}
);
unicode = 266;
},
{
color = 10;
glyphname = D;
lastChange = "2023-11-16 23:28:50 +0000";
layers = (
{
layerId = "49F060A0-2273-4F54-8B81-08E0B15B03EC";
shapes = (
{
closed = 1;
nodes = (
(594,-11,o),
(761,205,o),
(761,438,cs),
(761,689,o),
(568,815,o),
(302,815,cs),
(84,815,o),
(21,731,o),
(21,439,cs),
(21,112,o),
(100,-11,o),
(312,-11,cs)
);
},
{
closed = 1;
nodes = (
(196,94,o),
(178,179,o),
(178,286,cs),
(178,397,o),
(197,457,o),
(298,457,cs),
(399,457,o),
(452,400,o),
(452,294,cs),
(452,174,o),
(382,94,o),
(290,94,c)
);
}
);
width = 767;
}
);
unicode = 68;
},
{
glyphname = Dcaron;
lastChange = "2023-11-16 23:28:50 +0000";
layers = (
{
anchors = (
{
name = top;
pos = (316,1082);
}
);
layerId = "49F060A0-2273-4F54-8B81-08E0B15B03EC";
shapes = (
{
ref = D;
},
{
closed = 1;
nodes = (
(334,988,o),
(344,997,o),
(362,1010,cs),
(383,1025,o),
(407,1043,o),
(420,1053,cs),
(454,1077,o),
(479,1095,o),
(498,1077,cs),
(513,1061,o),
(499,1042,o),
(481,1004,cs),
(468,979,o),
(451,947,o),
(431,912,cs),
(404,864,o),
(368,834,o),
(324,834,cs),
(280,834,o),
(244,864,o),
(217,912,cs),
(197,947,o),
(180,979,o),
(167,1004,cs),
(149,1042,o),
(135,1061,o),
(150,1077,cs),
(169,1095,o),
(194,1077,o),
(228,1053,c),
(281,1014,ls),
(305,997,o),
(314,988,o),
(324,988,cs)
);
}
);
width = 767;
}
);
unicode = 270;
},
{
glyphname = Dcroat;
lastChange = "2023-11-16 23:28:50 +0000";
layers = (
{
layerId = "49F060A0-2273-4F54-8B81-08E0B15B03EC";
shapes = (
{
closed = 1;
nodes = (
(739,-11,o),
(906,205,o),
(906,438,cs),
(906,689,o),
(713,815,o),
(447,815,cs),
(174,815,o),
(166,653,o),
(166,404,cs),
(166,396,o),
(163,390,o),
(155,390,cs),
(27,390,o),
(-9,354,o),
(-9,309,cs),
(-9,262,o),
(29,229,o),
(159,229,cs),
(162,229,o),
(164,229,o),
(168,229,cs),
(176,229,o),
(183,225,o),
(186,210,cs),
(218,55,o),
(302,-11,o),
(457,-11,cs)
);
},
{
closed = 0;
nodes = (
(344,211,l)
);
},
{
closed = 1;
nodes = (
(355,244,o),
(367,247,o),
(377,249,cs),
(454,265,o),
(484,285,o),
(484,311,cs),
(484,337,o),
(457,352,o),
(371,369,cs),
(365,370,o),
(356,372,o),
(343,374,cs),
(340,375,o),
(334,377,o),
(337,384,c),
(351,432,o),
(382,457,o),
(447,457,cs),
(548,457,o),
(601,400,o),
(601,294,cs),
(601,174,o),
(531,94,o),
(439,94,c),
(361,94,o),
(335,153,o),
(329,231,c),
(329,238,o),
(333,241,o),
(338,241,c)
);
}
);
width = 912;
}
);
unicode = 272;
},
{
glyphname = Eth;
lastChange = "2023-11-16 23:28:50 +0000";
layers = (
{
layerId = "49F060A0-2273-4F54-8B81-08E0B15B03EC";
shapes = (
{
closed = 1;
nodes = (
(739,-9,o),
(906,207,o),
(906,440,cs),
(906,691,o),
(713,817,o),
(447,817,cs),
(229,817,o),
(166,733,o),
(166,441,cs),
(166,429,o),
(166,417,o),
(166,406,cs),
(166,398,o),
(163,392,o),
(155,392,cs),
(27,392,o),
(-9,356,o),
(-9,311,cs),
(-9,264,o),
(29,231,o),
(159,231,cs),
(162,231,o),
(164,231,o),
(168,231,cs),
(176,231,o),
(182,227,o),
(184,221,c),
(218,57,o),
(302,-9,o),
(457,-9,cs)
);
},
{
closed = 1;
nodes = (
(361,96,o),
(326,148,o),
(326,223,cs),
(326,228,o),
(330,231,o),
(335,231,cs),
(465,231,o),
(503,264,o),
(503,311,cs),
(503,355,o),
(468,391,o),
(346,392,cs),
(341,392,o),
(335,395,o),
(338,402,cs),
(354,439,o),
(385,459,o),
(443,459,cs),
(544,459,o),
(597,402,o),
(597,296,cs),
(597,176,o),
(527,96,o),
(435,96,cs)
);
}
);
width = 912;
}
);
unicode = 208;
},
{
color = 10;
glyphname = E;
lastChange = "2023-11-16 23:28:50 +0000";
layers = (
{
layerId = "49F060A0-2273-4F54-8B81-08E0B15B03EC";
shapes = (
{
closed = 1;
nodes = (
(345,237,o),
(385,225,o),
(422,225,cs),
(467,225,o),
(500,237,o),
(500,280,cs),
(500,323,o),
(467,335,o),
(422,335,cs),
(385,335,o),
(345,328,o),
(300,335,cs),
(287,337,o),
(278,344,o),
(278,356,cs),
(278,431,o),
(355,475,o),
(420,475,cs),
(480,475,o),
(522,445,o),
(578,445,cs),
(674,445,o),
(737,523,o),
(737,596,cs),
(737,743,o),
(606,811,o),
(455,811,cs),
(249,811,o),
(5,684,o),
(5,398,cs),
(5,156,o),
(204,-15,o),
(423,-15,cs),
(482,-15,o),
(544,-4,o),
(582,13,cs),
(645,43,o),
(659,81,o),
(645,113,cs),
(634,138,o),
(593,166,o),
(547,135,cs),
(506,106,o),
(480,90,o),
(434,90,cs),
(360,90,o),
(278,131,o),
(278,208,cs),
(278,220,o),
(287,227,o),
(300,229,cs)
);
}
);
width = 744;
}
);
unicode = 69;
},
{
glyphname = Eacute;
lastChange = "2023-11-16 23:28:50 +0000";
layers = (
{
layerId = "49F060A0-2273-4F54-8B81-08E0B15B03EC";
shapes = (
{
ref = E;
},
{
closed = 1;
nodes = (
(438,890,o),
(385,865,o),
(341,859,cs),
(311,855,o),
(282,857,o),
(269,882,cs),
(253,914,o),
(273,938,o),
(313,958,cs),
(378,991,o),
(383,1044,o),
(429,1070,cs),
(459,1087,o),
(494,1082,o),
(519,1049,cs),
(550,1008,o),
(531,960,o),
(478,920,cs)
);
}
);
width = 744;
}
);
unicode = 201;
},
{
glyphname = Ecaron;
lastChange = "2023-11-16 23:28:50 +0000";
layers = (
{
anchors = (
{
name = top;
pos = (408,1080);
}
);
layerId = "49F060A0-2273-4F54-8B81-08E0B15B03EC";
shapes = (
{
ref = E;
},
{
closed = 1;
nodes = (
(413,986,o),
(423,995,o),
(441,1008,cs),
(462,1023,o),
(486,1041,o),
(499,1051,cs),
(533,1075,o),
(558,1093,o),
(577,1075,cs),
(592,1059,o),
(578,1040,o),
(560,1002,cs),
(547,977,o),
(530,945,o),
(510,910,cs),
(483,862,o),
(447,832,o),
(403,832,cs),
(359,832,o),
(323,862,o),
(296,910,cs),
(276,945,o),
(259,977,o),
(246,1002,cs),
(228,1040,o),
(214,1059,o),
(229,1075,cs),
(248,1093,o),
(273,1075,o),
(307,1051,c),
(360,1012,ls),
(384,995,o),
(393,986,o),
(403,986,cs)
);
}
);
width = 744;
}
);
unicode = 282;
},
{
glyphname = Ecircumflex;
lastChange = "2023-11-16 23:28:50 +0000";
layers = (
{
anchors = (
{
name = top;
pos = (418,1081);
}
);
layerId = "49F060A0-2273-4F54-8B81-08E0B15B03EC";
shapes = (
{
ref = E;
},
{
closed = 1;
nodes = (
(410,928,o),
(401,919,o),
(377,902,cs),
(324,863,l),
(290,839,o),
(265,821,o),
(246,839,cs),
(231,855,o),
(245,874,o),
(263,912,cs),
(276,937,o),
(293,969,o),
(313,1004,cs),
(340,1052,o),
(376,1082,o),
(420,1082,cs),
(464,1082,o),
(500,1052,o),
(527,1004,cs),
(547,969,o),
(564,937,o),
(577,912,cs),
(595,874,o),
(609,855,o),
(594,839,cs),
(575,821,o),
(550,839,o),
(516,863,cs),
(503,873,o),
(479,891,o),
(458,906,cs),
(440,919,o),
(430,928,o),
(420,928,cs)
);
}
);
width = 744;
}
);
unicode = 202;
},
{
glyphname = Edieresis;
lastChange = "2023-11-16 23:28:50 +0000";
layers = (
{
anchors = (
{
name = top;
pos = (424,1066);
}
);
layerId = "49F060A0-2273-4F54-8B81-08E0B15B03EC";
shapes = (
{
ref = E;
},
{
closed = 1;
nodes = (
(250,961,o),
(280,932,o),
(326,932,cs),
(372,932,o),
(402,961,o),
(402,1006,cs),
(402,1050,o),
(372,1078,o),
(326,1078,cs),
(280,1078,o),
(250,1050,o),
(250,1006,cs)
);
},
{
closed = 1;
nodes = (
(446,961,o),
(476,932,o),
(522,932,cs),
(568,932,o),
(598,961,o),
(598,1006,cs),
(598,1050,o),
(568,1078,o),
(522,1078,cs),
(476,1078,o),
(446,1050,o),
(446,1006,cs)
);
}
);
width = 744;
}
);
unicode = 203;
},
{
glyphname = Edotaccent;
lastChange = "2023-11-16 23:28:50 +0000";
layers = (
{
anchors = (
{
name = top;
pos = (408,1078);
}
);
layerId = "49F060A0-2273-4F54-8B81-08E0B15B03EC";
shapes = (
{
ref = E;
},
{
closed = 1;
nodes = (
(332,961,o),
(362,932,o),
(408,932,cs),
(454,932,o),
(484,961,o),
(484,1006,cs),
(484,1050,o),
(454,1078,o),
(408,1078,cs),
(362,1078,o),
(332,1050,o),
(332,1006,cs)
);
}
);
width = 744;
}
);
unicode = 278;
},
{
glyphname = Egrave;
lastChange = "2023-11-16 23:28:50 +0000";
layers = (
{
anchors = (
{
name = top;
pos = (454,1061);
}
);
layerId = "49F060A0-2273-4F54-8B81-08E0B15B03EC";
shapes = (
{
ref = E;
},
{
closed = 1;
nodes = (
(268,961,o),
(249,1009,o),
(280,1050,cs),
(305,1083,o),
(340,1088,o),
(370,1071,cs),
(416,1045,o),
(421,992,o),
(486,959,cs),
(526,939,o),
(546,915,o),
(530,883,cs),
(517,858,o),
(488,856,o),
(458,860,cs),
(414,866,o),
(361,891,o),
(321,921,cs)
);
}
);
width = 744;
}
);
unicode = 200;
},
{
glyphname = Emacron;
lastChange = "2023-11-16 23:28:50 +0000";
layers = (
{
anchors = (
{
name = top;
pos = (380,1077);
}
);
layerId = "49F060A0-2273-4F54-8B81-08E0B15B03EC";
shapes = (
{
ref = E;
},
{
closed = 1;
nodes = (
(209,918,o),
(171,951,o),
(171,998,cs),
(171,1043,o),
(207,1079,o),
(335,1079,cs),
(442,1079,o),
(527,1065,o),
(549,1061,cs),
(635,1044,o),
(662,1029,o),
(662,1003,cs),
(662,977,o),
(632,957,o),
(555,941,cs),
(519,933,o),
(433,918,o),
(339,918,cs)
);
}
);
width = 744;
}
);
unicode = 274;
},
{
glyphname = Eogonek;
lastChange = "2023-11-16 23:28:50 +0000";
layers = (
{
anchors = (
{
name = bottom;
pos = (407,-21);
}
);
layerId = "49F060A0-2273-4F54-8B81-08E0B15B03EC";
shapes = (
{
pos = (0,-3);
ref = E;
},
{
closed = 1;
nodes = (
(482,-179,o),
(493,-171,o),
(493,-159,cs),
(493,-147,o),
(482,-140,o),
(465,-140,cs),
(437,-140,o),
(421,-130,o),
(421,-110,cs),
(421,-97,o),
(434,-86,o),
(445,-77,cs),
(466,-59,o),
(476,-37,o),
(451,-13,cs),
(432,5,o),
(397,-2,o),
(371,-31,cs),
(334,-73,o),
(340,-126,o),
(377,-159,cs),
(400,-180,o),
(428,-187,o),
(466,-181,c)
);
}
);
width = 744;
}
);
unicode = 280;
},
{
color = 10;
glyphname = F;
lastChange = "2023-11-16 23:28:50 +0000";
layers = (
{
layerId = "49F060A0-2273-4F54-8B81-08E0B15B03EC";
shapes = (
{
closed = 1;
nodes = (
(352,242,o),
(391,233,o),
(428,233,cs),
(473,233,o),
(506,245,o),
(506,288,cs),
(506,331,o),
(473,343,o),
(428,343,cs),
(391,343,o),
(352,339,o),
(306,343,cs),
(293,344,o),
(285,349,o),
(285,361,cs),
(285,434,o),
(359,476,o),
(423,476,cs),
(481,476,o),
(522,447,o),
(577,447,cs),
(670,447,o),
(730,523,o),
(730,594,cs),
(730,736,o),
(603,803,o),
(457,803,cs),
(257,803,o),
(19,679,o),
(19,401,cs),
(19,206,o),
(139,67,o),
(201,11,cs),
(226,-9,o),
(249,-23,o),
(276,-10,cs),
(303,3,o),
(310,35,o),
(300,65,cs),
(292,91,o),
(287,117,o),
(285,167,c),
(285,229,o),
(293,236,o),
(306,237,c)
);
}
);
width = 730;
}
);
unicode = 70;
},
{
color = 10;
glyphname = G;
lastChange = "2023-11-16 23:28:50 +0000";
layers = (
{
hints = (
{
place = (16, 592);
place = (16, 592);
type = Stem;
}
);
layerId = "49F060A0-2273-4F54-8B81-08E0B15B03EC";
shapes = (
{
closed = 1;
locked = 1;
nodes = (
(313,436,o),
(268,344,o),
(268,239,cs),
(268,115,o),
(331,56,o),
(412,56,cs),
(473,56,o),
(510,91,o),
(510,125,cs),
(510,167,o),
(493,181,o),
(478,181,cs),
(451,181,o),
(432,181,o),
(413,181,cs),
(369,181,o),
(346,204,o),
(346,234,cs),
(346,264,o),
(369,288,o),
(412,288,cs),
(474,288,o),
(501,288,o),
(531,288,cs),
(560,288,o),
(587,288,o),
(649,288,cs),
(692,288,o),
(715,264,o),
(715,209,cs),
(715,75,o),
(576,-13,o),
(407,-13,cs),
(196,-13,o),
(9,156,o),
(9,381,cs),
(9,629,o),
(175,812,o),
(438,812,cs),
(606,812,o),
(750,735,o),
(750,571,cs),
(750,490,o),
(680,403,o),
(575,403,cs),
(519,403,o),
(476,436,o),
(422,436,cs)
);
}
);
width = 743;
}
);
unicode = 71;
},
{
glyphname = Gbreve;
lastChange = "2023-11-16 23:28:50 +0000";
layers = (
{
anchors = (
{
name = top;
pos = (426,903);
}
);
layerId = "49F060A0-2273-4F54-8B81-08E0B15B03EC";
shapes = (
{
ref = G;
},
{
closed = 1;
nodes = (
(295,837,o),
(215,873,o),
(187,940,cs),
(162,1002,o),
(181,1059,o),
(233,1076,cs),
(266,1088,o),
(298,1072,o),
(309,1041,cs),
(315,1024,o),
(317,998,o),
(323,976,cs),
(340,915,o),
(377,903,o),
(426,903,cs),
(474,903,o),
(510,915,o),
(527,976,cs),
(535,1006,o),
(537,1026,o),
(541,1041,cs),
(551,1072,o),
(582,1087,o),
(616,1076,cs),
(669,1059,o),
(688,1002,o),
(663,939,cs),
(635,871,o),
(551,837,o),
(426,837,cs)
);
}
);
width = 726;
}
);
unicode = 286;
},
{
glyphname = Gcommaaccent;
lastChange = "2023-11-16 23:28:50 +0000";
layers = (
{
anchors = (
{
name = bottom;
pos = (494,-31);
}
);
layerId = "49F060A0-2273-4F54-8B81-08E0B15B03EC";
shapes = (
{
ref = G;
},
{
closed = 1;
nodes = (
(410,-225,o),
(357,-250,o),
(313,-256,cs),
(283,-260,o),
(254,-258,o),
(241,-233,cs),
(225,-201,o),
(245,-177,o),
(285,-157,cs),
(350,-124,o),
(355,-71,o),
(401,-45,cs),
(431,-28,o),
(466,-33,o),
(491,-66,cs),
(522,-107,o),
(503,-155,o),
(450,-195,cs)
);
}
);
width = 726;
}
);
unicode = 290;
},
{
glyphname = Gdotaccent;
lastChange = "2023-11-16 23:28:50 +0000";
layers = (
{
anchors = (
{
name = op;
pos = (414,1071);
}
);
layerId = "49F060A0-2273-4F54-8B81-08E0B15B03EC";
shapes = (
{
ref = G;
},
{
closed = 1;
nodes = (
(332,961,o),
(362,932,o),
(408,932,cs),
(454,932,o),
(484,961,o),
(484,1006,cs),
(484,1050,o),
(454,1078,o),
(408,1078,cs),
(362,1078,o),
(332,1050,o),
(332,1006,cs)
);
}
);
width = 759;
}
);
unicode = 288;
},
{
color = 10;
glyphname = H;
lastChange = "2023-11-16 23:28:50 +0000";
layers = (
{
layerId = "49F060A0-2273-4F54-8B81-08E0B15B03EC";
shapes = (
{
closed = 1;
nodes = (
(425,288,o),
(477,288,cs),
(508,288,o),
(536,304,o),
(536,341,cs),
(536,368,o),
(529,396,o),
(520,427,cs),
(494,515,o),
(448,549,o),
(448,630,cs),
(448,749,o),
(524,800,o),
(621,800,cs),
(736,800,o),
(835,701,o),
(835,500,cs),
(835,261,o),
(698,81,o),
(621,13,cs),
(596,-10,o),
(571,-25,o),
(543,-9,cs),
(517,6,o),
(509,35,o),
(518,67,cs),
(522,79,o),
(535,118,o),
(535,134,cs),
(535,161,o),
(518,184,o),
(477,184,cs),
(464,184,o),
(381,184,o),
(371,184,cs),
(332,184,o),
(315,159,o),
(315,134,cs),
(315,115,o),
(328,78,o),
(332,67,cs),
(341,34,o),
(333,5,o),
(307,-10,cs),
(279,-25,o),
(254,-11,o),
(229,12,cs),
(152,80,o),
(15,260,o),
(15,499,cs),
(15,700,o),
(114,800,o),
(229,800,cs),
(326,800,o),
(402,748,o),
(402,629,cs),
(402,548,o),
(356,514,o),
(330,427,cs),
(321,395,o),
(314,368,o),
(314,340,cs),
(314,303,o),
(342,288,o),
(373,288,cs),
(389,288,o)
);
}
);
width = 850;
}
);
unicode = 72;
},
{
glyphname = Hbar;
lastChange = "2023-11-16 23:28:50 +0000";
layers = (
{
layerId = "49F060A0-2273-4F54-8B81-08E0B15B03EC";
shapes = (
{
closed = 1;
nodes = (
(171,0,o),
(190,41,o),
(208,158,cs),
(209,165,o),
(215,190,o),
(215,235,cs),
(215,240,o),
(218,243,o),
(223,243,cs),
(227,243,o),
(231,243,o),
(235,243,cs),
(290,243,o),
(346,255,o),
(382,255,cs),
(392,255,o),
(393,254,o),
(394,248,cs),
(400,203,o),
(402,190,o),
(406,158,cs),
(422,43,o),
(443,0,o),
(472,0,cs),
(499,0,o),
(517,39,o),
(536,161,cs),
(542,199,o),
(560,320,o),
(560,470,cs),
(560,485,o),
(560,498,o),
(560,511,cs),
(560,516,o),
(562,519,o),
(565,520,cs),
(597,532,o),
(611,545,o),
(611,561,cs),
(611,578,o),
(597,590,o),
(559,601,cs),
(555,602,o),
(551,606,o),
(551,610,cs),
(551,684,o),
(508,708,o),
(475,708,cs),
(445,708,o),
(420,690,o),
(404,634,cs),
(403,630,o),
(402,628,o),
(387,628,cs),
(357,628,o),
(288,636,o),
(224,637,c),
(219,638,o),
(216,640,o),
(214,645,cs),
(198,691,o),
(174,708,o),
(148,708,cs),
(107,708,o),
(83,668,o),
(76,634,cs),
(75,629,o),
(75,628,o),
(68,626,cs),
(13,612,o),
(-7,585,o),
(-7,556,cs),
(-7,530,o),
(8,508,o),
(49,494,cs),
(55,492,o),
(57,489,o),
(57,485,cs),
(57,480,o),
(57,474,o),
(57,468,cs),
(57,336,o),
(69,219,o),
(78,156,cs),
(94,45,o),
(115,0,o),
(144,0,cs)
);
},
{
closed = 1;
nodes = (
(344,399,o),
(296,404,o),
(248,404,cs),
(245,404,o),
(241,404,o),
(238,404,cs),
(234,404,o),
(231,407,o),
(231,412,cs),
(231,431,o),
(232,452,o),
(232,471,cs),
(232,475,o),
(235,478,o),
(240,478,cs),
(291,478,o),
(338,481,o),
(376,484,c),
(381,484,o),
(385,482,o),
(385,477,cs),
(385,474,o),
(385,473,o),
(385,469,cs),
(385,446,o),
(385,424,o),
(385,407,cs),
(385,399,o),
(383,396,o),
(371,397,c)
);
},
{
closed = 0;
nodes = (
(376,484,l)
);
},
{
closed = 0;
nodes = (
(224,638,l)
);
},
{
closed = 0;
nodes = (
(394,488,l)
);
}
);
width = 602;
}
);
unicode = 294;
},
{
color = 10;
glyphname = I;
lastChange = "2023-11-16 23:28:50 +0000";
layers = (
{
layerId = "49F060A0-2273-4F54-8B81-08E0B15B03EC";
shapes = (
{
closed = 1;
nodes = (
(108,809,o),
(30,731,o),
(30,589,cs),
(30,398,o),
(71,202,o),
(105,83,cs),
(124,20,o),
(150,-17,o),
(199,-17,cs),
(248,-17,o),
(274,20,o),
(293,83,cs),
(327,202,o),
(368,398,o),
(368,589,cs),
(368,731,o),
(290,809,o),
(199,809,c)
);
}
);
width = 398;
}
);
unicode = 73;
},
{
glyphname = Iacute;
lastChange = "2023-11-16 23:28:50 +0000";
layers = (
{
anchors = (
{
name = "new anchor";
pos = (204,1068);
}
);
layerId = "49F060A0-2273-4F54-8B81-08E0B15B03EC";
shapes = (
{
ref = I;
},
{
closed = 1;
nodes = (
(234,893,o),
(181,868,o),
(137,862,cs),
(107,858,o),
(78,860,o),
(65,885,cs),
(49,917,o),
(69,941,o),
(109,961,cs),
(174,994,o),
(179,1047,o),
(225,1073,cs),
(255,1090,o),
(290,1085,o),
(315,1052,cs),
(346,1011,o),
(327,963,o),
(274,923,cs)
);
}
);
width = 352;
}
);
unicode = 205;
},
{
glyphname = Icircumflex;
lastChange = "2023-11-16 23:28:50 +0000";
layers = (
{
anchors = (
{
name = top;
pos = (198,1076);
}
);
layerId = "49F060A0-2273-4F54-8B81-08E0B15B03EC";
shapes = (
{
ref = I;
},
{
closed = 1;
nodes = (
(187,928,o),
(178,919,o),
(154,902,cs),
(101,863,l),
(67,839,o),
(42,821,o),
(23,839,cs),
(8,855,o),
(22,874,o),
(40,912,cs),
(53,937,o),
(70,969,o),
(90,1004,cs),
(117,1052,o),
(153,1082,o),
(197,1082,cs),
(241,1082,o),
(277,1052,o),
(304,1004,cs),
(324,969,o),
(341,937,o),
(354,912,cs),
(372,874,o),
(386,855,o),
(371,839,cs),
(352,821,o),
(327,839,o),
(293,863,cs),
(280,873,o),
(256,891,o),
(235,906,cs),
(217,919,o),
(207,928,o),
(197,928,cs)
);
}
);
width = 398;
}
);
unicode = 206;
},
{
glyphname = Idieresis;
lastChange = "2023-11-16 23:28:50 +0000";
layers = (
{
anchors = (
{
name = top;
pos = (207,1082);
}
);
layerId = "49F060A0-2273-4F54-8B81-08E0B15B03EC";
shapes = (
{
ref = I;
},
{
closed = 1;
nodes = (
(18,961,o),
(48,932,o),
(94,932,cs),
(140,932,o),
(170,961,o),
(170,1006,cs),
(170,1050,o),
(140,1078,o),
(94,1078,cs),
(48,1078,o),
(18,1050,o),
(18,1006,cs)
);
},
{
closed = 1;
nodes = (
(214,961,o),
(244,932,o),
(290,932,cs),
(336,932,o),
(366,961,o),
(366,1006,cs),
(366,1050,o),
(336,1078,o),
(290,1078,cs),
(244,1078,o),
(214,1050,o),
(214,1006,cs)
);
}
);
width = 411;
}
);
unicode = 207;
},
{
glyphname = Idotaccent;
lastChange = "2023-11-16 23:28:50 +0000";
layers = (
{
anchors = (
{
name = top;
pos = (205,1068);
}
);
layerId = "49F060A0-2273-4F54-8B81-08E0B15B03EC";
shapes = (
{
ref = I;
},
{
closed = 1;
nodes = (
(119,961,o),
(149,932,o),
(195,932,cs),
(241,932,o),
(271,961,o),
(271,1006,cs),
(271,1050,o),
(241,1078,o),
(195,1078,cs),
(149,1078,o),
(119,1050,o),
(119,1006,cs)
);
}
);
width = 398;
}
);
unicode = 304;
},
{
glyphname = Igrave;
lastChange = "2023-11-16 23:28:50 +0000";
layers = (
{
layerId = "49F060A0-2273-4F54-8B81-08E0B15B03EC";
shapes = (
{
ref = I;
},
{
closed = 1;
nodes = (
(85,961,o),
(66,1009,o),
(97,1050,cs),
(122,1083,o),
(157,1088,o),
(187,1071,cs),
(233,1045,o),
(238,992,o),
(303,959,cs),
(343,939,o),
(363,915,o),
(347,883,cs),
(334,858,o),
(305,856,o),
(275,860,cs),
(231,866,o),
(178,891,o),
(138,921,cs)
);
}
);
width = 405;
}
);
unicode = 204;
},
{
glyphname = Imacron;
lastChange = "2023-11-16 23:28:50 +0000";
layers = (
{
anchors = (
{
name = top;
pos = (216,1082);
}
);
layerId = "49F060A0-2273-4F54-8B81-08E0B15B03EC";
shapes = (
{
pos = (18,0);
ref = I;
},
{
closed = 1;
nodes = (
(29,918,o),
(-9,951,o),
(-9,998,cs),
(-9,1043,o),
(27,1079,o),
(155,1079,cs),
(262,1079,o),
(347,1065,o),
(369,1061,cs),
(455,1044,o),
(482,1029,o),
(482,1003,cs),
(482,977,o),
(452,957,o),
(375,941,cs),
(339,933,o),
(253,918,o),
(159,918,cs)
);
}
);
width = 473;
}
);
unicode = 298;
},
{
glyphname = Iogonek;
lastChange = "2023-11-16 23:28:50 +0000";
layers = (
{
anchors = (
{
name = bottom;
pos = (199,0);
}
);
layerId = "49F060A0-2273-4F54-8B81-08E0B15B03EC";
shapes = (
{
ref = I;
},
{
closed = 1;
nodes = (
(259,-176,o),
(270,-168,o),
(270,-156,cs),
(270,-144,o),
(259,-137,o),
(242,-137,cs),
(214,-137,o),
(198,-127,o),
(198,-107,cs),
(198,-94,o),
(211,-83,o),
(222,-74,cs),
(243,-56,o),
(253,-34,o),
(228,-10,cs),
(209,8,o),
(174,1,o),
(148,-28,cs),
(111,-70,o),
(117,-123,o),
(154,-156,cs),
(177,-177,o),
(205,-184,o),
(243,-178,c)
);
}
);
width = 398;
}
);
unicode = 302;
},
{
color = 10;
glyphname = J;
lastChange = "2023-11-16 23:28:50 +0000";
layers = (
{
layerId = "49F060A0-2273-4F54-8B81-08E0B15B03EC";
shapes = (
{
closed = 1;
nodes = (
(123,-15,o),
(155,-15,cs),
(167,-15,o),
(220,-12,o),
(272,21,cs),
(372,85,o),
(471,269,o),
(471,481,cs),
(471,707,o),
(358,811,o),
(241,811,cs),
(141,811,o),
(68,735,o),
(82,638,cs),
(90,584,o),
(130,485,o),
(155,425,cs),
(196,327,o),
(212,260,o),
(212,209,cs),
(212,105,o),
(146,90,o),
(117,90,cs),
(91,90,o),
(67,90,o),
(54,90,cs),
(17,90,o),
(-1,67,o),
(-1,38,cs),
(-1,10,o),
(20,-4,o),
(53,-10,cs),
(85,-15,o)
);
}
);
width = 475;
}
);
unicode = 74;
},
{
color = 10;
glyphname = K;
lastChange = "2023-11-16 23:28:50 +0000";
layers = (
{
layerId = "49F060A0-2273-4F54-8B81-08E0B15B03EC";
shapes = (
{
closed = 1;
locked = 1;
nodes = (
(500,291,o),
(508,318,o),
(531,333,cs),
(558,350,o),
(705,444,o),
(684,431,cs),
(757,477,o),
(827,545,o),
(827,633,cs),
(827,723,o),
(752,799,o),
(659,799,cs),
(564,799,o),
(511,720,o),
(488,630,cs),
(478,590,o),
(430,400,o),
(406,367,cs),
(390,344,o),
(361,340,o),
(339,356,cs),
(319,370,o),
(317,397,o),
(325,421,cs),
(346,475,o),
(421,520,o),
(421,621,cs),
(421,726,o),
(344,800,o),
(243,800,cs),
(159,800,o),
(18,730,o),
(18,535,cs),
(18,279,o),
(148,86,o),
(224,20,cs),
(249,-2,o),
(273,-17,o),
(301,-3,cs),
(328,11,o),
(335,43,o),
(325,74,cs),
(316,104,o),
(310,135,o),
(310,152,cs),
(310,172,o),
(319,197,o),
(335,208,cs),
(361,227,o),
(400,225,o),
(427,172,cs),
(450,127,o),
(509,45,o),
(523,30,cs),
(544,6,o),
(600,-26,o),
(642,6,cs),
(667,25,o),
(694,71,o),
(640,121,cs),
(612,146,o),
(534,220,o),
(511,269,cs)
);
}
);
width = 835;
}
);
unicode = 75;
},
{
glyphname = Kcommaaccent;
lastChange = "2023-11-16 23:28:50 +0000";
layers = (
{
anchors = (
{
name = bottom;
pos = (456,-35);
}
);
layerId = "49F060A0-2273-4F54-8B81-08E0B15B03EC";
shapes = (
{
ref = K;
},
{
closed = 1;
nodes = (
(377,-225,o),
(324,-250,o),
(280,-256,cs),
(250,-260,o),
(221,-258,o),
(208,-233,cs),
(192,-201,o),
(212,-177,o),
(252,-157,cs),
(317,-124,o),
(322,-71,o),
(368,-45,cs),
(398,-28,o),
(433,-33,o),
(458,-66,cs),
(489,-107,o),
(470,-155,o),
(417,-195,cs)
);
}
);
width = 841;
}
);
unicode = 310;
},
{
color = 10;
glyphname = L;
lastChange = "2023-11-16 23:28:50 +0000";
layers = (
{
layerId = "49F060A0-2273-4F54-8B81-08E0B15B03EC";
shapes = (
{
closed = 1;
nodes = (
(356,505,o),
(401,614,o),
(401,664,cs),
(401,759,o),
(322,811,o),
(241,811,cs),
(124,811,o),
(11,711,o),
(11,494,cs),
(11,275,o),
(111,95,o),
(226,20,cs),
(267,-6,o),
(316,-15,o),
(383,-15,cs),
(447,-15,o),
(483,-7,o),
(501,-3,cs),
(531,4,o),
(551,19,o),
(551,47,cs),
(551,74,o),
(530,97,o),
(495,97,cs),
(443,97,o),
(332,88,o),
(296,129,cs),
(263,167,o),
(247,247,o),
(325,432,cs)
);
}
);
width = 537;
}
);
unicode = 76;
},
{
glyphname = Lacute;
lastChange = "2023-11-16 23:28:50 +0000";
layers = (
{
anchors = (
{
name = top;
pos = (304,1075);
}
);
layerId = "49F060A0-2273-4F54-8B81-08E0B15B03EC";
shapes = (
{
ref = L;
},
{
closed = 1;
nodes = (
(280,890,o),
(227,865,o),
(183,859,cs),
(153,855,o),
(124,857,o),
(111,882,cs),
(95,914,o),
(115,938,o),
(155,958,cs),
(220,991,o),
(225,1044,o),
(271,1070,cs),
(301,1087,o),
(336,1082,o),
(361,1049,cs),
(392,1008,o),
(373,960,o),
(320,920,cs)
);
}
);
width = 537;
}
);
unicode = 313;
},
{
glyphname = Lcaron;
lastChange = "2023-11-16 23:28:50 +0000";
layers = (
{
layerId = "49F060A0-2273-4F54-8B81-08E0B15B03EC";
shapes = (
{
ref = L;
},
{
closed = 1;
nodes = (
(464,643,o),
(430,642,o),
(430,614,cs),
(430,582,o),
(468,573,o),
(491,573,cs),
(561,573,o),
(619,623,o),
(619,703,cs),
(619,782,o),
(581,799,o),
(548,799,cs),
(521,799,o),
(497,783,o),
(497,752,cs),
(497,740,o),
(503,710,o),
(503,697,cs),
(503,680,o),
(495,670,o),
(485,661,cs)
);
}
);
width = 610;
}
);
unicode = 317;
},
{
glyphname = Lcommaaccent;
lastChange = "2023-11-16 23:28:50 +0000";
layers = (
{
anchors = (
{
name = bottom;
pos = (298,-38);
}
);
layerId = "49F060A0-2273-4F54-8B81-08E0B15B03EC";
shapes = (
{
ref = L;
},
{
closed = 1;
nodes = (
(338,-225,o),
(285,-250,o),
(241,-256,cs),
(211,-260,o),
(182,-258,o),
(169,-233,cs),
(153,-201,o),
(173,-177,o),
(213,-157,cs),
(278,-124,o),
(283,-71,o),
(329,-45,cs),
(359,-28,o),
(394,-33,o),
(419,-66,cs),
(450,-107,o),
(431,-155,o),
(378,-195,cs)
);
}
);
width = 537;
}
);
unicode = 315;
},
{
glyphname = Lslash;
lastChange = "2023-11-16 23:28:50 +0000";
layers = (
{
layerId = "49F060A0-2273-4F54-8B81-08E0B15B03EC";
shapes = (
{
closed = 1;
nodes = (
(450,628,o),
(463,618,o),
(472,600,cs),
(491,559,o),
(477,511,o),
(368,454,cs),
(364,452,o),
(362,447,o),
(361,445,cs),
(360,442,o),
(357,436,o),
(355,432,cs),
(277,247,o),
(293,167,o),
(326,129,cs),
(362,88,o),
(473,97,o),
(525,97,cs),
(560,97,o),
(581,74,o),
(581,47,cs),
(581,19,o),
(561,4,o),
(531,-3,cs),
(513,-7,o),
(477,-15,o),
(413,-15,cs),
(346,-15,o),
(297,-6,o),
(256,20,cs),
(170,76,o),
(93,191,o),
(59,338,cs),
(58,342,o),
(55,345,o),
(51,345,cs),
(21,345,o),
(7,350,o),
(0,365,cs),
(-10,385,o),
(0,410,o),
(39,445,cs),
(42,447,o),
(42,453,o),
(42,457,cs),
(42,469,o),
(41,481,o),
(41,494,cs),
(41,711,o),
(154,811,o),
(271,811,cs),
(352,811,o),
(431,759,o),
(431,664,cs),
(431,657,o),
(430,654,o),
(430,646,cs),
(430,643,o),
(430,637,o),
(437,634,c)
);
},
{
closed = 0;
nodes = (
(42,444,l)
);
}
);
width = 567;
}
);
unicode = 321;
},
{
color = 10;
glyphname = M;
lastChange = "2023-11-16 23:28:50 +0000";
layers = (
{
layerId = "49F060A0-2273-4F54-8B81-08E0B15B03EC";
shapes = (
{
closed = 1;
nodes = (
(337,179,o),
(352,315,o),
(345,354,cs),
(342,371,o),
(331,383,o),
(317,383,cs),
(299,383,o),
(291,373,o),
(284,350,cs),
(280,337,o),
(277,323,o),
(277,297,cs),
(277,228,o),
(298,165,o),
(306,122,c),
(306,122,o),
(302,136,o),
(322,65,cs),
(333,26,o),
(320,1,o),
(299,-12,cs),
(269,-30,o),
(243,-11,o),
(220,10,cs),
(142,80,o),
(6,258,o),
(6,497,cs),
(6,698,o),
(102,798,o),
(226,798,cs),
(317,798,o),
(382,745,o),
(393,623,cs),
(396,590,o),
(406,426,o),
(414,345,cs),
(415,334,o),
(422,304,o),
(452,304,cs),
(481,304,o),
(488,334,o),
(489,345,cs),
(497,426,o),
(507,590,o),
(510,623,cs),
(521,745,o),
(586,798,o),
(677,798,cs),
(801,798,o),
(897,698,o),
(897,497,cs),
(897,258,o),
(760,78,o),
(683,10,cs),
(656,-14,o),
(632,-29,o),
(604,-12,cs),
(579,3,o),
(571,31,o),
(581,65,cs),
(601,136,o),
(597,122,o),
(597,122,c),
(605,165,o),
(626,228,o),
(626,297,cs),
(626,323,o),
(623,337,o),
(619,350,cs),
(612,373,o),
(604,383,o),
(586,383,cs),
(577,383,o),
(562,377,o),
(558,354,cs),
(551,314,o),
(566,179,o),
(452,179,cs)
);
}
);
width = 903;
}
);
unicode = 77;
},
{
color = 10;
glyphname = N;
lastChange = "2023-11-16 23:28:50 +0000";
layers = (
{
layerId = "49F060A0-2273-4F54-8B81-08E0B15B03EC";
shapes = (
{
closed = 1;
nodes = (
(361,278,o),
(345,288,o),
(328,288,cs),
(307,288,o),
(289,270,o),
(289,248,cs),
(289,231,o),
(289,211,o),
(317,154,c),
(317,154,o),
(355,76,o),
(359,64,cs),
(368,32,o),
(360,3,o),
(334,-12,cs),
(306,-28,o),
(281,-13,o),
(256,10,cs),
(179,78,o),
(42,258,o),
(42,497,cs),
(42,698,o),
(141,798,o),
(256,798,cs),
(353,798,o),
(419,746,o),
(429,616,cs),
(434,558,o),
(445,457,o),
(453,393,cs),
(466,293,o),
(488,182,o),
(509,133,cs),
(517,115,o),
(525,97,o),
(545,97,cs),
(565,97,o),
(578,113,o),
(581,146,cs),
(588,234,o),
(551,387,o),
(542,517,cs),
(527,729,o),
(614,798,o),
(711,798,cs),
(826,798,o),
(901,698,o),
(901,497,cs),
(901,258,o),
(727,-13,o),
(565,-13,cs),
(461,-13,o),
(393,178,o),
(376,230,cs)
);
}
);
width = 898;
}
);
unicode = 78;
},
{
glyphname = Nacute;
lastChange = "2023-11-16 23:28:50 +0000";
layers = (
{
anchors = (
{
name = top;
pos = (609,1082);
}
);
layerId = "49F060A0-2273-4F54-8B81-08E0B15B03EC";
shapes = (
{
ref = N;
},
{
closed = 1;
nodes = (
(529,893,o),
(476,868,o),
(432,862,cs),
(402,858,o),
(373,860,o),
(360,885,cs),
(344,917,o),
(364,941,o),
(404,961,cs),
(469,994,o),
(474,1047,o),
(520,1073,cs),
(550,1090,o),
(585,1085,o),
(610,1052,cs),
(641,1011,o),
(622,963,o),
(569,923,cs)
);
}
);
width = 898;
}
);
unicode = 323;
},
{
glyphname = Ncaron;
lastChange = "2023-11-16 23:28:50 +0000";
layers = (
{
anchors = (
{
name = top;
pos = (459,986);
}
);
layerId = "49F060A0-2273-4F54-8B81-08E0B15B03EC";
shapes = (
{
ref = N;
},
{
closed = 1;
nodes = (
(481,982,o),
(491,991,o),
(509,1004,cs),
(530,1019,o),
(554,1037,o),
(567,1047,cs),
(601,1071,o),
(626,1089,o),
(645,1071,cs),
(660,1055,o),
(646,1036,o),
(628,998,cs),
(615,973,o),
(598,941,o),
(578,906,cs),
(551,858,o),
(515,828,o),
(471,828,cs),
(427,828,o),
(391,858,o),
(364,906,cs),
(344,941,o),
(327,973,o),
(314,998,cs),
(296,1036,o),
(282,1055,o),
(297,1071,cs),
(316,1089,o),
(341,1071,o),
(375,1047,c),
(428,1008,ls),
(452,991,o),
(461,982,o),
(471,982,cs)
);
}
);
width = 898;
}
);
unicode = 327;
},
{
glyphname = Ncommaaccent;
lastChange = "2023-11-16 23:28:50 +0000";
layers = (
{
anchors = (
{
name = bottom;
pos = (403,-32);
}
);
layerId = "49F060A0-2273-4F54-8B81-08E0B15B03EC";
shapes = (
{
ref = N;
},
{
closed = 1;
nodes = (
(455,-225,o),
(402,-250,o),
(358,-256,cs),
(328,-260,o),
(299,-258,o),
(286,-233,cs),
(270,-201,o),
(290,-177,o),
(330,-157,cs),
(395,-124,o),
(400,-71,o),
(446,-45,cs),
(476,-28,o),
(511,-33,o),
(536,-66,cs),
(567,-107,o),
(548,-155,o),
(495,-195,cs)
);
}
);
width = 898;
}
);
unicode = 325;
},
{
glyphname = Ntilde;
lastChange = "2023-11-16 23:28:50 +0000";
layers = (
{
anchors = (
{
name = top;
pos = (479,1081);
}
);
layerId = "49F060A0-2273-4F54-8B81-08E0B15B03EC";
shapes = (
{
ref = N;
},
{
closed = 1;
nodes = (
(516,901,o),
(568,889,o),
(620,921,cs),
(668,952,o),
(685,1002,o),
(660,1042,cs),
(645,1065,o),
(618,1071,o),
(596,1057,cs),
(585,1050,o),
(562,1028,o),
(551,1020,cs),
(533,1010,o),
(520,1009,o),
(508,1018,cs),
(426,1082,o),
(374,1094,o),
(321,1059,cs),
(273,1031,o),
(256,980,o),
(281,940,cs),
(295,918,o),
(322,911,o),
(345,925,cs),
(355,932,o),
(379,954,o),
(390,960,cs),
(407,973,o),
(419,973,o),
(433,964,cs)
);
}
);
width = 898;
}
);
unicode = 209;
},
{
glyphname = Eng;
lastChange = "2023-11-16 23:28:50 +0000";
layers = (
{
layerId = "49F060A0-2273-4F54-8B81-08E0B15B03EC";
shapes = (
{
closed = 1;
nodes = (
(580,-10,o),
(579,-16,cs),
(562,-79,o),
(512,-90,o),
(488,-90,cs),
(424,-90,ls),
(387,-90,o),
(369,-113,o),
(369,-142,cs),
(369,-170,o),
(390,-184,o),
(423,-190,cs),
(455,-196,o),
(494,-195,o),
(526,-195,cs),
(538,-195,o),
(594,-191,o),
(643,-159,cs),
(743,-93,o),
(853,115,o),
(887,330,cs),
(896,388,o),
(904,469,o),
(901,519,c),
(900,696,o),
(825,802,o),
(708,802,cs),
(614,802,o),
(528,733,o),
(542,521,cs),
(550,402,o),
(589,230,o),
(581,151,cs),
(578,121,o),
(568,101,o),
(545,101,cs),
(526,101,o),
(518,116,o),
(509,137,cs),
(487,188,o),
(465,305,o),
(453,397,cs),
(445,459,o),
(434,564,o),
(429,622,cs),
(418,750,o),
(353,802,o),
(263,802,cs),
(138,802,o),
(42,702,o),
(42,501,cs),
(42,262,o),
(179,82,o),
(256,14,cs),
(282,-9,o),
(306,-24,o),
(334,-8,cs),
(369,12,o),
(364,54,o),
(359,68,cs),
(355,80,o),
(329,133,o),
(320,152,cs),
(306,180,o),
(289,213,o),
(289,252,cs),
(289,274,o),
(307,292,o),
(328,292,cs),
(356,292,o),
(367,260,o),
(376,234,cs),
(417,115,o),
(474,-9,o),
(571,-9,cs),
(577,-9,o)
);
}
);
width = 907;
}
);
unicode = 330;
},
{
color = 10;
glyphname = O;
lastChange = "2023-11-16 23:28:50 +0000";
layers = (
{
layerId = "49F060A0-2273-4F54-8B81-08E0B15B03EC";
shapes = (
{
closed = 1;
nodes = (
(160,811,o),
(11,680,o),
(11,451,cs),
(11,171,o),
(198,-14,o),
(428,-14,cs),
(649,-14,o),
(831,170,o),
(831,448,cs),
(831,679,o),
(681,811,o),
(420,811,cs)
);
},
{
closed = 1;
nodes = (
(325,94,o),
(278,156,o),
(278,275,cs),
(278,390,o),
(325,455,o),
(424,455,cs),
(517,455,o),
(564,390,o),
(564,275,cs),
(564,156,o),
(517,94,o),
(424,94,cs)
);
}
);
width = 842;
}
);
unicode = 79;
},
{
glyphname = Oacute;
lastChange = "2023-11-16 23:28:50 +0000";
layers = (
{
layerId = "49F060A0-2273-4F54-8B81-08E0B15B03EC";
shapes = (
{
ref = O;
},
{
closed = 1;
nodes = (
(464,891,o),
(411,866,o),
(367,860,cs),
(337,856,o),
(308,858,o),
(295,883,cs),
(279,915,o),
(299,939,o),
(339,959,cs),
(404,992,o),
(409,1045,o),
(455,1071,cs),
(485,1088,o),
(520,1083,o),
(545,1050,cs),
(576,1009,o),
(557,961,o),
(504,921,cs)
);
}
);
width = 842;
}
);
unicode = 211;
},
{
glyphname = Ocircumflex;
lastChange = "2023-11-16 23:28:50 +0000";
layers = (
{
anchors = (
{
name = top;
pos = (412,1082);
}
);
layerId = "49F060A0-2273-4F54-8B81-08E0B15B03EC";
shapes = (
{
ref = O;
},
{
closed = 1;
nodes = (
(403,929,o),
(394,920,o),
(370,903,cs),
(317,864,l),
(283,840,o),
(258,822,o),
(239,840,cs),
(224,856,o),
(238,875,o),
(256,913,cs),
(269,938,o),
(286,970,o),
(306,1005,cs),
(333,1053,o),
(369,1083,o),
(413,1083,cs),
(457,1083,o),
(493,1053,o),
(520,1005,cs),
(540,970,o),
(557,938,o),
(570,913,cs),
(588,875,o),
(602,856,o),
(587,840,cs),
(568,822,o),
(543,840,o),
(509,864,cs),
(496,874,o),
(472,892,o),
(451,907,cs),
(433,920,o),
(423,929,o),
(413,929,cs)
);
}
);
width = 842;
}
);
unicode = 212;
},
{
glyphname = Odieresis;
lastChange = "2023-11-16 23:28:50 +0000";
layers = (
{
anchors = (
{
name = top;
pos = (425,1082);
}
);
layerId = "49F060A0-2273-4F54-8B81-08E0B15B03EC";
shapes = (
{
ref = O;
},
{
closed = 1;
nodes = (
(251,961,o),
(281,932,o),
(327,932,cs),
(373,932,o),
(403,961,o),
(403,1006,cs),
(403,1050,o),
(373,1078,o),
(327,1078,cs),
(281,1078,o),
(251,1050,o),
(251,1006,cs)
);
},
{
closed = 1;
nodes = (
(447,961,o),
(477,932,o),
(523,932,cs),
(569,932,o),
(599,961,o),
(599,1006,cs),
(599,1050,o),
(569,1078,o),
(523,1078,cs),
(477,1078,o),
(447,1050,o),
(447,1006,cs)
);
}
);
width = 842;
}
);
unicode = 214;
},
{
glyphname = Ograve;
lastChange = "2023-11-16 23:28:50 +0000";
layers = (
{
anchors = (
{
name = top;
pos = (430,1064);
}
);
layerId = "49F060A0-2273-4F54-8B81-08E0B15B03EC";
shapes = (
{
ref = O;
},
{
closed = 1;
nodes = (
(291,961,o),
(272,1009,o),
(303,1050,cs),
(328,1083,o),
(363,1088,o),
(393,1071,cs),
(439,1045,o),
(444,992,o),
(509,959,cs),
(549,939,o),
(569,915,o),
(553,883,cs),
(540,858,o),
(511,856,o),
(481,860,cs),
(437,866,o),
(384,891,o),
(344,921,cs)
);
}
);
width = 842;
}
);
unicode = 210;
},
{
glyphname = Ohungarumlaut;
lastChange = "2023-11-16 23:28:50 +0000";
layers = (
{
layerId = "49F060A0-2273-4F54-8B81-08E0B15B03EC";
shapes = (
{
ref = O;
},
{
closed = 1;
nodes = (
(120,851,o),
(133,852,o),
(150,864,cs),
(276,945,o),
(376,1018,o),
(411,1050,cs),
(454,1088,o),
(461,1121,o),
(437,1147,cs),
(414,1174,o),
(374,1178,o),
(331,1139,cs),
(296,1108,o),
(212,1016,o),
(119,899,cs),
(106,883,o),
(103,871,o),
(110,861,cs)
);
},
{
closed = 1;
nodes = (
(362,851,o),
(375,853,o),
(391,864,cs),
(518,945,o),
(618,1018,o),
(653,1050,cs),
(695,1088,o),
(703,1121,o),
(679,1148,cs),
(655,1174,o),
(615,1178,o),
(573,1140,cs),
(538,1108,o),
(454,1016,o),
(360,901,cs),
(347,884,o),
(345,871,o),
(353,862,cs)
);
}
);
width = 842;
}
);
unicode = 336;
},
{
glyphname = Omacron;
lastChange = "2023-11-16 23:28:50 +0000";
layers = (
{
anchors = (
{
name = top;
pos = (432,1082);
}
);
layerId = "49F060A0-2273-4F54-8B81-08E0B15B03EC";
shapes = (
{
closed = 1;
nodes = (
(642,-13,o),
(831,166,o),
(831,400,cs),
(831,632,o),
(646,813,o),
(428,813,cs),
(210,813,o),
(11,632,o),
(11,399,cs),
(11,166,o),
(209,-13,o),
(426,-13,cs)
);
},
{
closed = 1;
nodes = (
(331,52,o),
(269,132,o),
(269,242,cs),
(269,352,o),
(331,431,o),
(421,431,cs),
(511,431,o),
(573,352,o),
(573,242,cs),
(573,132,o),
(511,52,o),
(421,52,cs)
);
},
{
closed = 1;
nodes = (
(225,918,o),
(187,951,o),
(187,998,cs),
(187,1043,o),
(223,1079,o),
(351,1079,cs),
(458,1079,o),
(543,1065,o),
(565,1061,cs),
(651,1044,o),
(678,1029,o),
(678,1003,cs),
(678,977,o),
(648,957,o),
(571,941,cs),
(535,933,o),
(449,918,o),
(355,918,cs)
);
}
);
width = 842;
}
);
unicode = 332;
},
{
glyphname = Oslash;
lastChange = "2023-11-16 23:28:50 +0000";
layers = (
{
layerId = "49F060A0-2273-4F54-8B81-08E0B15B03EC";
shapes = (
{
closed = 1;
nodes = (
(88,-32,o),
(109,-28,o),
(149,0,c),
(163,11,o),
(176,21,o),
(191,34,cs),
(200,42,o),
(209,44,o),
(221,38,cs),
(277,7,o),
(342,-10,o),
(410,-10,cs),
(625,-10,o),
(802,170,o),
(802,440,cs),
(802,476,o),
(799,509,o),
(792,540,cs),
(789,553,o),
(797,560,o),
(806,570,cs),
(868,636,o),
(864,685,o),
(830,719,cs),
(801,750,o),
(763,757,o),
(711,723,c),
(695,713,o),
(688,710,o),
(670,723,cs),
(604,770,o),
(513,794,o),
(402,794,cs),
(149,794,o),
(4,666,o),
(4,443,cs),
(4,312,o),
(45,203,o),
(114,125,cs),
(122,115,o),
(124,111,o),
(115,100,cs),
(105,89,o),
(95,78,o),
(85,66,c),
(56,26,o),
(52,7,o),
(71,-13,cs)
);
},
{
closed = 0;
nodes = (
(191,33,l)
);
},
{
closed = 1;
nodes = (
(309,91,o),
(263,151,o),
(263,267,cs),
(263,379,o),
(309,442,o),
(406,442,cs),
(496,442,o),
(542,379,o),
(542,267,cs),
(542,151,o),
(496,91,o),
(406,91,cs)
);
}
);
width = 855;
}
);
unicode = 216;
},
{
glyphname = Otilde;
lastChange = "2023-11-16 23:28:50 +0000";
layers = (
{
anchors = (
{
name = top;
pos = (313,808);
}
);
hints = (
{
horizontal = 1;
place = (715, 72);
place = (715, 72);
type = Stem;
},
{
horizontal = 1;
place = (659, 116);
place = (659, 116);
type = Stem;
},
{
horizontal = 1;
place = (659, 72);
place = (659, 72);
type = Stem;
}
);
layerId = "49F060A0-2273-4F54-8B81-08E0B15B03EC";
shapes = (
{
ref = o;
},
{
closed = 1;
nodes = (
(345,632,o),
(397,620,o),
(449,652,cs),
(497,683,o),
(514,733,o),
(489,773,cs),
(474,796,o),
(447,802,o),
(425,788,cs),
(414,781,o),
(391,759,o),
(380,751,cs),
(362,741,o),
(349,740,o),
(337,749,cs),
(255,813,o),
(203,825,o),
(150,790,cs),
(102,762,o),
(85,711,o),
(110,671,cs),
(124,649,o),
(151,642,o),
(174,656,cs),
(184,663,o),
(208,685,o),
(219,691,cs),
(236,704,o),
(248,704,o),
(262,695,cs)
);
}
);
width = 604;
}
);
unicode = 213;
},
{
glyphname = OE;
lastChange = "2023-11-16 23:28:50 +0000";
layers = (
{
layerId = "49F060A0-2273-4F54-8B81-08E0B15B03EC";
shapes = (
{
closed = 1;
nodes = (
(325,94,o),
(278,156,o),
(278,275,cs),
(278,390,o),
(325,455,o),
(424,455,cs),
(517,455,o),
(564,390,o),
(564,275,cs),
(564,156,o),
(517,94,o),
(424,94,cs)
);
},
{
closed = 1;
nodes = (
(649,-14,o),
(831,170,o),
(831,448,cs),
(831,679,o),
(681,811,o),
(420,811,cs),
(160,811,o),
(11,680,o),
(11,451,cs),
(11,171,o),
(198,-14,o),
(428,-14,cs)
);
},
{
closed = 1;
nodes = (
(1082,-12,o),
(1144,-1,o),
(1182,16,cs),
(1245,46,o),
(1259,84,o),
(1245,116,cs),
(1234,141,o),
(1193,169,o),
(1147,138,cs),
(1106,109,o),
(1080,93,o),
(1034,93,cs),
(960,93,o),
(878,134,o),
(878,211,cs),
(878,223,o),
(887,232,o),
(900,232,cs),
(946,232,o),
(973,232,o),
(1035,232,cs),
(1078,232,o),
(1101,255,o),
(1101,285,cs),
(1101,315,o),
(1078,338,o),
(1035,338,cs),
(973,338,o),
(946,338,o),
(900,338,cs),
(887,338,o),
(878,347,o),
(878,359,cs),
(878,434,o),
(955,478,o),
(1020,478,cs),
(1080,478,o),
(1122,448,o),
(1178,448,cs),
(1274,448,o),
(1337,526,o),
(1336,599,cs),
(1336,746,o),
(1206,814,o),
(1055,814,cs),
(849,814,o),
(605,687,o),
(605,401,cs),
(605,159,o),
(804,-12,o),
(1023,-12,cs)
);
}
);
width = 1315;
}
);
unicode = 338;
},
{
color = 10;
glyphname = P;
lastChange = "2023-11-16 23:28:50 +0000";
layers = (
{
layerId = "49F060A0-2273-4F54-8B81-08E0B15B03EC";
shapes = (
{
closed = 1;
nodes = (
(431,281,ls),
(339,281,o),
(324,295,o),
(324,323,cs),
(324,350,o),
(326,458,o),
(442,458,cs),
(556,458,o),
(558,350,o),
(558,323,cs),
(558,295,o),
(542,281,o),
(499,281,cs)
);
},
{
closed = 1;
nodes = (
(24,300,o),
(109,73,o),
(245,-4,cs),
(268,-16,o),
(288,-18,o),
(298,-18,cs),
(316,-18,o),
(329,-4,o),
(329,18,cs),
(329,80,ls),
(329,174,o),
(382,177,o),
(425,177,cs),
(505,177,o),
(573,179,o),
(630,197,cs),
(772,243,o),
(840,349,o),
(840,467,cs),
(840,635,o),
(697,808,o),
(422,808,cs),
(180,808,o),
(24,675,o),
(24,469,cs)
);
}
);
width = 844;
}
);
unicode = 80;
},
{
glyphname = Thorn;
lastChange = "2023-11-16 23:28:50 +0000";
layers = (
{
layerId = "49F060A0-2273-4F54-8B81-08E0B15B03EC";
shapes = (
{
closed = 1;
nodes = (
(232,-19,o),
(253,14,o),
(277,81,cs),
(286,105,o),
(300,160,o),
(314,191,cs),
(318,200,o),
(324,206,o),
(333,206,cs),
(341,206,o),
(349,199,o),
(359,191,cs),
(377,177,o),
(405,167,o),
(428,167,cs),
(483,167,o),
(526,207,o),
(568,259,cs),
(617,319,o),
(640,404,o),
(640,475,cs),
(640,578,o),
(583,658,o),
(505,677,cs),
(459,688,o),
(408,666,o),
(387,635,cs),
(377,620,o),
(373,615,o),
(366,615,cs),
(358,615,o),
(352,619,o),
(350,629,cs),
(344,652,o),
(341,674,o),
(332,698,cs),
(305,770,o),
(246,807,o),
(183,807,c),
(92,807,o),
(14,729,o),
(14,587,cs),
(14,396,o),
(55,200,o),
(89,81,cs),
(108,18,o),
(134,-19,o),
(183,-19,cs)
);
},
{
closed = 1;
nodes = (
(355,302,o),
(327,303,o),
(321,332,cs),
(319,342,o),
(321,356,o),
(326,397,cs),
(329,423,o),
(349,438,o),
(379,438,cs),
(416,438,o),
(446,429,o),
(446,388,cs),
(446,357,o),
(418,302,o),
(376,302,cs)
);
}
);
width = 644;
}
);
unicode = 222;
},
{
color = 10;
glyphname = Q;
lastChange = "2023-11-16 23:28:50 +0000";
layers = (
{
layerId = "49F060A0-2273-4F54-8B81-08E0B15B03EC";
shapes = (
{
closed = 1;
nodes = (
(774,98,o),
(725,93,cs),
(714,92,o),
(708,95,o),
(708,101,cs),
(708,106,o),
(710,108,o),
(716,114,cs),
(789,187,o),
(831,290,o),
(831,406,cs),
(831,633,o),
(646,815,o),
(428,815,cs),
(210,815,o),
(11,633,o),
(11,403,cs),
(11,168,o),
(208,-11,o),
(425,-11,cs),
(490,-11,o),
(565,0,o),
(599,0,cs),
(651,0,o),
(731,-15,o),
(752,-15,cs),
(811,-15,o),
(830,8,o),
(830,40,cs),
(830,93,o)
);
},
{
closed = 1;
nodes = (
(335,98,o),
(277,173,o),
(277,278,cs),
(277,382,o),
(335,457,o),
(421,457,cs),
(507,457,o),
(565,382,o),
(565,278,cs),
(565,173,o),
(507,98,o),
(421,98,cs)
);
}
);
width = 837;
}
);
unicode = 81;
},
{
color = 10;
glyphname = R;
lastChange = "2023-11-16 23:28:50 +0000";
layers = (
{
layerId = "49F060A0-2273-4F54-8B81-08E0B15B03EC";
shapes = (
{
closed = 1;
nodes = (
(353,283,o),
(299,315,o),
(299,376,cs),
(299,446,o),
(368,472,o),
(426,472,cs),
(500,472,o),
(553,429,o),
(553,370,cs),
(553,306,o),
(490,283,o),
(427,283,cs)
);
},
{
closed = 1;
nodes = (
(23,300,o),
(130,78,o),
(264,2,cs),
(280,-7,o),
(294,-13,o),
(307,-13,cs),
(317,-13,o),
(326,-9,o),
(334,-1,cs),
(342,7,o),
(347,16,o),
(347,33,cs),
(347,40,o),
(346,46,o),
(343,57,cs),
(333,95,ls),
(330,106,o),
(329,115,o),
(329,124,cs),
(329,168,o),
(364,182,o),
(393,182,cs),
(450,182,o),
(485,129,o),
(491,120,cs),
(514,86,o),
(550,36,o),
(561,22,cs),
(578,0,o),
(598,-13,o),
(618,-13,cs),
(652,-13,o),
(699,34,o),
(641,202,cs),
(638,212,o),
(642,220,o),
(651,223,cs),
(756,250,o),
(835,347,o),
(835,464,cs),
(835,465,ls),
(835,632,o),
(692,805,o),
(419,805,cs),
(180,805,o),
(23,672,o),
(23,468,cs)
);
}
);
width = 848;
}
);
unicode = 82;
},
{
glyphname = Racute;
lastChange = "2023-11-16 23:28:50 +0000";
layers = (
{
layerId = "49F060A0-2273-4F54-8B81-08E0B15B03EC";
shapes = (
{
ref = R;
},
{
closed = 1;
nodes = (
(440,891,o),
(387,866,o),
(343,860,cs),
(313,856,o),
(284,858,o),
(271,883,cs),
(255,915,o),
(275,939,o),
(315,959,cs),
(380,992,o),
(385,1045,o),
(431,1071,cs),
(461,1088,o),
(496,1083,o),
(521,1050,cs),
(552,1009,o),
(533,961,o),
(480,921,cs)
);
}
);
width = 822;
}
);
unicode = 340;
},
{
glyphname = Rcaron;
lastChange = "2023-11-16 23:28:50 +0000";
layers = (
{
anchors = (
{
name = top;
pos = (398,1082);
}
);
layerId = "49F060A0-2273-4F54-8B81-08E0B15B03EC";
shapes = (
{
ref = R;
},
{
closed = 1;
nodes = (
(418,984,o),
(428,993,o),
(446,1006,cs),
(467,1021,o),
(491,1039,o),
(504,1049,cs),
(538,1073,o),
(563,1091,o),
(582,1073,cs),
(597,1057,o),
(583,1038,o),
(565,1000,cs),
(552,975,o),
(535,943,o),
(515,908,cs),
(488,860,o),
(452,830,o),
(408,830,cs),
(364,830,o),
(328,860,o),
(301,908,cs),
(281,943,o),
(264,975,o),
(251,1000,cs),
(233,1038,o),
(219,1057,o),
(234,1073,cs),
(253,1091,o),
(278,1073,o),
(312,1049,c),
(365,1010,ls),
(389,993,o),
(398,984,o),
(408,984,cs)
);
}
);
width = 822;
}
);
unicode = 344;
},
{
glyphname = Rcommaaccent;
lastChange = "2023-11-16 23:28:50 +0000";
layers = (
{
anchors = (
{
name = bottom;
pos = (383,-33);
}
);
layerId = "49F060A0-2273-4F54-8B81-08E0B15B03EC";
shapes = (
{
ref = R;
},
{
closed = 1;
nodes = (
(418,-225,o),
(365,-250,o),
(321,-256,cs),
(291,-260,o),
(262,-258,o),
(249,-233,cs),
(233,-201,o),
(253,-177,o),
(293,-157,cs),
(358,-124,o),
(363,-71,o),
(409,-45,cs),
(439,-28,o),
(474,-33,o),
(499,-66,cs),
(530,-107,o),
(511,-155,o),
(458,-195,cs)
);
}
);
width = 822;
}
);
unicode = 342;
},
{
color = 10;
glyphname = S;
lastChange = "2023-11-16 23:28:50 +0000";
layers = (
{
guides = (
{
pos = (713,706);
}
);
hints = (
{
horizontal = 1;
place = (700, -20);
target = down;
type = TopGhost;
}
);
layerId = "49F060A0-2273-4F54-8B81-08E0B15B03EC";
shapes = (
{
closed = 1;
nodes = (
(126,185,o),
(48,327,o),
(48,468,cs),
(48,708,o),
(276,800,o),
(465,800,cs),
(631,800,o),
(763,729,o),
(763,590,cs),
(763,503,o),
(711,433,o),
(619,433,cs),
(553,433,o),
(496,469,o),
(426,469,cs),
(365,469,o),
(351,442,o),
(351,410,cs),
(351,369,o),
(374,341,o),
(423,343,cs),
(593,350,o),
(694,302,o),
(694,184,cs),
(694,69,o),
(599,-14,o),
(378,-14,cs),
(284,-14,o),
(232,1,o),
(201,14,cs),
(151,35,o),
(141,58,o),
(141,82,cs),
(141,130,o),
(180,145,o),
(239,132,cs),
(266,126,o),
(334,105,o),
(397,105,cs),
(469,105,o),
(505,132,o),
(505,165,cs),
(505,185,o),
(491,199,o),
(418,199,c)
);
}
);
width = 787;
}
);
unicode = 83;
},
{
glyphname = Sacute;
lastChange = "2023-11-16 23:28:50 +0000";
layers = (
{
layerId = "49F060A0-2273-4F54-8B81-08E0B15B03EC";
shapes = (
{
ref = S;
},
{
closed = 1;
nodes = (
(459,889,o),
(406,864,o),
(362,858,cs),
(332,854,o),
(303,856,o),
(290,881,cs),
(274,913,o),
(294,937,o),
(334,957,cs),
(399,990,o),
(404,1043,o),
(450,1069,cs),
(480,1086,o),
(515,1081,o),
(540,1048,cs),
(571,1007,o),
(552,959,o),
(499,919,cs)
);
}
);
width = 787;
}
);
unicode = 346;
},
{
glyphname = Scaron;
lastChange = "2023-11-16 23:28:50 +0000";
layers = (
{
anchors = (
{
name = top;
pos = (292,884);
}
);
layerId = "49F060A0-2273-4F54-8B81-08E0B15B03EC";
shapes = (
{
ref = s;
},
{
closed = 1;
nodes = (
(302,788,o),
(312,797,o),
(330,810,cs),
(351,825,o),
(375,843,o),
(388,853,cs),
(422,877,o),
(447,895,o),
(466,877,cs),
(481,861,o),
(467,842,o),
(449,804,cs),
(436,779,o),
(419,747,o),
(399,712,cs),
(372,664,o),
(336,634,o),
(292,634,cs),
(248,634,o),
(212,664,o),
(185,712,cs),
(165,747,o),
(148,779,o),
(135,804,cs),
(117,842,o),
(103,861,o),
(118,877,cs),
(137,895,o),
(162,877,o),
(196,853,c),
(249,814,ls),
(273,797,o),
(282,788,o),
(292,788,cs)
);
}
);
width = 565;
}
);
unicode = 352;
},
{
glyphname = Scedilla;
lastChange = "2023-11-16 23:28:50 +0000";
layers = (
{
layerId = "49F060A0-2273-4F54-8B81-08E0B15B03EC";
shapes = (
{
closed = 1;
nodes = (
(394,-174,o),
(415,-172,o),
(431,-166,cs),
(453,-157,o),
(468,-141,o),
(468,-112,c),
(468,-104,o),
(467,-91,o),
(463,-79,cs),
(447,-29,o),
(393,-5,o),
(365,-23,cs),
(355,-30,o),
(342,-43,o),
(342,-63,cs),
(342,-78,o),
(350,-86,o),
(360,-91,cs),
(371,-97,o),
(384,-99,o),
(393,-105,cs),
(398,-109,o),
(402,-115,o),
(402,-123,cs),
(402,-133,o),
(391,-141,o),
(366,-141,cs),
(353,-141,o),
(345,-146,o),
(345,-157,cs),
(345,-171,o),
(357,-174,o),
(377,-174,cs)
);
},
{
ref = S;
}
);
width = 787;
}
);
unicode = 350;
},
{
glyphname = Scommaaccent;
lastChange = "2023-11-16 23:28:50 +0000";
layers = (
{
anchors = (
{
name = bottom;
pos = (381,-32);
}
);
layerId = "49F060A0-2273-4F54-8B81-08E0B15B03EC";
shapes = (
{
ref = S;
},
{
closed = 1;
nodes = (
(390,-232,o),
(337,-257,o),
(293,-263,cs),
(263,-267,o),
(234,-265,o),
(221,-240,cs),
(205,-208,o),
(225,-184,o),
(265,-164,cs),
(330,-131,o),
(335,-78,o),
(381,-52,cs),
(411,-35,o),
(446,-40,o),
(471,-73,cs),
(502,-114,o),
(483,-162,o),
(430,-202,cs)
);
}
);
width = 787;
}
);
unicode = 536;
},
{
glyphname = Germandbls;
lastChange = "2023-11-16 23:28:50 +0000";
layers = (
{
layerId = "49F060A0-2273-4F54-8B81-08E0B15B03EC";
shapes = (
{
closed = 1;
nodes = (
(433,93,o),
(471,93,o),
(399,93,c),
(356,93,o),
(333,69,o),
(333,38,cs),
(333,8,o),
(356,-15,o),
(399,-15,c),
(463,-15,o),
(433,-15,o),
(475,-15,c),
(548,-15,o),
(609,-15,o),
(649,10,cs),
(693,38,o),
(700,92,o),
(700,139,cs),
(700,204,o),
(676,253,o),
(627,257,c),
(617,258,o),
(617,267,o),
(627,267,c),
(721,267,o),
(722,454,o),
(722,533,cs),
(722,665,o),
(694,809,o),
(470,809,cs),
(339,809,o),
(351,808,o),
(191,808,cs),
(80,808,o),
(2,744,o),
(2,560,cs),
(2,429,o),
(42,193,o),
(77,83,cs),
(99,14,o),
(123,-18,o),
(169,-18,cs),
(220,-18,o),
(249,22,o),
(265,83,cs),
(290,180,o),
(282,328,o),
(293,393,cs),
(311,502,o),
(408,503,o),
(461,503,cs),
(511,503,o),
(549,491,o),
(549,435,cs),
(549,410,o),
(537,392,o),
(512,379,c),
(466,355,o),
(445,324,o),
(445,279,c),
(445,247,o),
(467,222,o),
(517,183,c),
(529,174,o),
(537,162,o),
(537,149,c),
(537,116,o),
(536,93,o),
(471,93,c)
);
}
);
width = 739;
}
);
unicode = 7838;
},
{
color = 10;
glyphname = T;
lastChange = "2023-11-16 23:28:50 +0000";
layers = (
{
layerId = "49F060A0-2273-4F54-8B81-08E0B15B03EC";
shapes = (
{
closed = 1;
nodes = (
(161,811,o),
(24,740,o),
(24,603,cs),
(24,510,o),
(87,440,o),
(192,440,cs),
(210,440,o),
(285,442,o),
(286,442,cs),
(323,441,o),
(339,426,o),
(343,375,cs),
(359,134,o),
(360,113,o),
(366,65,cs),
(373,8,o),
(392,-15,o),
(431,-15,cs),
(464,-15,o),
(483,8,o),
(490,65,cs),
(496,113,o),
(497,134,o),
(513,375,cs),
(517,426,o),
(533,441,o),
(570,442,cs),
(571,442,o),
(646,440,o),
(664,440,cs),
(769,440,o),
(832,510,o),
(832,603,cs),
(832,740,o),
(695,811,o),
(428,811,cs)
);
}
);
width = 856;
}
);
unicode = 84;
},
{
glyphname = Tcaron;
lastChange = "2023-11-16 23:28:50 +0000";
layers = (
{
anchors = (
{
name = top;
pos = (374,1079);
}
);
layerId = "49F060A0-2273-4F54-8B81-08E0B15B03EC";
shapes = (
{
ref = T;
},
{
closed = 1;
nodes = (
(389,986,o),
(399,995,o),
(417,1008,cs),
(438,1023,o),
(462,1041,o),
(475,1051,cs),
(509,1075,o),
(534,1093,o),
(553,1075,cs),
(568,1059,o),
(554,1040,o),
(536,1002,cs),
(523,977,o),
(506,945,o),
(486,910,cs),
(459,862,o),
(423,832,o),
(379,832,cs),
(335,832,o),
(299,862,o),
(272,910,cs),
(252,945,o),
(235,977,o),
(222,1002,cs),
(204,1040,o),
(190,1059,o),
(205,1075,cs),
(224,1093,o),
(249,1075,o),
(283,1051,c),
(336,1012,ls),
(360,995,o),
(369,986,o),
(379,986,cs)
);
}
);
width = 856;
}
);
unicode = 356;
},
{
glyphname = Tcommaaccent;
lastChange = "2023-11-16 23:28:50 +0000";
layers = (
{
anchors = (
{
name = bottom;
pos = (434,-39);
}
);
layerId = "49F060A0-2273-4F54-8B81-08E0B15B03EC";
shapes = (
{
ref = T;
},
{
closed = 1;
nodes = (
(404,-225,o),
(351,-250,o),
(307,-256,cs),
(277,-260,o),
(248,-258,o),
(235,-233,cs),
(219,-201,o),
(239,-177,o),
(279,-157,cs),
(344,-124,o),
(349,-71,o),
(395,-45,cs),
(425,-28,o),
(460,-33,o),
(485,-66,cs),
(516,-107,o),
(497,-155,o),
(444,-195,cs)
);
}
);
width = 856;
}
);
unicode = 538;
},
{
color = 10;
glyphname = U;
lastChange = "2023-11-16 23:28:50 +0000";
layers = (
{
layerId = "49F060A0-2273-4F54-8B81-08E0B15B03EC";
shapes = (
{
closed = 1;
nodes = (
(684,-12,o),
(854,202,o),
(854,457,cs),
(854,686,o),
(776,800,o),
(633,800,cs),
(578,800,o),
(487,764,o),
(487,659,cs),
(487,615,o),
(512,523,o),
(541,433,cs),
(558,380,o),
(583,298,o),
(583,231,cs),
(583,136,o),
(534,96,o),
(435,96,cs),
(336,96,o),
(287,136,o),
(287,231,cs),
(287,298,o),
(312,380,o),
(329,433,cs),
(358,523,o),
(383,615,o),
(383,659,cs),
(383,764,o),
(292,800,o),
(237,800,cs),
(94,800,o),
(16,686,o),
(16,457,cs),
(16,202,o),
(186,-12,o),
(435,-12,cs)
);
}
);
width = 870;
}
);
unicode = 85;
},
{
glyphname = Uacute;
lastChange = "2023-11-16 23:28:50 +0000";
layers = (
{
anchors = (
{
name = top;
pos = (502,957);
}
);
layerId = "49F060A0-2273-4F54-8B81-08E0B15B03EC";
shapes = (
{
ref = U;
},
{
closed = 1;
nodes = (
(497,891,o),
(444,866,o),
(400,860,cs),
(370,856,o),
(341,858,o),
(328,883,cs),
(312,915,o),
(332,939,o),
(372,959,cs),
(437,992,o),
(442,1045,o),
(488,1071,cs),
(518,1088,o),
(553,1083,o),
(578,1050,cs),
(609,1009,o),
(590,961,o),
(537,921,cs)
);
}
);
width = 859;
}
);
unicode = 218;
},
{
glyphname = Ubreve;
lastChange = "2023-11-16 23:28:50 +0000";
layers = (
{
anchors = (
{
name = _top;
pos = (429,1040);
}
);
layerId = "49F060A0-2273-4F54-8B81-08E0B15B03EC";
shapes = (
{
ref = U;
},
{
closed = 1;
nodes = (
(321,851,o),
(255,859,o),
(227,937,cs),
(209,987,o),
(218,1035,o),
(265,1050,cs),
(290,1058,o),
(317,1054,o),
(328,1021,cs),
(333,1007,o),
(335,985,o),
(340,967,cs),
(358,902,o),
(377,887,o),
(426,887,cs),
(467,887,o),
(492,900,o),
(510,967,cs),
(517,992,o),
(518,1008,o),
(522,1021,cs),
(532,1054,o),
(560,1057,o),
(584,1050,cs),
(632,1036,o),
(641,987,o),
(623,936,cs),
(596,859,o),
(531,851,o),
(426,851,c)
);
}
);
width = 854;
}
);
unicode = 364;
},
{
glyphname = Ucircumflex;
lastChange = "2023-11-16 23:28:50 +0000";
layers = (
{
anchors = (
{
name = top;
pos = (424,1076);
}
);
layerId = "49F060A0-2273-4F54-8B81-08E0B15B03EC";
shapes = (
{
ref = U;
},
{
closed = 1;
nodes = (
(414,927,o),
(405,918,o),
(381,901,cs),
(328,862,l),
(294,838,o),
(269,820,o),
(250,838,cs),
(235,854,o),
(249,873,o),
(267,911,cs),
(280,936,o),
(297,968,o),
(317,1003,cs),
(344,1051,o),
(380,1081,o),
(424,1081,cs),
(468,1081,o),
(504,1051,o),
(531,1003,cs),
(551,968,o),
(568,936,o),
(581,911,cs),
(599,873,o),
(613,854,o),
(598,838,cs),
(579,820,o),
(554,838,o),
(520,862,cs),
(507,872,o),
(483,890,o),
(462,905,cs),
(444,918,o),
(434,927,o),
(424,927,cs)
);
}
);
width = 859;
}
);
unicode = 219;
},
{
glyphname = Udieresis;
lastChange = "2023-11-16 23:28:50 +0000";
layers = (
{
anchors = (
{
name = top;
pos = (425,1078);
}
);
layerId = "49F060A0-2273-4F54-8B81-08E0B15B03EC";
shapes = (
{
ref = U;
},
{
closed = 1;
nodes = (
(251,961,o),
(281,932,o),
(327,932,cs),
(373,932,o),
(403,961,o),
(403,1006,cs),
(403,1050,o),
(373,1078,o),
(327,1078,cs),
(281,1078,o),
(251,1050,o),
(251,1006,cs)
);
},
{
closed = 1;
nodes = (
(447,961,o),
(477,932,o),
(523,932,cs),
(569,932,o),
(599,961,o),
(599,1006,cs),
(599,1050,o),
(569,1078,o),
(523,1078,cs),
(477,1078,o),
(447,1050,o),
(447,1006,cs)
);
}
);
width = 859;
}
);
unicode = 220;
},
{
glyphname = Ugrave;
lastChange = "2023-11-16 23:28:50 +0000";
layers = (
{
anchors = (
{
name = "new anchor";
pos = (380,1077);
}
);
layerId = "49F060A0-2273-4F54-8B81-08E0B15B03EC";
shapes = (
{
ref = U;
},
{
closed = 1;
nodes = (
(291,961,o),
(272,1009,o),
(303,1050,cs),
(328,1083,o),
(363,1088,o),
(393,1071,cs),
(439,1045,o),
(444,992,o),
(509,959,cs),
(549,939,o),
(569,915,o),
(553,883,cs),
(540,858,o),
(511,856,o),
(481,860,cs),
(437,866,o),
(384,891,o),
(344,921,cs)
);
}
);
width = 854;
}
);
unicode = 217;
},
{
glyphname = Uhungarumlaut;
lastChange = "2023-11-16 23:28:50 +0000";
layers = (
{
anchors = (
{
name = top;
pos = (432,1076);
}
);
layerId = "49F060A0-2273-4F54-8B81-08E0B15B03EC";
shapes = (
{
ref = U;
},
{
closed = 1;
nodes = (
(459,1040,o),
(462,1001,o),
(420,955,cs),
(384,915,o),
(346,889,o),
(325,875,cs),
(276,843,o),
(254,838,o),
(237,852,cs),
(221,867,o),
(224,890,o),
(251,942,cs),
(263,964,o),
(285,1005,o),
(321,1045,cs),
(362,1091,o),
(401,1092,o),
(430,1066,cs)
);
},
{
closed = 1;
nodes = (
(665,1040,o),
(667,1001,o),
(626,955,cs),
(590,915,o),
(551,889,o),
(531,875,cs),
(482,843,o),
(459,837,o),
(443,852,cs),
(426,867,o),
(430,889,o),
(457,942,cs),
(468,964,o),
(490,1004,o),
(526,1045,cs),
(568,1091,o),
(607,1092,o),
(636,1066,cs)
);
}
);
width = 859;
}
);
unicode = 368;
},
{
glyphname = Umacron;
lastChange = "2023-11-16 23:28:50 +0000";
layers = (
{
anchors = (
{
name = top;
pos = (387,1082);
}
);
layerId = "49F060A0-2273-4F54-8B81-08E0B15B03EC";
shapes = (
{
ref = U;
},
{
closed = 1;
nodes = (
(225,918,o),
(187,951,o),
(187,998,cs),
(187,1043,o),
(223,1079,o),
(351,1079,cs),
(458,1079,o),
(543,1065,o),
(565,1061,cs),
(651,1044,o),
(678,1029,o),
(678,1003,cs),
(678,977,o),
(648,957,o),
(571,941,cs),
(535,933,o),
(449,918,o),
(355,918,cs)
);
}
);
width = 859;
}
);
unicode = 362;
},
{
glyphname = Uogonek;
lastChange = "2023-11-16 23:28:50 +0000";
layers = (
{
anchors = (
{
name = bottom;
pos = (455,-15);
}
);
layerId = "49F060A0-2273-4F54-8B81-08E0B15B03EC";
shapes = (
{
ref = U;
},
{
closed = 1;
nodes = (
(494,-185,o),
(505,-177,o),
(505,-165,cs),
(505,-153,o),
(494,-146,o),
(477,-146,cs),
(449,-146,o),
(433,-136,o),
(433,-116,cs),
(433,-103,o),
(446,-92,o),
(457,-83,cs),
(478,-65,o),
(488,-43,o),
(463,-19,cs),
(444,-1,o),
(409,-8,o),
(383,-37,cs),
(346,-79,o),
(352,-132,o),
(389,-165,cs),
(412,-186,o),
(440,-193,o),
(478,-187,c)
);
}
);
width = 859;
}
);
unicode = 370;
},
{
glyphname = Uring;
lastChange = "2023-11-16 23:28:50 +0000";
layers = (
{
anchors = (
{
name = top;
pos = (435,1081);
}
);
layerId = "49F060A0-2273-4F54-8B81-08E0B15B03EC";
shapes = (
{
ref = U;
},
{
closed = 1;
nodes = (
(496,848,o),
(549,899,o),
(549,966,cs),
(549,1030,o),
(496,1081,o),
(435,1081,cs),
(374,1081,o),
(318,1030,o),
(318,965,cs),
(318,899,o),
(374,848,o),
(433,848,cs)
);
},
{
closed = 1;
nodes = (
(408,882,o),
(391,905,o),
(391,935,cs),
(391,966,o),
(408,989,o),
(433,989,cs),
(459,989,o),
(476,966,o),
(476,935,cs),
(476,905,o),
(459,882,o),
(433,882,cs)
);
}
);
width = 859;
}
);
unicode = 366;
},
{
color = 10;
glyphname = V;
lastChange = "2023-11-16 23:28:50 +0000";
layers = (
{
layerId = "49F060A0-2273-4F54-8B81-08E0B15B03EC";
shapes = (
{
closed = 1;
nodes = (
(259,-15,o),
(95,223,o),
(34,446,cs),
(-30,684,o),
(57,811,o),
(198,811,cs),
(271,811,o),
(362,779,o),
(362,671,cs),
(362,613,o),
(337,513,o),
(337,434,cs),
(337,344,o),
(347,209,o),
(366,156,cs),
(377,124,o),
(396,100,o),
(426,100,cs),
(458,100,o),
(477,124,o),
(488,156,cs),
(507,209,o),
(517,344,o),
(517,434,cs),
(517,513,o),
(492,613,o),
(492,671,cs),
(492,779,o),
(583,811,o),
(656,811,cs),
(797,811,o),
(884,684,o),
(820,446,cs),
(759,223,o),
(595,-15,o),
(427,-15,cs)
);
}
);
width = 854;
},
{
associatedMasterId = "49F060A0-2273-4F54-8B81-08E0B15B03EC";
layerId = "7F796A00-EECF-4D6F-B602-CD86FD9445B2";
name = "3 Nov 23 at 01:24";
shapes = (
{
closed = 1;
nodes = (
(271,-17,o),
(110,216,o),
(51,435,cs),
(-12,668,o),
(73,793,o),
(211,793,cs),
(283,793,o),
(372,762,o),
(372,656,cs),
(372,599,o),
(348,501,o),
(348,423,cs),
(348,335,o),
(358,203,o),
(376,151,cs),
(387,119,o),
(406,96,o),
(435,96,cs),
(466,96,o),
(485,119,o),
(496,151,cs),
(514,203,o),
(524,335,o),
(524,423,cs),
(524,501,o),
(500,599,o),
(500,656,cs),
(500,762,o),
(589,793,o),
(661,793,cs),
(799,793,o),
(884,668,o),
(821,435,cs),
(762,216,o),
(601,-17,o),
(436,-17,cs)
);
}
);
width = 872;
}
);
unicode = 86;
},
{
color = 10;
glyphname = W;
lastChange = "2023-11-16 23:28:50 +0000";
layers = (
{
layerId = "49F060A0-2273-4F54-8B81-08E0B15B03EC";
shapes = (
{
closed = 1;
nodes = (
(376,311,o),
(372,363,o),
(375,416,cs),
(381,537,o),
(413,600,o),
(479,600,cs),
(545,600,o),
(577,537,o),
(583,416,cs),
(586,365,o),
(583,312,o),
(587,284,cs),
(589,269,o),
(595,245,o),
(620,245,cs),
(646,245,o),
(655,275,o),
(657,282,cs),
(666,314,o),
(663,366,o),
(651,423,cs),
(629,528,o),
(588,594,o),
(588,674,cs),
(588,764,o),
(641,811,o),
(731,811,cs),
(861,811,o),
(945,712,o),
(945,516,cs),
(945,245,o),
(785,-13,o),
(618,-13,cs),
(562,-13,o),
(528,10,o),
(528,67,cs),
(528,95,o),
(521,266,o),
(521,273,cs),
(521,318,o),
(511,350,o),
(480,350,cs),
(449,350,o),
(439,315,o),
(439,273,cs),
(439,255,o),
(432,95,o),
(432,67,cs),
(432,11,o),
(398,-15,o),
(344,-15,cs),
(173,-15,o),
(13,244,o),
(13,516,cs),
(13,713,o),
(97,811,o),
(227,811,cs),
(317,811,o),
(370,764,o),
(370,674,cs),
(370,594,o),
(329,528,o),
(307,423,cs),
(290,343,o),
(296,300,o),
(301,282,cs),
(303,275,o),
(312,245,o),
(338,245,cs),
(364,245,o),
(370,272,o),
(371,283,c)
);
}
);
width = 958;
}
);
unicode = 87;
},
{
glyphname = Wacute;
lastChange = "2023-11-16 23:28:50 +0000";
layers = (
{
layerId = "49F060A0-2273-4F54-8B81-08E0B15B03EC";
shapes = (
{
ref = W;
},
{
closed = 1;
nodes = (
(537,890,o),
(484,865,o),
(440,859,cs),
(410,855,o),
(381,857,o),
(368,882,cs),
(352,914,o),
(372,938,o),
(412,958,cs),
(477,991,o),
(482,1044,o),
(528,1070,cs),
(558,1087,o),
(593,1082,o),
(618,1049,cs),
(649,1008,o),
(630,960,o),
(577,920,cs)
);
}
);
width = 958;
}
);
unicode = 7810;
},
{
glyphname = Wcircumflex;
lastChange = "2023-11-16 23:28:50 +0000";
layers = (
{
anchors = (
{
name = top;
pos = (464,1082);
}
);
layerId = "49F060A0-2273-4F54-8B81-08E0B15B03EC";
shapes = (
{
ref = W;
},
{
closed = 1;
nodes = (
(454,929,o),
(445,920,o),
(421,903,cs),
(368,864,l),
(334,840,o),
(309,822,o),
(290,840,cs),
(275,856,o),
(289,875,o),
(307,913,cs),
(320,938,o),
(337,970,o),
(357,1005,cs),
(384,1053,o),
(420,1083,o),
(464,1083,cs),
(508,1083,o),
(544,1053,o),
(571,1005,cs),
(591,970,o),
(608,938,o),
(621,913,cs),
(639,875,o),
(653,856,o),
(638,840,cs),
(619,822,o),
(594,840,o),
(560,864,cs),
(547,874,o),
(523,892,o),
(502,907,cs),
(484,920,o),
(474,929,o),
(464,929,cs)
);
}
);
width = 958;
}
);
unicode = 372;
},
{
glyphname = Wdieresis;
lastChange = "2023-11-16 23:28:50 +0000";
layers = (
{
anchors = (
{
name = top;
pos = (469,1077);
}
);
layerId = "49F060A0-2273-4F54-8B81-08E0B15B03EC";
shapes = (
{
ref = W;
},
{
closed = 1;
nodes = (
(295,961,o),
(325,932,o),
(371,932,cs),
(417,932,o),
(447,961,o),
(447,1006,cs),
(447,1050,o),
(417,1078,o),
(371,1078,cs),
(325,1078,o),
(295,1050,o),
(295,1006,cs)
);
},
{
closed = 1;
nodes = (
(491,961,o),
(521,932,o),
(567,932,cs),
(613,932,o),
(643,961,o),
(643,1006,cs),
(643,1050,o),
(613,1078,o),
(567,1078,cs),
(521,1078,o),
(491,1050,o),
(491,1006,cs)
);
}
);
width = 958;
}
);
unicode = 7812;
},
{
glyphname = Wgrave;
lastChange = "2023-11-16 23:28:50 +0000";
layers = (
{
layerId = "49F060A0-2273-4F54-8B81-08E0B15B03EC";
shapes = (
{
ref = W;
},
{
closed = 1;
nodes = (
(350,960,o),
(331,1008,o),
(362,1049,cs),
(387,1082,o),
(422,1087,o),
(452,1070,cs),
(498,1044,o),
(503,991,o),
(568,958,cs),
(608,938,o),
(628,914,o),
(612,882,cs),
(599,857,o),
(570,855,o),
(540,859,cs),
(496,865,o),
(443,890,o),
(403,920,cs)
);
}
);
width = 944;
}
);
unicode = 7808;
},
{
color = 10;
glyphname = X;
lastChange = "2023-11-16 23:28:50 +0000";
layers = (
{
layerId = "49F060A0-2273-4F54-8B81-08E0B15B03EC";
shapes = (
{
closed = 0;
nodes = (
(-484,810,l)
);
},
{
closed = 0;
nodes = (
(499,174,l)
);
},
{
closed = 1;
nodes = (
(490,183,o),
(495,180,o),
(499,174,cs),
(524,136,o),
(536,124,o),
(564,98,cs),
(636,34,o),
(727,0,o),
(810,-10,cs),
(857,-16,o),
(883,-10,o),
(895,10,cs),
(907,28,o),
(907,55,o),
(877,80,cs),
(842,109,o),
(774,128,o),
(711,196,cs),
(684,225,o),
(658,264,o),
(658,308,cs),
(658,357,o),
(689,407,o),
(774,426,cs),
(868,448,o),
(934,511,o),
(934,611,cs),
(934,733,o),
(837,810,o),
(739,810,cs),
(658,810,o),
(589,758,o),
(554,709,cs),
(545,697,o),
(529,673,o),
(521,650,cs),
(514,630,o),
(513,621,o),
(512,610,cs),
(511,595,o),
(499,586,o),
(485,586,cs),
(471,586,o),
(459,595,o),
(458,610,cs),
(457,621,o),
(456,630,o),
(449,650,cs),
(441,673,o),
(425,697,o),
(416,709,cs),
(381,758,o),
(312,810,o),
(231,810,cs),
(133,810,o),
(36,733,o),
(36,611,cs),
(36,511,o),
(102,448,o),
(196,426,cs),
(281,407,o),
(312,357,o),
(312,308,cs),
(312,264,o),
(286,225,o),
(259,196,cs),
(196,128,o),
(128,109,o),
(93,80,cs),
(63,55,o),
(63,28,o),
(75,10,cs),
(87,-10,o),
(113,-16,o),
(160,-10,cs),
(243,0,o),
(334,34,o),
(406,98,cs),
(434,124,o),
(446,136,o),
(471,174,cs),
(475,180,o),
(480,183,o),
(485,183,cs)
);
}
);
width = 970;
}
);
unicode = 88;
},
{
color = 10;
glyphname = Y;
lastChange = "2023-11-16 23:28:50 +0000";
layers = (
{
guides = (
{
pos = (704,-79);
}
);
layerId = "49F060A0-2273-4F54-8B81-08E0B15B03EC";
shapes = (
{
closed = 1;
nodes = (
(358,180,o),
(376,163,o),
(376,137,cs),
(376,111,o),
(357,90,o),
(307,90,cs),
(281,90,o),
(215,96,o),
(194,96,cs),
(157,96,o),
(135,77,o),
(135,47,cs),
(135,19,o),
(155,5,o),
(185,-2,cs),
(207,-7,o),
(266,-16,o),
(311,-16,cs),
(539,-16,o),
(634,217,o),
(673,377,cs),
(744,670,o),
(646,810,o),
(524,810,cs),
(472,810,o),
(406,785,o),
(406,704,cs),
(406,661,o),
(425,552,o),
(425,476,cs),
(425,423,o),
(416,357,o),
(403,322,cs),
(393,295,o),
(378,280,o),
(353,280,cs),
(328,280,o),
(313,296,o),
(303,322,cs),
(291,353,o),
(280,413,o),
(280,470,cs),
(280,545,o),
(299,660,o),
(299,704,cs),
(299,787,o),
(231,810,o),
(180,810,cs),
(74,810,o),
(14,712,o),
(14,559,cs),
(14,333,o),
(149,180,o),
(325,181,c)
);
}
);
width = 728;
}
);
unicode = 89;
},
{
glyphname = Yacute;
lastChange = "2023-11-16 23:28:50 +0000";
layers = (
{
anchors = (
{
name = top;
pos = (473,1058);
}
);
layerId = "49F060A0-2273-4F54-8B81-08E0B15B03EC";
shapes = (
{
ref = Y;
},
{
closed = 1;
nodes = (
(390,891,o),
(337,866,o),
(293,860,cs),
(263,856,o),
(234,858,o),
(221,883,cs),
(205,915,o),
(225,939,o),
(265,959,cs),
(330,992,o),
(335,1045,o),
(381,1071,cs),
(411,1088,o),
(446,1083,o),
(471,1050,cs),
(502,1009,o),
(483,961,o),
(430,921,cs)
);
}
);
width = 700;
}
);
unicode = 221;
},
{
glyphname = Ycircumflex;
lastChange = "2023-11-16 23:28:50 +0000";
layers = (
{
anchors = (
{
name = top;
pos = (335,1078);
}
);
layerId = "49F060A0-2273-4F54-8B81-08E0B15B03EC";
shapes = (
{
ref = Y;
},
{
closed = 1;
nodes = (
(321,928,o),
(311,920,o),
(288,902,cs),
(288,902,o),
(260,881,o),
(235,863,cs),
(201,839,o),
(176,821,o),
(157,839,cs),
(142,855,o),
(156,874,o),
(174,912,cs),
(187,937,o),
(204,969,o),
(224,1004,cs),
(251,1052,o),
(287,1082,o),
(331,1082,cs),
(375,1082,o),
(411,1052,o),
(438,1004,cs),
(458,969,o),
(475,937,o),
(488,912,cs),
(506,874,o),
(520,855,o),
(505,839,cs),
(486,821,o),
(461,839,o),
(427,863,cs),
(402,881,o),
(374,902,o),
(374,902,cs),
(351,920,o),
(340,928,o),
(331,928,cs)
);
}
);
width = 700;
}
);
unicode = 374;
},
{
glyphname = Ydieresis;
lastChange = "2023-11-16 23:28:50 +0000";
layers = (
{
anchors = (
{
name = top;
pos = (345,1080);
}
);
layerId = "49F060A0-2273-4F54-8B81-08E0B15B03EC";
shapes = (
{
ref = Y;
},
{
closed = 1;
nodes = (
(171,965,o),
(201,936,o),
(247,936,cs),
(293,936,o),
(323,965,o),
(323,1010,cs),
(323,1054,o),
(293,1082,o),
(247,1082,cs),
(201,1082,o),
(171,1054,o),
(171,1010,cs)
);
},
{
closed = 1;
nodes = (
(367,965,o),
(397,936,o),
(443,936,cs),
(489,936,o),
(519,965,o),
(519,1010,cs),
(519,1054,o),
(489,1082,o),
(443,1082,cs),
(397,1082,o),
(367,1054,o),
(367,1010,cs)
);
}
);
width = 700;
}
);
unicode = 376;
},
{
glyphname = Ygrave;
lastChange = "2023-11-16 23:28:50 +0000";
layers = (
{
layerId = "49F060A0-2273-4F54-8B81-08E0B15B03EC";
shapes = (
{
ref = Y;
},
{
closed = 1;
nodes = (
(213,961,o),
(194,1009,o),
(225,1050,cs),
(250,1083,o),
(285,1088,o),
(315,1071,cs),
(361,1045,o),
(366,992,o),
(431,959,cs),
(471,939,o),
(491,915,o),
(475,883,cs),
(462,858,o),
(433,856,o),
(403,860,cs),
(359,866,o),
(306,891,o),
(266,921,cs)
);
}
);
width = 700;
}
);
unicode = 7922;
},
{
color = 10;
glyphname = Z;
lastChange = "2023-11-16 23:28:50 +0000";
layers = (
{
layerId = "49F060A0-2273-4F54-8B81-08E0B15B03EC";
shapes = (
{
closed = 1;
nodes = (
(410,93,o),
(338,89,o),
(338,109,cs),
(338,119,o),
(346,124,o),
(362,132,cs),
(490,192,o),
(570,244,o),
(641,348,cs),
(683,410,o),
(695,487,o),
(695,537,cs),
(695,688,o),
(586,810,o),
(349,810,cs),
(149,810,o),
(9,725,o),
(9,584,cs),
(9,498,o),
(63,428,o),
(152,428,cs),
(216,428,o),
(287,465,o),
(351,465,cs),
(409,465,o),
(443,436,o),
(443,390,cs),
(443,364,o),
(432,348,o),
(415,330,cs),
(389,303,o),
(367,291,o),
(331,271,cs),
(157,174,o),
(134,139,o),
(134,94,cs),
(134,-2,o),
(241,-16,o),
(373,-16,cs),
(472,-16,o),
(515,-8,o),
(531,-4,cs),
(561,4,o),
(582,18,o),
(582,46,cs),
(582,76,o),
(558,97,o),
(515,97,cs),
(499,97,o),
(443,94,o),
(426,93,cs)
);
}
);
width = 697;
}
);
unicode = 90;
},
{
glyphname = Zacute;
lastChange = "2023-11-16 23:28:50 +0000";
layers = (
{
layerId = "49F060A0-2273-4F54-8B81-08E0B15B03EC";
shapes = (
{
ref = Z;
},
{
closed = 1;
nodes = (
(386,891,o),
(333,866,o),
(289,860,cs),
(259,856,o),
(230,858,o),
(217,883,cs),
(201,915,o),
(221,939,o),
(261,959,cs),
(326,992,o),
(331,1045,o),
(377,1071,cs),
(407,1088,o),
(442,1083,o),
(467,1050,cs),
(498,1009,o),
(479,961,o),
(426,921,cs)
);
}
);
width = 683;
}
);
unicode = 377;
},
{
glyphname = Zcaron;
lastChange = "2023-11-16 23:28:50 +0000";
layers = (
{
anchors = (
{
name = top;
pos = (337,1082);
}
);
layerId = "49F060A0-2273-4F54-8B81-08E0B15B03EC";
shapes = (
{
ref = Z;
},
{
closed = 1;
nodes = (
(354,985,o),
(364,994,o),
(382,1007,cs),
(403,1022,o),
(427,1040,o),
(440,1050,cs),
(474,1074,o),
(499,1092,o),
(518,1074,cs),
(533,1058,o),
(519,1039,o),
(501,1001,cs),
(488,976,o),
(471,944,o),
(451,909,cs),
(424,861,o),
(388,831,o),
(344,831,cs),
(300,831,o),
(264,861,o),
(237,909,cs),
(217,944,o),
(200,976,o),
(187,1001,cs),
(169,1039,o),
(155,1058,o),
(170,1074,cs),
(189,1092,o),
(214,1074,o),
(248,1050,c),
(301,1011,ls),
(325,994,o),
(334,985,o),
(344,985,cs)
);
}
);
width = 683;
}
);
unicode = 381;
},
{
glyphname = Zdotaccent;
lastChange = "2023-11-16 23:28:50 +0000";
layers = (
{
anchors = (
{
name = top;
pos = (314,1076);
}
);
layerId = "49F060A0-2273-4F54-8B81-08E0B15B03EC";
shapes = (
{
ref = Z;
},
{
closed = 1;
nodes = (
(244,965,o),
(274,936,o),
(320,936,cs),
(366,936,o),
(396,965,o),
(396,1010,cs),
(396,1054,o),
(366,1082,o),
(320,1082,cs),
(274,1082,o),
(244,1054,o),
(244,1010,cs)
);
}
);
width = 683;
}
);
unicode = 379;
},
{
color = 10;
glyphname = a;
lastChange = "2023-11-16 23:28:50 +0000";
layers = (
{
anchors = (
{
name = bottom;
pos = (356,0);
},
{
name = ogonek;
pos = (650,10);
},
{
name = top;
pos = (356,600);
}
);
layerId = "49F060A0-2273-4F54-8B81-08E0B15B03EC";
shapes = (
{
closed = 1;
nodes = (
(344,136,o),
(315,184,o),
(313,216,cs),
(311,253,o),
(332,272,o),
(375,272,cs),
(414,274,o),
(430,255,o),
(437,209,cs),
(444,160,o),
(421,136,o),
(383,136,cs)
);
},
{
closed = 1;
nodes = (
(426,541,o),
(422,533,o),
(411,533,cs),
(401,533,o),
(395,541,o),
(389,548,cs),
(355,590,o),
(302,614,o),
(232,614,cs),
(106,614,o),
(24,518,o),
(24,361,cs),
(24,271,o),
(62,165,o),
(123,89,cs),
(170,31,o),
(230,-9,o),
(298,-12,cs),
(351,-14,o),
(398,9,o),
(429,50,cs),
(435,58,o),
(442,65,o),
(452,65,cs),
(463,65,o),
(471,59,o),
(474,50,cs),
(487,10,o),
(507,-14,o),
(542,-14,cs),
(579,-14,o),
(599,14,o),
(613,62,cs),
(640,153,o),
(671,301,o),
(671,447,cs),
(671,554,o),
(611,614,o),
(542,614,c),
(501,614,o),
(461,594,o),
(433,552,cs)
);
}
);
width = 704;
},
{
associatedMasterId = "49F060A0-2273-4F54-8B81-08E0B15B03EC";
backgroundImage = {
imagePath = "Source-Glyphs/Scan 14.png";
locked = 1;
pos = (-329,-812);
scale = (2.3783,2.3783);
};
layerId = "8128A1CE-A9D8-44E1-BBD5-1E38E1A92DE7";
name = "1 Nov 23 at 23:38";
shapes = (
{
closed = 1;
nodes = (
(542,-16,o),
(578,117,o),
(578,263,cs),
(578,491,o),
(491,612,o),
(317,612,cs),
(189,612,o),
(30,546,o),
(30,413,cs),
(30,334,o),
(86,286,o),
(157,286,cs),
(201,286,o),
(246,304,o),
(314,304,cs),
(359,304,o),
(378,296,o),
(378,278,cs),
(378,251,o),
(336,251,o),
(301,251,cs),
(170,251,o),
(91,218,o),
(91,128,cs),
(91,44,o),
(159,-13,o),
(267,-13,cs),
(351,-13,o),
(388,21,o),
(415,81,c),
(435,12,o),
(457,-16,o),
(484,-16,cs)
);
},
{
closed = 1;
nodes = (
(310,85,o),
(302,125,o),
(302,150,cs),
(302,188,o),
(321,193,o),
(393,193,c),
(396,174,o),
(400,143,o),
(404,122,c),
(395,91,o),
(361,85,o),
(347,85,cs)
);
}
);
width = 618;
}
);
unicode = 97;
},
{
glyphname = aacute;
lastChange = "2023-11-16 23:28:50 +0000";
layers = (
{
anchors = (
{
name = top;
pos = (425,889);
}
);
layerId = "49F060A0-2273-4F54-8B81-08E0B15B03EC";
shapes = (
{
ref = a;
},
{
closed = 1;
nodes = (
(404,692,o),
(351,667,o),
(307,661,cs),
(277,657,o),
(248,659,o),
(235,684,cs),
(219,716,o),
(239,740,o),
(279,760,cs),
(344,793,o),
(349,846,o),
(395,872,cs),
(425,889,o),
(460,884,o),
(485,851,cs),
(516,810,o),
(497,762,o),
(444,722,cs)
);
}
);
width = 697;
}
);
unicode = 225;
},
{
glyphname = abreve;
lastChange = "2023-11-16 23:28:50 +0000";
layers = (
{
anchors = (
{
name = top;
pos = (340,884);
}
);
layerId = "49F060A0-2273-4F54-8B81-08E0B15B03EC";
shapes = (
{
ref = a;
},
{
closed = 1;
nodes = (
(232,642,o),
(152,678,o),
(124,745,cs),
(99,807,o),
(118,864,o),
(170,881,cs),
(203,893,o),
(235,877,o),
(246,846,cs),
(252,829,o),
(254,803,o),
(260,781,cs),
(277,720,o),
(314,708,o),
(363,708,cs),
(411,708,o),
(447,720,o),
(464,781,cs),
(472,811,o),
(474,831,o),
(478,846,cs),
(488,877,o),
(519,892,o),
(553,881,cs),
(606,864,o),
(625,807,o),
(600,744,cs),
(572,676,o),
(488,642,o),
(363,642,cs)
);
}
);
width = 697;
}
);
unicode = 259;
},
{
glyphname = acircumflex;
lastChange = "2023-11-16 23:28:50 +0000";
layers = (
{
anchors = (
{
name = top;
pos = (375,881);
}
);
layerId = "49F060A0-2273-4F54-8B81-08E0B15B03EC";
shapes = (
{
ref = a;
},
{
closed = 1;
nodes = (
(362,730,o),
(353,721,o),
(329,704,cs),
(276,665,l),
(242,641,o),
(217,623,o),
(198,641,cs),
(183,657,o),
(197,676,o),
(215,714,cs),
(228,739,o),
(245,771,o),
(265,806,cs),
(292,854,o),
(328,884,o),
(372,884,cs),
(416,884,o),
(452,854,o),
(479,806,cs),
(499,771,o),
(516,739,o),
(529,714,cs),
(547,676,o),
(561,657,o),
(546,641,cs),
(527,623,o),
(502,641,o),
(468,665,cs),
(455,675,o),
(431,693,o),
(410,708,cs),
(392,721,o),
(382,730,o),
(372,730,cs)
);
}
);
width = 697;
}
);
unicode = 226;
},
{
glyphname = adieresis;
lastChange = "2023-11-16 23:28:50 +0000";
layers = (
{
anchors = (
{
name = top;
pos = (360,872);
}
);
layerId = "49F060A0-2273-4F54-8B81-08E0B15B03EC";
shapes = (
{
ref = a;
},
{
closed = 1;
nodes = (
(189,763,o),
(219,734,o),
(265,734,cs),
(311,734,o),
(341,763,o),
(341,808,cs),
(341,852,o),
(311,880,o),
(265,880,cs),
(219,880,o),
(189,852,o),
(189,808,cs)
);
},
{
closed = 1;
nodes = (
(385,763,o),
(415,734,o),
(461,734,cs),
(507,734,o),
(537,763,o),
(537,808,cs),
(537,852,o),
(507,880,o),
(461,880,cs),
(415,880,o),
(385,852,o),
(385,808,cs)
);
}
);
width = 697;
}
);
unicode = 228;
},
{
glyphname = agrave;
lastChange = "2023-11-16 23:28:50 +0000";
layers = (
{
layerId = "49F060A0-2273-4F54-8B81-08E0B15B03EC";
shapes = (
{
ref = a;
},
{
closed = 1;
nodes = (
(217,768,o),
(198,816,o),
(229,857,cs),
(254,890,o),
(289,895,o),
(319,878,cs),
(365,852,o),
(370,799,o),
(435,766,cs),
(475,746,o),
(495,722,o),
(479,690,cs),
(466,665,o),
(437,663,o),
(407,667,cs),
(363,673,o),
(310,698,o),
(270,728,cs)
);
}
);
width = 697;
}
);
unicode = 224;
},
{
glyphname = amacron;
lastChange = "2023-11-16 23:28:50 +0000";
layers = (
{
anchors = (
{
name = top;
pos = (353,873);
}
);
layerId = "49F060A0-2273-4F54-8B81-08E0B15B03EC";
shapes = (
{
ref = a;
},
{
closed = 1;
nodes = (
(162,724,o),
(124,757,o),
(124,804,cs),
(124,849,o),
(160,885,o),
(288,885,cs),
(395,885,o),
(480,871,o),
(502,867,cs),
(588,850,o),
(615,835,o),
(615,809,cs),
(615,783,o),
(585,763,o),
(508,747,cs),
(472,739,o),
(386,724,o),
(292,724,cs)
);
}
);
width = 697;
}
);
unicode = 257;
},
{
glyphname = aogonek;
lastChange = "2023-11-16 23:28:50 +0000";
layers = (
{
anchors = (
{
name = bottom;
pos = (393,-15);
}
);
layerId = "49F060A0-2273-4F54-8B81-08E0B15B03EC";
shapes = (
{
ref = a;
},
{
closed = 1;
nodes = (
(571,-176,o),
(582,-168,o),
(582,-156,cs),
(582,-144,o),
(571,-137,o),
(554,-137,cs),
(526,-137,o),
(510,-127,o),
(510,-107,cs),
(510,-94,o),
(523,-83,o),
(534,-74,cs),
(555,-56,o),
(565,-34,o),
(540,-10,cs),
(521,8,o),
(486,1,o),
(460,-28,cs),
(423,-70,o),
(429,-123,o),
(466,-156,cs),
(489,-177,o),
(517,-184,o),
(555,-178,c)
);
}
);
width = 697;
}
);
unicode = 261;
},
{
glyphname = aring;
lastChange = "2023-11-16 23:28:50 +0000";
layers = (
{
anchors = (
{
name = top;
pos = (382,884);
}
);
layerId = "49F060A0-2273-4F54-8B81-08E0B15B03EC";
shapes = (
{
ref = a;
},
{
closed = 1;
nodes = (
(443,651,o),
(496,702,o),
(496,769,cs),
(496,833,o),
(443,884,o),
(382,884,cs),
(321,884,o),
(265,833,o),
(265,768,cs),
(265,702,o),
(321,651,o),
(380,651,cs)
);
},
{
closed = 1;
nodes = (
(355,685,o),
(338,708,o),
(338,738,cs),
(338,769,o),
(355,792,o),
(380,792,cs),
(406,792,o),
(423,769,o),
(423,738,cs),
(423,708,o),
(406,685,o),
(380,685,cs)
);
}
);
width = 697;
}
);
unicode = 229;
},
{
glyphname = atilde;
lastChange = "2023-11-16 23:28:50 +0000";
layers = (
{
anchors = (
{
name = top;
pos = (273,877);
}
);
layerId = "49F060A0-2273-4F54-8B81-08E0B15B03EC";
shapes = (
{
ref = a;
},
{
closed = 1;
nodes = (
(415,658,o),
(480,643,o),
(545,684,cs),
(605,722,o),
(625,784,o),
(595,834,cs),
(576,862,o),
(542,871,o),
(515,853,cs),
(501,844,o),
(473,817,o),
(459,807,cs),
(436,794,o),
(420,793,o),
(405,805,cs),
(303,884,o),
(238,899,o),
(172,855,cs),
(112,821,o),
(91,757,o),
(122,707,cs),
(140,680,o),
(173,670,o),
(202,689,cs),
(214,697,o),
(244,724,o),
(258,732,cs),
(279,749,o),
(294,749,o),
(311,736,cs)
);
}
);
width = 697;
}
);
unicode = 227;
},
{
glyphname = ae;
lastChange = "2023-11-16 23:28:50 +0000";
layers = (
{
layerId = "49F060A0-2273-4F54-8B81-08E0B15B03EC";
shapes = (
{
closed = 0;
nodes = (
(754,119,l)
);
},
{
closed = 1;
nodes = (
(715,619,o),
(656,613,o),
(625,582,cs),
(623,580,o),
(620,579,o),
(617,579,cs),
(612,579,o),
(612,582,o),
(610,583,cs),
(589,602,o),
(562,612,o),
(534,612,cs),
(487,612,o),
(448,584,o),
(426,550,cs),
(420,541,o),
(416,531,o),
(404,531,cs),
(394,531,o),
(388,539,o),
(382,546,cs),
(347,587,o),
(295,612,o),
(229,612,cs),
(92,612,o),
(17,506,o),
(17,367,cs),
(17,269,o),
(54,163,o),
(116,87,cs),
(163,29,o),
(223,-11,o),
(291,-14,cs),
(344,-16,o),
(391,7,o),
(422,48,cs),
(428,56,o),
(435,63,o),
(445,63,cs),
(456,63,o),
(464,57,o),
(467,48,cs),
(480,8,o),
(500,-16,o),
(535,-16,cs),
(572,-16,o),
(592,12,o),
(606,60,cs),
(609,72,o),
(610,76,o),
(611,78,cs),
(612,80,o),
(613,81,o),
(615,81,cs),
(618,81,o),
(619,80,o),
(621,78,c),
(670,30,o),
(744,-12,o),
(850,-12,cs),
(890,-12,o),
(942,-6,o),
(977,12,cs),
(1012,30,o),
(1027,59,o),
(1017,81,cs),
(1008,101,o),
(977,120,o),
(944,98,cs),
(908,74,o),
(890,63,o),
(858,63,cs),
(813,63,o),
(774,84,o),
(754,116,cs),
(749,124,o),
(748,128,o),
(752,132,cs),
(757,137,o),
(763,136,o),
(768,134,cs),
(784,128,o),
(801,119,o),
(841,119,cs),
(977,119,o),
(1071,218,o),
(1071,362,cs),
(1071,492,o),
(968,620,o),
(768,620,cs)
);
},
{
closed = 0;
nodes = (
(765,118,l)
);
},
{
closed = 1;
nodes = (
(715,212,o),
(696,240,o),
(696,272,cs),
(696,308,o),
(720,347,o),
(762,347,cs),
(794,347,o),
(814,325,o),
(814,294,cs),
(814,260,o),
(789,212,o),
(747,212,cs)
);
},
{
closed = 1;
nodes = (
(337,136,o),
(308,184,o),
(306,216,cs),
(304,253,o),
(325,272,o),
(368,272,cs),
(407,274,o),
(423,255,o),
(430,209,cs),
(437,160,o),
(414,136,o),
(376,136,cs)
);
}
);
width = 1095;
}
);
unicode = 230;
},
{
color = 10;
glyphname = b;
lastChange = "2023-11-16 23:28:50 +0000";
layers = (
{
hints = (
{
horizontal = 1;
place = (674, 22);
place = (674, 22);
type = Stem;
}
);
layerId = "49F060A0-2273-4F54-8B81-08E0B15B03EC";
shapes = (
{
closed = 1;
nodes = (
(330,737,o),
(264,808,o),
(186,808,cs),
(107,808,o),
(29,737,o),
(29,595,cs),
(29,403,o),
(64,205,o),
(92,84,cs),
(107,21,o),
(130,-16,o),
(173,-16,cs),
(207,-16,o),
(228,7,o),
(243,47,cs),
(247,57,o),
(255,63,o),
(266,63,cs),
(276,63,o),
(283,56,o),
(289,48,cs),
(320,7,o),
(367,-16,o),
(420,-14,cs),
(488,-11,o),
(548,29,o),
(595,87,cs),
(656,163,o),
(694,269,o),
(694,359,cs),
(694,516,o),
(612,612,o),
(486,612,cs),
(440,612,o),
(399,602,o),
(370,581,c),
(364,576,o),
(359,571,o),
(351,571,cs),
(340,571,o),
(330,577,o),
(330,593,cs)
);
},
{
closed = 1;
nodes = (
(297,134,o),
(274,158,o),
(281,207,cs),
(288,253,o),
(304,272,o),
(343,270,cs),
(386,270,o),
(407,251,o),
(405,214,cs),
(403,182,o),
(374,134,o),
(335,134,cs)
);
}
);
width = 710;
}
);
unicode = 98;
},
{
color = 10;
glyphname = c;
lastChange = "2023-11-16 23:28:50 +0000";
layers = (
{
backgroundImage = {
angle = -91;
imagePath = "/Volumes/ADAM-DOC/DOCUMENTS/Google-project_african languages/20octobre/23 October2023/28 October2023/maremasie2/Scan 4.png";
locked = 1;
pos = (-1754,1350);
scale = (17.3141,17.3141);
};
layerId = "49F060A0-2273-4F54-8B81-08E0B15B03EC";
shapes = (
{
closed = 1;
nodes = (
(583,544,o),
(481,623,o),
(340,618,cs),
(198,613,o),
(11,522,o),
(11,308,cs),
(11,115,o),
(163,-13,o),
(333,-13,cs),
(376,-13,o),
(422,-5,o),
(453,9,cs),
(499,30,o),
(511,63,o),
(500,86,cs),
(490,107,o),
(460,125,o),
(427,103,cs),
(391,79,o),
(373,68,o),
(340,68,cs),
(265,68,o),
(202,123,o),
(202,187,cs),
(202,233,o),
(235,295,o),
(301,295,cs),
(360,295,o),
(373,247,o),
(439,247,cs),
(523,247,o),
(583,325,o),
(583,420,cs)
);
}
);
width = 584;
}
);
unicode = 99;
},
{
glyphname = cacute;
lastChange = "2023-11-16 23:28:50 +0000";
layers = (
{
layerId = "49F060A0-2273-4F54-8B81-08E0B15B03EC";
shapes = (
{
ref = c;
},
{
closed = 1;
nodes = (
(342,697,o),
(289,672,o),
(245,666,cs),
(215,662,o),
(186,664,o),
(173,689,cs),
(157,721,o),
(177,745,o),
(217,765,cs),
(282,798,o),
(287,851,o),
(333,877,cs),
(363,894,o),
(398,889,o),
(423,856,cs),
(454,815,o),
(435,767,o),
(382,727,cs)
);
}
);
width = 571;
}
);
unicode = 263;
},
{
glyphname = ccaron;
lastChange = "2023-11-16 23:28:50 +0000";
layers = (
{
anchors = (
{
name = top;
pos = (288,877);
}
);
layerId = "49F060A0-2273-4F54-8B81-08E0B15B03EC";
shapes = (
{
ref = c;
},
{
closed = 1;
nodes = (
(311,791,o),
(321,800,o),
(339,813,cs),
(360,828,o),
(384,846,o),
(397,856,cs),
(431,880,o),
(456,898,o),
(475,880,cs),
(490,864,o),
(476,845,o),
(458,807,cs),
(445,782,o),
(428,750,o),
(408,715,cs),
(381,667,o),
(345,637,o),
(301,637,cs),
(257,637,o),
(221,667,o),
(194,715,cs),
(174,750,o),
(157,782,o),
(144,807,cs),
(126,845,o),
(112,864,o),
(127,880,cs),
(146,898,o),
(171,880,o),
(205,856,c),
(258,817,ls),
(282,800,o),
(291,791,o),
(301,791,cs)
);
}
);
width = 571;
}
);
unicode = 269;
},
{
glyphname = ccedilla;
lastChange = "2023-11-16 23:28:50 +0000";
layers = (
{
layerId = "49F060A0-2273-4F54-8B81-08E0B15B03EC";
shapes = (
{
ref = c;
},
{
closed = 1;
nodes = (
(384,-106,o),
(383,-93,o),
(379,-81,cs),
(363,-31,o),
(309,-7,o),
(281,-25,cs),
(271,-32,o),
(258,-45,o),
(258,-65,cs),
(258,-80,o),
(266,-88,o),
(276,-93,cs),
(287,-99,o),
(300,-101,o),
(309,-107,cs),
(314,-111,o),
(318,-117,o),
(318,-125,cs),
(318,-135,o),
(307,-143,o),
(282,-143,cs),
(269,-143,o),
(261,-148,o),
(261,-159,cs),
(261,-173,o),
(273,-176,o),
(293,-176,cs),
(310,-176,o),
(331,-174,o),
(347,-168,cs),
(369,-159,o),
(384,-143,o),
(384,-114,c)
);
}
);
width = 571;
}
);
unicode = 231;
},
{
glyphname = cdotaccent;
lastChange = "2023-11-16 23:28:50 +0000";
layers = (
{
anchors = (
{
name = top;
pos = (323,877);
}
);
layerId = "49F060A0-2273-4F54-8B81-08E0B15B03EC";
shapes = (
{
ref = c;
},
{
closed = 1;
nodes = (
(236,766,o),
(266,737,o),
(312,737,cs),
(358,737,o),
(388,766,o),
(388,811,cs),
(388,855,o),
(358,883,o),
(312,883,cs),
(266,883,o),
(236,855,o),
(236,811,cs)
);
}
);
width = 571;
}
);
unicode = 267;
},
{
color = 10;
glyphname = d;
lastChange = "2023-11-16 23:28:50 +0000";
layers = (
{
layerId = "49F060A0-2273-4F54-8B81-08E0B15B03EC";
shapes = (
{
closed = 1;
nodes = (
(386,580,o),
(376,574,o),
(365,574,cs),
(357,574,o),
(352,579,o),
(346,584,c),
(317,605,o),
(276,615,o),
(230,615,cs),
(104,615,o),
(22,519,o),
(22,362,cs),
(22,272,o),
(60,166,o),
(121,90,cs),
(168,32,o),
(228,-8,o),
(296,-11,cs),
(349,-13,o),
(396,10,o),
(427,51,cs),
(433,59,o),
(440,66,o),
(450,66,cs),
(461,66,o),
(469,60,o),
(473,50,cs),
(488,10,o),
(509,-13,o),
(543,-13,cs),
(586,-13,o),
(609,24,o),
(624,87,cs),
(652,208,o),
(687,406,o),
(687,598,cs),
(687,740,o),
(609,811,o),
(530,811,cs),
(452,811,o),
(386,740,o),
(386,596,cs)
);
},
{
closed = 1;
nodes = (
(341,136,o),
(312,184,o),
(310,216,cs),
(308,253,o),
(329,272,o),
(372,272,cs),
(411,274,o),
(427,255,o),
(434,209,cs),
(441,160,o),
(418,136,o),
(380,136,cs)
);
}
);
width = 731;
}
);
unicode = 100;
},
{
glyphname = dcaron;
lastChange = "2023-11-16 23:28:50 +0000";
layers = (
{
anchors = (
{
name = top;
pos = (792,828);
}
);
layerId = "49F060A0-2273-4F54-8B81-08E0B15B03EC";
shapes = (
{
ref = d;
},
{
closed = 1;
nodes = (
(828,812,o),
(856,785,o),
(856,723,cs),
(856,669,o),
(845,624,o),
(839,600,cs),
(824,543,o),
(811,524,o),
(789,524,cs),
(767,524,o),
(754,543,o),
(739,600,cs),
(733,624,o),
(722,669,o),
(722,723,cs),
(722,785,o),
(750,812,o),
(789,812,cs)
);
}
);
width = 857;
}
);
unicode = 271;
},
{
glyphname = dcroat;
lastChange = "2023-11-16 23:28:50 +0000";
layers = (
{
layerId = "49F060A0-2273-4F54-8B81-08E0B15B03EC";
shapes = (
{
closed = 1;
nodes = (
(614,791,o),
(572,811,o),
(530,811,cs),
(493,811,o),
(458,795,o),
(432,762,cs),
(428,757,o),
(425,757,o),
(420,757,cs),
(324,757,o),
(295,717,o),
(295,677,cs),
(295,642,o),
(316,615,o),
(379,603,cs),
(384,602,o),
(386,601,o),
(386,596,cs),
(386,580,o),
(376,574,o),
(365,574,cs),
(357,574,o),
(352,579,o),
(346,584,c),
(317,605,o),
(276,615,o),
(230,615,cs),
(104,615,o),
(22,519,o),
(22,362,cs),
(22,272,o),
(60,166,o),
(121,90,cs),
(168,32,o),
(228,-8,o),
(296,-11,cs),
(349,-13,o),
(396,10,o),
(427,51,cs),
(433,59,o),
(440,66,o),
(450,66,cs),
(461,66,o),
(469,60,o),
(473,50,cs),
(488,10,o),
(509,-13,o),
(543,-13,cs),
(586,-13,o),
(609,24,o),
(624,87,cs),
(652,208,o),
(687,406,o),
(687,598,cs),
(687,603,o),
(687,607,o),
(687,613,cs),
(687,619,o),
(688,622,o),
(693,623,cs),
(760,639,o),
(786,658,o),
(786,682,cs),
(786,708,o),
(759,723,o),
(673,740,cs),
(669,741,o),
(664,742,o),
(657,743,c),
(651,744,o),
(648,744,o),
(643,751,c)
);
},
{
closed = 0;
nodes = (
(657,743,l)
);
},
{
closed = 1;
nodes = (
(342,136,o),
(313,184,o),
(311,216,cs),
(309,253,o),
(330,272,o),
(373,272,cs),
(412,274,o),
(428,255,o),
(435,209,cs),
(442,160,o),
(419,136,o),
(381,136,cs)
);
}
);
width = 803;
}
);
unicode = 273;
},
{
glyphname = eth;
lastChange = "2023-11-16 23:28:50 +0000";
layers = (
{
layerId = "49F060A0-2273-4F54-8B81-08E0B15B03EC";
shapes = (
{
closed = 0;
nodes = (
(256,495,l)
);
},
{
closed = 1;
nodes = (
(249,501,o),
(251,500,o),
(256,495,cs),
(264,487,o),
(270,479,o),
(276,469,cs),
(297,434,o),
(296,426,o),
(292,421,cs),
(282,409,o),
(271,425,o),
(256,436,cs),
(237,450,o),
(207,454,o),
(183,454,cs),
(82,454,o),
(22,383,o),
(22,271,cs),
(22,195,o),
(50,120,o),
(94,65,cs),
(130,20,o),
(178,-12,o),
(267,-12,cs),
(351,-12,o),
(426,16,o),
(502,111,cs),
(572,199,o),
(639,343,o),
(597,533,cs),
(586,582,o),
(570,624,o),
(556,650,cs),
(549,662,o),
(549,667,o),
(553,672,c),
(556,674,o),
(564,681,o),
(566,683,cs),
(611,721,o),
(617,756,o),
(604,774,cs),
(586,800,o),
(498,769,o),
(477,761,cs),
(468,758,o),
(464,759,o),
(459,764,cs),
(423,802,o),
(357,817,o),
(292,795,cs),
(222,771,o),
(174,711,o),
(186,649,cs),
(188,636,o),
(180,632,o),
(176,629,cs),
(119,588,o),
(111,551,o),
(131,517,cs),
(147,490,o),
(179,467,o),
(236,495,cs)
);
},
{
closed = 1;
nodes = (
(239,121,o),
(213,164,o),
(212,194,cs),
(210,227,o),
(229,245,o),
(268,245,cs),
(303,247,o),
(318,229,o),
(325,188,cs),
(331,143,o),
(310,121,o),
(275,121,cs)
);
}
);
width = 614;
}
);
unicode = 240;
},
{
color = 10;
glyphname = e;
lastChange = "2023-11-16 23:28:50 +0000";
layers = (
{
layerId = "49F060A0-2273-4F54-8B81-08E0B15B03EC";
shapes = (
{
closed = 1;
nodes = (
(221,213,o),
(202,241,o),
(202,273,cs),
(202,309,o),
(226,348,o),
(268,348,cs),
(300,348,o),
(320,326,o),
(320,295,cs),
(320,261,o),
(295,213,o),
(253,213,cs)
);
},
{
closed = 1;
nodes = (
(393,-14,o),
(444,-7,o),
(477,10,cs),
(512,28,o),
(527,57,o),
(517,78,cs),
(508,98,o),
(477,117,o),
(444,95,cs),
(408,71,o),
(391,61,o),
(359,61,cs),
(314,61,o),
(275,81,o),
(255,113,cs),
(250,121,o),
(249,125,o),
(253,129,cs),
(258,134,o),
(264,133,o),
(269,131,cs),
(285,125,o),
(302,116,o),
(343,116,cs),
(479,116,o),
(604,215,o),
(604,359,cs),
(604,489,o),
(501,617,o),
(301,617,cs),
(103,617,o),
(24,474,o),
(24,335,cs),
(24,102,o),
(198,-14,o),
(354,-14,cs)
);
}
);
width = 619;
},
{
associatedMasterId = "49F060A0-2273-4F54-8B81-08E0B15B03EC";
layerId = "B7D7E82B-DF8C-4018-977C-E49B44DCF1C8";
name = "16 Nov 23 at 18:25";
shapes = (
{
closed = 0;
nodes = (
(274,113,l)
);
},
{
closed = 1;
nodes = (
(249,207,o),
(227,213,o),
(215,241,cs),
(212,249,o),
(213,256,o),
(214,263,cs),
(220,304,ls),
(223,325,o),
(239,343,o),
(278,343,cs),
(315,343,o),
(340,333,o),
(340,287,cs),
(340,255,o),
(309,207,o),
(270,207,cs)
);
},
{
closed = 1;
nodes = (
(411,-15,o),
(466,-8,o),
(497,9,cs),
(534,29,o),
(547,56,o),
(537,78,cs),
(529,97,o),
(498,117,o),
(463,95,cs),
(431,72,o),
(411,60,o),
(377,60,cs),
(333,60,o),
(296,80,o),
(274,113,cs),
(270,118,o),
(268,125,o),
(272,129,cs),
(277,134,o),
(283,133,o),
(288,131,cs),
(311,121,o),
(334,116,o),
(359,116,cs),
(499,116,o),
(600,217,o),
(600,352,cs),
(600,491,o),
(522,616,o),
(297,616,cs),
(122,616,o),
(40,515,o),
(40,358,cs),
(40,268,o),
(55,178,o),
(116,102,cs),
(163,44,o),
(246,-15,o),
(369,-15,cs)
);
}
);
width = 634;
}
);
unicode = 101;
},
{
glyphname = eacute;
lastChange = "2023-11-16 23:28:50 +0000";
layers = (
{
anchors = (
{
name = top;
pos = (329,814);
}
);
layerId = "49F060A0-2273-4F54-8B81-08E0B15B03EC";
shapes = (
{
ref = e;
},
{
closed = 1;
nodes = (
(333,700,o),
(280,675,o),
(236,669,cs),
(206,665,o),
(177,667,o),
(164,692,cs),
(148,724,o),
(168,748,o),
(208,768,cs),
(273,801,o),
(278,854,o),
(324,880,cs),
(354,897,o),
(389,892,o),
(414,859,cs),
(445,818,o),
(426,770,o),
(373,730,cs)
);
}
);
width = 596;
}
);
unicode = 233;
},
{
glyphname = ecaron;
lastChange = "2023-11-16 23:28:50 +0000";
layers = (
{
anchors = (
{
name = top;
pos = (281,796);
}
);
layerId = "49F060A0-2273-4F54-8B81-08E0B15B03EC";
shapes = (
{
ref = e;
},
{
closed = 1;
nodes = (
(301,789,o),
(311,798,o),
(329,811,cs),
(350,826,o),
(374,844,o),
(387,854,cs),
(421,878,o),
(446,896,o),
(465,878,cs),
(480,862,o),
(466,843,o),
(448,805,cs),
(435,780,o),
(418,748,o),
(398,713,cs),
(371,665,o),
(335,635,o),
(291,635,cs),
(247,635,o),
(211,665,o),
(184,713,cs),
(164,748,o),
(147,780,o),
(134,805,cs),
(116,843,o),
(102,862,o),
(117,878,cs),
(136,896,o),
(161,878,o),
(195,854,c),
(248,815,ls),
(272,798,o),
(281,789,o),
(291,789,cs)
);
}
);
width = 596;
}
);
unicode = 283;
},
{
glyphname = ecircumflex;
lastChange = "2023-11-16 23:28:50 +0000";
layers = (
{
anchors = (
{
name = top;
pos = (300,884);
}
);
layerId = "49F060A0-2273-4F54-8B81-08E0B15B03EC";
shapes = (
{
ref = e;
},
{
closed = 1;
nodes = (
(290,730,o),
(281,721,o),
(257,704,cs),
(204,665,l),
(170,641,o),
(145,623,o),
(126,641,cs),
(111,657,o),
(125,676,o),
(143,714,cs),
(156,739,o),
(173,771,o),
(193,806,cs),
(220,854,o),
(256,884,o),
(300,884,cs),
(344,884,o),
(380,854,o),
(407,806,cs),
(427,771,o),
(444,739,o),
(457,714,cs),
(475,676,o),
(489,657,o),
(474,641,cs),
(455,623,o),
(430,641,o),
(396,665,cs),
(383,675,o),
(359,693,o),
(338,708,cs),
(320,721,o),
(310,730,o),
(300,730,cs)
);
}
);
width = 596;
}
);
unicode = 234;
},
{
glyphname = edieresis;
lastChange = "2023-11-16 23:28:50 +0000";
layers = (
{
anchors = (
{
name = top;
pos = (303,814);
}
);
layerId = "49F060A0-2273-4F54-8B81-08E0B15B03EC";
shapes = (
{
ref = e;
},
{
closed = 1;
nodes = (
(108,765,o),
(138,736,o),
(184,736,cs),
(230,736,o),
(260,765,o),
(260,810,cs),
(260,854,o),
(230,882,o),
(184,882,cs),
(138,882,o),
(108,854,o),
(108,810,cs)
);
},
{
closed = 1;
nodes = (
(304,765,o),
(334,736,o),
(380,736,cs),
(426,736,o),
(456,765,o),
(456,810,cs),
(456,854,o),
(426,882,o),
(380,882,cs),
(334,882,o),
(304,854,o),
(304,810,cs)
);
}
);
width = 596;
}
);
unicode = 235;
},
{
glyphname = edotaccent;
lastChange = "2023-11-16 23:28:50 +0000";
layers = (
{
anchors = (
{
name = top;
pos = (265,886);
}
);
layerId = "49F060A0-2273-4F54-8B81-08E0B15B03EC";
shapes = (
{
ref = e;
},
{
closed = 1;
nodes = (
(189,769,o),
(219,740,o),
(265,740,cs),
(311,740,o),
(341,769,o),
(341,814,cs),
(341,858,o),
(311,886,o),
(265,886,cs),
(219,886,o),
(189,858,o),
(189,814,cs)
);
}
);
width = 596;
}
);
unicode = 279;
},
{
glyphname = egrave;
lastChange = "2023-11-16 23:28:50 +0000";
layers = (
{
anchors = (
{
name = top;
pos = (250,933);
}
);
layerId = "49F060A0-2273-4F54-8B81-08E0B15B03EC";
shapes = (
{
ref = e;
},
{
closed = 1;
nodes = (
(180,781,o),
(161,829,o),
(192,870,cs),
(217,903,o),
(252,908,o),
(282,891,cs),
(328,865,o),
(333,812,o),
(398,779,cs),
(438,759,o),
(458,735,o),
(442,703,cs),
(429,678,o),
(400,676,o),
(370,680,cs),
(326,686,o),
(273,711,o),
(233,741,cs)
);
}
);
width = 575;
}
);
unicode = 232;
},
{
glyphname = emacron;
lastChange = "2023-11-16 23:28:50 +0000";
layers = (
{
anchors = (
{
name = top;
pos = (282,885);
}
);
layerId = "49F060A0-2273-4F54-8B81-08E0B15B03EC";
shapes = (
{
ref = e;
},
{
closed = 1;
nodes = (
(108,723,o),
(70,756,o),
(70,803,cs),
(70,848,o),
(106,884,o),
(234,884,cs),
(341,884,o),
(426,870,o),
(448,866,cs),
(534,849,o),
(561,834,o),
(561,808,cs),
(561,782,o),
(531,762,o),
(454,746,cs),
(418,738,o),
(332,723,o),
(238,723,cs)
);
}
);
width = 596;
}
);
unicode = 275;
},
{
glyphname = eogonek;
lastChange = "2023-11-16 23:28:50 +0000";
layers = (
{
anchors = (
{
name = bottom;
pos = (435,23);
}
);
layerId = "49F060A0-2273-4F54-8B81-08E0B15B03EC";
shapes = (
{
ref = e;
},
{
closed = 1;
nodes = (
(417,-176,o),
(428,-168,o),
(428,-156,cs),
(428,-144,o),
(417,-137,o),
(400,-137,cs),
(372,-137,o),
(356,-127,o),
(356,-107,cs),
(356,-94,o),
(369,-83,o),
(380,-74,cs),
(401,-56,o),
(411,-34,o),
(386,-10,cs),
(367,8,o),
(332,1,o),
(306,-28,cs),
(269,-70,o),
(275,-123,o),
(312,-156,cs),
(335,-177,o),
(363,-184,o),
(401,-178,c)
);
}
);
width = 596;
}
);
unicode = 281;
},
{
color = 10;
glyphname = f;
lastChange = "2023-11-16 23:28:50 +0000";
layers = (
{
layerId = "49F060A0-2273-4F54-8B81-08E0B15B03EC";
shapes = (
{
closed = 1;
nodes = (
(87,815,o),
(9,736,o),
(9,594,cs),
(9,403,o),
(50,208,o),
(85,89,cs),
(103,26,o),
(129,-11,o),
(180,-11,cs),
(218,-11,o),
(240,21,o),
(240,54,cs),
(240,79,o),
(232,131,o),
(229,149,cs),
(219,220,o),
(225,278,o),
(255,326,cs),
(263,338,o),
(283,360,o),
(324,360,cs),
(346,360,o),
(324,363,o),
(387,354,cs),
(431,348,o),
(455,377,o),
(455,408,cs),
(455,439,o),
(431,467,o),
(387,462,cs),
(346,457,o),
(352,457,o),
(324,457,cs),
(291,457,o),
(282,472,o),
(282,500,cs),
(282,532,o),
(310,556,o),
(347,556,cs),
(370,556,o),
(408,548,o),
(437,548,cs),
(468,548,o),
(525,569,o),
(525,674,cs),
(525,763,o),
(452,815,o),
(314,815,c)
);
}
);
width = 529;
}
);
unicode = 102;
},
{
color = 10;
glyphname = g;
lastChange = "2023-11-16 23:28:50 +0000";
layers = (
{
layerId = "49F060A0-2273-4F54-8B81-08E0B15B03EC";
shapes = (
{
closed = 1;
nodes = (
(373,-183,o),
(401,-199,o),
(438,-199,cs),
(654,-200,o),
(697,117,o),
(697,333,cs),
(697,505,o),
(667,614,o),
(553,614,cs),
(512,614,o),
(472,594,o),
(444,552,cs),
(437,541,o),
(433,533,o),
(422,533,cs),
(412,533,o),
(406,541,o),
(400,548,cs),
(366,590,o),
(313,614,o),
(243,614,cs),
(117,614,o),
(35,518,o),
(35,361,cs),
(35,271,o),
(73,165,o),
(134,89,cs),
(181,31,o),
(241,-11,o),
(309,-11,cs),
(362,-11,o),
(409,9,o),
(437,50,cs),
(443,58,o),
(449,65,o),
(458,65,cs),
(468,65,o),
(478,59,o),
(479,45,cs),
(485,-3,o),
(479,-34,o),
(461,-53,cs),
(440,-75,o),
(410,-79,o),
(393,-73,cs),
(359,-60,o),
(332,-76,o),
(323,-101,cs),
(314,-128,o),
(326,-149,o),
(354,-169,cs)
);
},
{
closed = 1;
nodes = (
(355,136,o),
(326,184,o),
(324,216,cs),
(322,253,o),
(343,272,o),
(386,272,cs),
(425,274,o),
(441,255,o),
(448,209,cs),
(455,160,o),
(432,136,o),
(394,136,cs)
);
}
);
width = 719;
},
{
associatedMasterId = "49F060A0-2273-4F54-8B81-08E0B15B03EC";
layerId = "E8DB0691-68D0-431B-B1F1-83C4658121A8";
name = "2 Nov 23 at 01:11";
shapes = (
{
closed = 1;
nodes = (
(275,171,o),
(285,180,o),
(323,183,cs),
(342,185,o),
(355,184,o),
(377,182,c),
(381,147,o),
(384,112,o),
(389,81,c),
(371,55,o),
(336,52,o),
(322,53,cs),
(279,56,o),
(271,106,o),
(273,140,cs)
);
},
{
closed = 0;
nodes = (
(399,38,l)
);
},
{
closed = 1;
nodes = (
(423,-41,o),
(350,-78,o),
(322,-78,cs),
(308,-78,o),
(282,-67,o),
(269,-67,cs),
(254,-67,o),
(241,-80,o),
(241,-104,cs),
(241,-148,o),
(284,-200,o),
(364,-200,cs),
(559,-200,o),
(617,112,o),
(617,328,cs),
(617,500,o),
(591,616,o),
(497,616,cs),
(465,616,o),
(441,602,o),
(423,578,c),
(386,602,o),
(339,616,o),
(279,616,cs),
(108,616,o),
(48,505,o),
(31,404,cs),
(19,333,o),
(21,225,o),
(69,133,cs),
(120,35,o),
(203,-2,o),
(281,-2,cs),
(325,-2,o),
(363,9,o),
(399,38,c)
);
},
{
closed = 1;
nodes = (
(275,171,o),
(285,180,o),
(323,183,cs),
(342,185,o),
(355,184,o),
(377,182,c),
(381,147,o),
(384,112,o),
(389,81,c),
(371,55,o),
(336,52,o),
(322,53,cs),
(279,56,o),
(271,106,o),
(273,140,cs)
);
},
{
closed = 0;
nodes = (
(399,38,l)
);
},
{
closed = 1;
nodes = (
(423,-41,o),
(350,-78,o),
(322,-78,cs),
(308,-78,o),
(282,-67,o),
(269,-67,cs),
(254,-67,o),
(241,-80,o),
(241,-104,cs),
(241,-148,o),
(284,-200,o),
(364,-200,cs),
(559,-200,o),
(617,112,o),
(617,328,cs),
(617,500,o),
(591,616,o),
(497,616,cs),
(465,616,o),
(441,602,o),
(423,578,c),
(386,602,o),
(339,616,o),
(279,616,cs),
(108,616,o),
(48,505,o),
(31,404,cs),
(19,333,o),
(21,225,o),
(69,133,cs),
(120,35,o),
(203,-2,o),
(281,-2,cs),
(325,-2,o),
(363,9,o),
(399,38,c)
);
}
);
width = 652;
}
);
unicode = 103;
},
{
glyphname = gbreve;
lastChange = "2023-11-16 23:28:50 +0000";
layers = (
{
anchors = (
{
name = top;
pos = (369,882);
}
);
layerId = "49F060A0-2273-4F54-8B81-08E0B15B03EC";
shapes = (
{
ref = g;
},
{
closed = 1;
nodes = (
(253,642,o),
(173,678,o),
(145,745,cs),
(120,807,o),
(139,864,o),
(191,881,cs),
(224,893,o),
(256,877,o),
(267,846,cs),
(273,829,o),
(275,803,o),
(281,781,cs),
(298,720,o),
(335,708,o),
(384,708,cs),
(432,708,o),
(468,720,o),
(485,781,cs),
(493,811,o),
(495,831,o),
(499,846,cs),
(509,877,o),
(540,892,o),
(574,881,cs),
(627,864,o),
(646,807,o),
(621,744,cs),
(593,676,o),
(509,642,o),
(384,642,cs)
);
}
);
width = 719;
}
);
unicode = 287;
},
{
glyphname = gcommaaccent;
lastChange = "2023-11-16 23:28:50 +0000";
layers = (
{
anchors = (
{
name = top;
pos = (331,882);
}
);
layerId = "49F060A0-2273-4F54-8B81-08E0B15B03EC";
shapes = (
{
ref = g;
},
{
closed = 1;
nodes = (
(417,698,o),
(364,673,o),
(320,667,cs),
(290,663,o),
(261,665,o),
(248,690,cs),
(232,722,o),
(252,746,o),
(292,766,cs),
(357,799,o),
(362,852,o),
(408,878,cs),
(438,895,o),
(473,890,o),
(498,857,cs),
(529,816,o),
(510,768,o),
(457,728,cs)
);
}
);
width = 719;
}
);
unicode = 291;
},
{
glyphname = gdotaccent;
lastChange = "2023-11-16 23:28:50 +0000";
layers = (
{
anchors = (
{
name = top;
pos = (399,873);
}
);
layerId = "49F060A0-2273-4F54-8B81-08E0B15B03EC";
shapes = (
{
ref = g;
},
{
closed = 1;
nodes = (
(316,765,o),
(346,736,o),
(392,736,cs),
(438,736,o),
(468,765,o),
(468,810,cs),
(468,854,o),
(438,882,o),
(392,882,cs),
(346,882,o),
(316,854,o),
(316,810,cs)
);
}
);
width = 719;
}
);
unicode = 289;
},
{
color = 10;
glyphname = h;
lastChange = "2023-11-16 23:28:50 +0000";
layers = (
{
layerId = "49F060A0-2273-4F54-8B81-08E0B15B03EC";
shapes = (
{
closed = 1;
nodes = (
(299,245,o),
(314,248,o),
(327,248,cs),
(401,248,o),
(411,157,o),
(411,83,cs),
(411,10,o),
(437,-14,o),
(462,-14,cs),
(538,-14,o),
(695,143,o),
(695,360,cs),
(695,523,o),
(574,610,o),
(487,610,cs),
(434,610,o),
(405,586,o),
(362,547,cs),
(354,540,o),
(342,531,o),
(331,531,cs),
(323,531,o),
(317,537,o),
(317,548,cs),
(317,571,o),
(317,582,o),
(317,593,cs),
(317,735,o),
(248,813,o),
(168,813,cs),
(87,813,o),
(18,735,o),
(18,593,cs),
(18,402,o),
(54,206,o),
(85,87,cs),
(101,24,o),
(125,-13,o),
(168,-13,cs),
(211,-13,o),
(234,24,o),
(250,87,cs),
(258,119,o),
(267,158,o),
(277,203,cs),
(279,212,o),
(281,222,o),
(287,230,cs)
);
}
);
width = 718;
}
);
unicode = 104;
},
{
glyphname = hbar;
lastChange = "2023-11-16 23:28:50 +0000";
layers = (
{
layerId = "49F060A0-2273-4F54-8B81-08E0B15B03EC";
shapes = (
{
closed = 0;
nodes = (
(84,578,l)
);
},
{
closed = 1;
nodes = (
(80,590,o),
(84,586,o),
(84,578,cs),
(84,393,o),
(125,180,o),
(151,89,cs),
(170,22,o),
(191,-11,o),
(233,-11,cs),
(278,-11,o),
(300,26,o),
(316,89,cs),
(321,108,o),
(337,178,o),
(343,205,cs),
(345,214,o),
(347,224,o),
(353,232,cs),
(364,247,o),
(381,250,o),
(394,250,cs),
(467,250,o),
(477,157,o),
(477,85,cs),
(477,12,o),
(502,-12,o),
(530,-12,cs),
(604,-12,o),
(761,151,o),
(761,353,cs),
(761,531,o),
(640,612,o),
(550,612,cs),
(517,612,o),
(482,601,o),
(429,550,cs),
(415,537,o),
(414,533,o),
(401,533,cs),
(391,533,o),
(383,539,o),
(383,550,cs),
(383,573,o),
(383,584,o),
(383,595,cs),
(383,599,o),
(383,604,o),
(388,605,cs),
(465,620,o),
(495,641,o),
(495,667,cs),
(495,693,o),
(467,708,o),
(383,725,cs),
(381,725,o),
(374,726,o),
(369,727,cs),
(358,729,o),
(355,732,o),
(351,739,cs),
(324,788,o),
(280,815,o),
(234,815,cs),
(191,815,o),
(152,793,o),
(124,752,cs),
(120,746,o),
(117,741,o),
(109,740,cs),
(28,730,o),
(4,699,o),
(4,662,cs),
(4,630,o),
(22,604,o),
(75,591,c)
);
}
);
width = 777;
}
);
unicode = 295;
},
{
color = 10;
glyphname = i;
lastChange = "2023-11-16 23:28:50 +0000";
layers = (
{
layerId = "49F060A0-2273-4F54-8B81-08E0B15B03EC";
shapes = (
{
closed = 1;
nodes = (
(37,628,o),
(87,590,o),
(166,590,cs),
(248,590,o),
(298,628,o),
(298,697,cs),
(298,766,o),
(248,802,o),
(166,802,cs),
(87,802,o),
(37,766,o),
(37,697,cs)
);
},
{
closed = 1;
nodes = (
(97,535,o),
(38,483,o),
(38,388,cs),
(38,260,o),
(69,129,o),
(95,49,cs),
(110,7,o),
(129,-18,o),
(167,-18,cs),
(205,-18,o),
(224,7,o),
(239,49,cs),
(265,129,o),
(296,260,o),
(296,388,cs),
(296,483,o),
(237,535,o),
(167,535,c)
);
}
);
width = 335;
}
);
unicode = 105;
},
{
glyphname = idotless;
lastChange = "2023-11-16 23:28:50 +0000";
layers = (
{
layerId = "49F060A0-2273-4F54-8B81-08E0B15B03EC";
shapes = (
{
closed = 1;
nodes = (
(59,539,o),
(102,506,o),
(170,506,cs),
(241,506,o),
(284,539,o),
(284,598,cs),
(284,658,o),
(241,689,o),
(170,689,cs),
(102,689,o),
(59,658,o),
(59,598,cs)
);
},
{
closed = 1;
nodes = (
(111,459,o),
(60,414,o),
(60,332,cs),
(60,222,o),
(87,109,o),
(109,40,cs),
(122,4,o),
(138,-18,o),
(171,-18,cs),
(204,-18,o),
(220,4,o),
(233,40,cs),
(256,109,o),
(282,222,o),
(282,332,cs),
(282,414,o),
(231,459,o),
(171,459,c)
);
}
);
width = 335;
}
);
unicode = 305;
},
{
glyphname = iacute;
lastChange = "2023-11-16 23:28:50 +0000";
layers = (
{
anchors = (
{
name = top;
pos = (198,1071);
}
);
layerId = "49F060A0-2273-4F54-8B81-08E0B15B03EC";
shapes = (
{
ref = i;
},
{
closed = 1;
nodes = (
(202,891,o),
(149,866,o),
(105,860,cs),
(75,856,o),
(46,858,o),
(33,883,cs),
(17,915,o),
(37,939,o),
(77,959,cs),
(142,992,o),
(147,1045,o),
(193,1071,cs),
(223,1088,o),
(258,1083,o),
(283,1050,cs),
(314,1009,o),
(295,961,o),
(242,921,cs)
);
}
);
width = 335;
}
);
unicode = 237;
},
{
glyphname = icircumflex;
lastChange = "2023-11-16 23:28:50 +0000";
layers = (
{
anchors = (
{
name = top;
pos = (168,1076);
}
);
layerId = "49F060A0-2273-4F54-8B81-08E0B15B03EC";
shapes = (
{
ref = i;
},
{
closed = 1;
nodes = (
(162,925,o),
(153,916,o),
(129,899,cs),
(76,860,l),
(42,836,o),
(17,818,o),
(-2,836,cs),
(-17,852,o),
(-3,871,o),
(15,909,cs),
(28,934,o),
(45,966,o),
(65,1001,cs),
(92,1049,o),
(128,1079,o),
(172,1079,cs),
(216,1079,o),
(252,1049,o),
(279,1001,cs),
(299,966,o),
(316,934,o),
(329,909,cs),
(347,871,o),
(361,852,o),
(346,836,cs),
(327,818,o),
(302,836,o),
(268,860,cs),
(255,870,o),
(231,888,o),
(210,903,cs),
(192,916,o),
(182,925,o),
(172,925,cs)
);
}
);
width = 344;
}
);
unicode = 238;
},
{
glyphname = idieresis;
lastChange = "2023-11-16 23:28:50 +0000";
layers = (
{
anchors = (
{
name = top;
pos = (166,1075);
}
);
layerId = "49F060A0-2273-4F54-8B81-08E0B15B03EC";
shapes = (
{
closed = 1;
nodes = (
(97,535,o),
(38,483,o),
(38,388,cs),
(38,260,o),
(69,129,o),
(95,49,cs),
(110,7,o),
(129,-18,o),
(167,-18,cs),
(205,-18,o),
(224,7,o),
(239,49,cs),
(265,129,o),
(296,260,o),
(296,388,cs),
(296,483,o),
(237,535,o),
(167,535,c)
);
},
{
closed = 1;
nodes = (
(-8,961,o),
(22,932,o),
(68,932,cs),
(114,932,o),
(144,961,o),
(144,1006,cs),
(144,1050,o),
(114,1078,o),
(68,1078,cs),
(22,1078,o),
(-8,1050,o),
(-8,1006,cs)
);
},
{
closed = 1;
nodes = (
(188,961,o),
(218,932,o),
(264,932,cs),
(310,932,o),
(340,961,o),
(340,1006,cs),
(340,1050,o),
(310,1078,o),
(264,1078,cs),
(218,1078,o),
(188,1050,o),
(188,1006,cs)
);
},
{
closed = 1;
nodes = (
(37,628,o),
(87,590,o),
(166,590,cs),
(248,590,o),
(298,628,o),
(298,697,cs),
(298,766,o),
(248,802,o),
(166,802,cs),
(87,802,o),
(37,766,o),
(37,697,cs)
);
}
);
width = 332;
}
);
unicode = 239;
},
{
glyphname = idotaccent;
lastChange = "2023-11-16 23:28:50 +0000";
layers = (
{
anchors = (
{
name = top;
pos = (137,1070);
}
);
layerId = "49F060A0-2273-4F54-8B81-08E0B15B03EC";
shapes = (
{
ref = i;
},
{
closed = 1;
nodes = (
(90,961,o),
(120,932,o),
(166,932,cs),
(212,932,o),
(242,961,o),
(242,1006,cs),
(242,1050,o),
(212,1078,o),
(166,1078,cs),
(120,1078,o),
(90,1050,o),
(90,1006,cs)
);
}
);
width = 335;
}
);
},
{
glyphname = igrave;
lastChange = "2023-11-16 23:28:50 +0000";
layers = (
{
anchors = (
{
name = top;
pos = (123,1077);
}
);
layerId = "49F060A0-2273-4F54-8B81-08E0B15B03EC";
shapes = (
{
ref = i;
},
{
closed = 1;
nodes = (
(45,961,o),
(26,1009,o),
(57,1050,cs),
(82,1083,o),
(117,1088,o),
(147,1071,cs),
(193,1045,o),
(198,992,o),
(263,959,cs),
(303,939,o),
(323,915,o),
(307,883,cs),
(294,858,o),
(265,856,o),
(235,860,cs),
(191,866,o),
(138,891,o),
(98,921,cs)
);
}
);
width = 335;
}
);
unicode = 236;
},
{
glyphname = imacron;
lastChange = "2023-11-16 23:28:50 +0000";
layers = (
{
anchors = (
{
name = top;
pos = (168,1080);
}
);
layerId = "49F060A0-2273-4F54-8B81-08E0B15B03EC";
shapes = (
{
ref = i;
},
{
closed = 1;
nodes = (
(-20,918,o),
(-58,951,o),
(-58,998,cs),
(-58,1043,o),
(-22,1079,o),
(106,1079,cs),
(213,1079,o),
(298,1065,o),
(320,1061,cs),
(406,1044,o),
(433,1029,o),
(433,1003,cs),
(433,977,o),
(403,957,o),
(326,941,cs),
(290,933,o),
(204,918,o),
(110,918,cs)
);
}
);
width = 335;
}
);
unicode = 299;
},
{
glyphname = iogonek;
lastChange = "2023-11-16 23:28:50 +0000";
layers = (
{
anchors = (
{
name = bottom;
pos = (146,-19);
}
);
layerId = "49F060A0-2273-4F54-8B81-08E0B15B03EC";
shapes = (
{
ref = i;
},
{
closed = 1;
nodes = (
(229,-176,o),
(240,-168,o),
(240,-156,cs),
(240,-144,o),
(229,-137,o),
(212,-137,cs),
(184,-137,o),
(168,-127,o),
(168,-107,cs),
(168,-94,o),
(181,-83,o),
(192,-74,cs),
(213,-56,o),
(223,-34,o),
(198,-10,cs),
(179,8,o),
(144,1,o),
(118,-28,cs),
(81,-70,o),
(87,-123,o),
(124,-156,cs),
(147,-177,o),
(175,-184,o),
(213,-178,c)
);
}
);
width = 335;
}
);
unicode = 303;
},
{
color = 10;
glyphname = j;
lastChange = "2023-11-16 23:28:50 +0000";
layers = (
{
guides = (
{
pos = (258,715);
}
);
layerId = "49F060A0-2273-4F54-8B81-08E0B15B03EC";
shapes = (
{
closed = 1;
nodes = (
(103,105,o),
(110,-54,o),
(87,-89,cs),
(74,-110,o),
(30,-116,o),
(-1,-116,cs),
(-32,-116,o),
(-46,-139,o),
(-46,-156,cs),
(-46,-186,o),
(-25,-196,o),
(2,-200,cs),
(18,-202,o),
(91,-209,o),
(145,-185,cs),
(252,-137,o),
(334,26,o),
(334,253,cs),
(334,433,o),
(261,532,o),
(162,532,cs),
(94,532,o),
(19,498,o),
(19,420,cs),
(19,371,o),
(48,289,o),
(68,222,cs)
);
},
{
closed = 1;
nodes = (
(32,629,o),
(82,591,o),
(161,591,cs),
(243,591,o),
(293,629,o),
(293,698,cs),
(293,767,o),
(243,803,o),
(161,803,cs),
(82,803,o),
(32,767,o),
(32,698,cs)
);
}
);
width = 350;
}
);
unicode = 106;
},
{
glyphname = jdotless;
lastChange = "2023-11-16 23:28:50 +0000";
layers = (
{
layerId = "49F060A0-2273-4F54-8B81-08E0B15B03EC";
shapes = (
{
closed = 1;
nodes = (
(86,70,o),
(92,-71,o),
(72,-103,cs),
(60,-121,o),
(21,-126,o),
(-6,-126,cs),
(-34,-126,o),
(-46,-147,o),
(-46,-162,cs),
(-46,-189,o),
(-28,-197,o),
(-4,-201,cs),
(11,-203,o),
(75,-209,o),
(123,-188,cs),
(218,-145,o),
(291,0,o),
(291,201,cs),
(291,361,o),
(226,449,o),
(138,449,cs),
(78,449,o),
(11,418,o),
(11,349,cs),
(11,306,o),
(37,233,o),
(55,173,cs)
);
},
{
closed = 1;
nodes = (
(23,535,o),
(67,501,o),
(137,501,cs),
(210,501,o),
(255,535,o),
(255,596,cs),
(255,657,o),
(210,689,o),
(137,689,cs),
(67,689,o),
(23,657,o),
(23,596,cs)
);
}
);
width = 307;
}
);
unicode = 567;
},
{
color = 10;
glyphname = k;
lastChange = "2023-11-16 23:28:50 +0000";
layers = (
{
layerId = "49F060A0-2273-4F54-8B81-08E0B15B03EC";
shapes = (
{
closed = 1;
nodes = (
(548,582,o),
(439,524,o),
(413,416,cs),
(406,385,o),
(383,317,o),
(324,352,cs),
(303,364,o),
(301,393,o),
(310,417,cs),
(331,471,o),
(406,517,o),
(406,618,cs),
(406,724,o),
(329,798,o),
(227,798,cs),
(143,798,o),
(1,728,o),
(1,532,cs),
(1,274,o),
(132,81,o),
(208,14,cs),
(233,-8,o),
(257,-23,o),
(285,-9,cs),
(313,5,o),
(320,37,o),
(310,68,cs),
(300,99,o),
(294,130,o),
(294,147,cs),
(294,167,o),
(304,192,o),
(320,203,cs),
(346,222,o),
(385,220,o),
(412,167,cs),
(435,122,o),
(494,39,o),
(508,24,cs),
(530,0,o),
(565,-34,o),
(607,-2,cs),
(632,17,o),
(659,63,o),
(605,114,cs),
(595,123,o),
(573,137,o),
(560,151,cs),
(496,216,o),
(543,249,o),
(571,265,cs),
(721,352,o),
(684,480,o),
(633,518,cs)
);
}
);
width = 677;
},
{
associatedMasterId = "49F060A0-2273-4F54-8B81-08E0B15B03EC";
layerId = "A7002D93-2047-4F5D-AC6E-23367EBD1C11";
name = "2 Nov 23 at 06:37";
shapes = (
{
closed = 1;
nodes = (
(221,-14,o),
(258,61,o),
(280,176,c),
(299,194,o),
(324,208,o),
(349,208,cs),
(410,208,o),
(419,125,o),
(419,64,cs),
(419,0,o),
(450,-14,o),
(467,-14,cs),
(522,-14,o),
(595,133,o),
(595,259,cs),
(595,351,o),
(556,393,o),
(510,405,c),
(543,444,o),
(551,488,o),
(545,526,cs),
(541,551,o),
(531,572,o),
(517,591,c),
(502,605,o),
(486,611,o),
(469,611,cs),
(457,611,o),
(446,603,o),
(439,596,cs),
(407,565,o),
(415,491,o),
(375,442,cs),
(353,415,o),
(326,407,o),
(305,407,c),
(306,435,o),
(307,464,o),
(307,501,cs),
(307,707,o),
(275,812,o),
(179,812,cs),
(83,812,o),
(45,706,o),
(45,480,cs),
(45,218,o),
(96,-14,o),
(176,-14,cs)
);
}
);
width = 693;
}
);
unicode = 107;
},
{
glyphname = kcommaaccent;
lastChange = "2023-11-16 23:28:50 +0000";
layers = (
{
anchors = (
{
name = bottom;
pos = (364,-33);
}
);
layerId = "49F060A0-2273-4F54-8B81-08E0B15B03EC";
shapes = (
{
ref = k;
},
{
closed = 1;
nodes = (
(360,-224,o),
(307,-249,o),
(263,-255,cs),
(233,-259,o),
(204,-257,o),
(191,-232,cs),
(175,-200,o),
(195,-176,o),
(235,-156,cs),
(300,-123,o),
(305,-70,o),
(351,-44,cs),
(381,-27,o),
(416,-32,o),
(441,-65,cs),
(472,-106,o),
(453,-154,o),
(400,-194,cs)
);
}
);
width = 653;
}
);
unicode = 311;
},
{
color = 10;
glyphname = l;
lastChange = "2023-11-16 23:28:50 +0000";
layers = (
{
layerId = "49F060A0-2273-4F54-8B81-08E0B15B03EC";
shapes = (
{
closed = 1;
nodes = (
(57,66,o),
(21,305,o),
(21,546,cs),
(21,694,o),
(57,814,o),
(164,814,cs),
(270,814,o),
(306,694,o),
(306,546,cs),
(306,402,o),
(286,231,o),
(260,143,cs),
(243,84,o),
(321,70,o),
(353,70,cs),
(384,70,o),
(398,47,o),
(398,30,cs),
(398,0,o),
(377,-10,o),
(350,-14,cs),
(334,-16,o),
(261,-23,o),
(207,1,c)
);
}
);
width = 384;
}
);
unicode = 108;
},
{
glyphname = lacute;
lastChange = "2023-11-16 23:28:50 +0000";
layers = (
{
anchors = (
{
name = top;
pos = (189,1071);
}
);
layerId = "49F060A0-2273-4F54-8B81-08E0B15B03EC";
shapes = (
{
ref = l;
},
{
closed = 1;
nodes = (
(195,891,o),
(142,866,o),
(98,860,cs),
(68,856,o),
(39,858,o),
(26,883,cs),
(10,915,o),
(30,939,o),
(70,959,cs),
(135,992,o),
(140,1045,o),
(186,1071,cs),
(216,1088,o),
(251,1083,o),
(276,1050,cs),
(307,1009,o),
(288,961,o),
(235,921,cs)
);
}
);
width = 327;
}
);
unicode = 314;
},
{
glyphname = lcaron;
lastChange = "2023-11-16 23:28:50 +0000";
layers = (
{
layerId = "49F060A0-2273-4F54-8B81-08E0B15B03EC";
shapes = (
{
ref = l;
},
{
closed = 1;
nodes = (
(443,812,o),
(471,785,o),
(471,723,cs),
(471,669,o),
(460,624,o),
(454,600,cs),
(439,543,o),
(426,524,o),
(404,524,cs),
(382,524,o),
(369,543,o),
(354,600,cs),
(348,624,o),
(337,669,o),
(337,723,cs),
(337,785,o),
(365,812,o),
(404,812,cs)
);
}
);
width = 462;
}
);
unicode = 318;
},
{
glyphname = lcommaaccent;
lastChange = "2023-11-16 23:28:50 +0000";
layers = (
{
layerId = "49F060A0-2273-4F54-8B81-08E0B15B03EC";
shapes = (
{
ref = l;
},
{
closed = 1;
nodes = (
(240,-223,o),
(187,-248,o),
(143,-254,cs),
(113,-258,o),
(84,-256,o),
(71,-231,cs),
(55,-199,o),
(75,-175,o),
(115,-155,cs),
(180,-122,o),
(185,-69,o),
(231,-43,cs),
(261,-26,o),
(296,-31,o),
(321,-64,cs),
(352,-105,o),
(333,-153,o),
(280,-193,cs)
);
}
);
width = 327;
}
);
unicode = 316;
},
{
glyphname = lslash;
lastChange = "2023-11-16 23:28:50 +0000";
layers = (
{
background = {
shapes = (
{
pos = (42,0);
ref = l;
}
);
};
layerId = "49F060A0-2273-4F54-8B81-08E0B15B03EC";
shapes = (
{
closed = 1;
nodes = (
(0,397,o),
(-13,366,o),
(1,344,cs),
(10,329,o),
(29,325,o),
(61,334,cs),
(70,337,o),
(74,334,o),
(76,320,cs),
(95,181,o),
(145,46,o),
(249,1,cs),
(303,-23,o),
(376,-16,o),
(392,-14,cs),
(419,-10,o),
(440,0,o),
(440,30,cs),
(440,47,o),
(426,70,o),
(395,70,cs),
(363,70,o),
(285,84,o),
(302,143,cs),
(323,216,o),
(341,345,o),
(347,471,cs),
(347,477,o),
(350,482,o),
(355,486,cs),
(426,541,o),
(431,592,o),
(410,624,cs),
(397,644,o),
(377,648,o),
(352,645,cs),
(346,644,o),
(341,648,o),
(340,653,cs),
(324,748,o),
(284,814,o),
(206,814,cs),
(99,814,o),
(63,694,o),
(63,546,cs),
(63,519,o),
(64,487,o),
(65,467,cs),
(65,464,o),
(64,461,o),
(61,458,cs)
);
}
);
width = 436;
}
);
unicode = 322;
},
{
color = 10;
glyphname = m;
lastChange = "2023-11-16 23:28:50 +0000";
layers = (
{
layerId = "49F060A0-2273-4F54-8B81-08E0B15B03EC";
shapes = (
{
closed = 1;
nodes = (
(526,591,o),
(471,610,o),
(428,610,cs),
(375,610,o),
(346,586,o),
(311,554,cs),
(296,541,o),
(291,532,o),
(281,532,cs),
(270,532,o),
(266,540,o),
(259,551,cs),
(231,593,o),
(191,613,o),
(150,613,cs),
(81,613,o),
(21,553,o),
(21,446,cs),
(21,300,o),
(52,152,o),
(79,61,cs),
(93,13,o),
(113,-15,o),
(150,-15,cs),
(193,-15,o),
(216,22,o),
(232,85,cs),
(240,117,o),
(249,156,o),
(258,197,cs),
(261,210,o),
(263,220,o),
(269,228,cs),
(281,243,o),
(296,246,o),
(309,246,cs),
(383,246,o),
(393,155,o),
(393,81,cs),
(393,8,o),
(419,-16,o),
(444,-16,cs),
(498,-16,o),
(541,64,o),
(575,199,cs),
(577,208,o),
(579,218,o),
(585,226,cs),
(597,241,o),
(612,244,o),
(625,244,cs),
(699,244,o),
(709,153,o),
(709,79,cs),
(709,6,o),
(735,-18,o),
(760,-18,cs),
(836,-18,o),
(958,141,o),
(958,358,cs),
(958,521,o),
(831,608,o),
(744,608,cs),
(691,608,o),
(662,584,o),
(627,552,cs),
(612,539,o),
(607,530,o),
(597,530,cs),
(586,530,o),
(575,539,o),
(566,548,cs)
);
}
);
width = 971;
}
);
unicode = 109;
},
{
color = 10;
glyphname = n;
lastChange = "2023-11-16 23:28:50 +0000";
layers = (
{
layerId = "49F060A0-2273-4F54-8B81-08E0B15B03EC";
shapes = (
{
closed = 1;
nodes = (
(520,-16,o),
(642,143,o),
(642,360,cs),
(642,523,o),
(515,610,o),
(428,610,cs),
(375,610,o),
(346,586,o),
(311,554,cs),
(296,541,o),
(291,532,o),
(281,532,cs),
(270,532,o),
(266,540,o),
(259,551,cs),
(231,593,o),
(191,613,o),
(150,613,cs),
(81,613,o),
(21,553,o),
(21,446,cs),
(21,300,o),
(52,152,o),
(79,61,cs),
(93,13,o),
(113,-15,o),
(150,-15,cs),
(193,-15,o),
(216,22,o),
(232,85,cs),
(240,117,o),
(249,156,o),
(259,201,cs),
(261,210,o),
(263,220,o),
(269,228,cs),
(281,243,o),
(296,246,o),
(309,246,cs),
(383,246,o),
(393,155,o),
(393,81,cs),
(393,8,o),
(419,-16,o),
(444,-16,c)
);
}
);
width = 655;
}
);
unicode = 110;
},
{
glyphname = nacute;
lastChange = "2023-11-16 23:28:50 +0000";
layers = (
{
layerId = "49F060A0-2273-4F54-8B81-08E0B15B03EC";
shapes = (
{
ref = n;
},
{
closed = 1;
nodes = (
(352,700,o),
(299,675,o),
(255,669,cs),
(225,665,o),
(196,667,o),
(183,692,cs),
(167,724,o),
(187,748,o),
(227,768,cs),
(292,801,o),
(297,854,o),
(343,880,cs),
(373,897,o),
(408,892,o),
(433,859,cs),
(464,818,o),
(445,770,o),
(392,730,cs)
);
}
);
width = 655;
}
);
unicode = 324;
},
{
glyphname = ncaron;
lastChange = "2023-11-16 23:28:50 +0000";
layers = (
{
anchors = (
{
name = top;
pos = (279,786);
}
);
layerId = "49F060A0-2273-4F54-8B81-08E0B15B03EC";
shapes = (
{
ref = n;
},
{
closed = 1;
nodes = (
(296,785,o),
(306,794,o),
(324,807,cs),
(345,822,o),
(369,840,o),
(382,850,cs),
(416,874,o),
(441,892,o),
(460,874,cs),
(475,858,o),
(461,839,o),
(443,801,cs),
(430,776,o),
(413,744,o),
(393,709,cs),
(366,661,o),
(330,631,o),
(286,631,cs),
(242,631,o),
(206,661,o),
(179,709,cs),
(159,744,o),
(142,776,o),
(129,801,cs),
(111,839,o),
(97,858,o),
(112,874,cs),
(131,892,o),
(156,874,o),
(190,850,c),
(243,811,ls),
(267,794,o),
(276,785,o),
(286,785,cs)
);
}
);
width = 659;
}
);
unicode = 328;
},
{
glyphname = ncommaaccent;
lastChange = "2023-11-16 23:28:50 +0000";
layers = (
{
anchors = (
{
name = bottom;
pos = (389,-30);
}
);
layerId = "49F060A0-2273-4F54-8B81-08E0B15B03EC";
shapes = (
{
ref = n;
},
{
closed = 1;
nodes = (
(289,-221,o),
(236,-246,o),
(192,-252,cs),
(162,-256,o),
(133,-254,o),
(120,-229,cs),
(104,-197,o),
(124,-173,o),
(164,-153,cs),
(229,-120,o),
(234,-67,o),
(280,-41,cs),
(310,-24,o),
(345,-29,o),
(370,-62,cs),
(401,-103,o),
(382,-151,o),
(329,-191,cs)
);
}
);
width = 655;
}
);
unicode = 326;
},
{
glyphname = ntilde;
lastChange = "2023-11-16 23:28:50 +0000";
layers = (
{
anchors = (
{
name = top;
pos = (323,887);
}
);
layerId = "49F060A0-2273-4F54-8B81-08E0B15B03EC";
shapes = (
{
ref = n;
},
{
closed = 1;
nodes = (
(366,667,o),
(445,649,o),
(507,687,cs),
(576,730,o),
(593,780,o),
(558,838,cs),
(515,905,o),
(485,858,o),
(421,811,cs),
(397,799,o),
(379,797,o),
(366,807,cs),
(271,882,o),
(192,900,o),
(130,861,cs),
(61,820,o),
(45,769,o),
(81,711,cs),
(101,678,o),
(127,672,o),
(161,691,cs),
(175,700,o),
(203,727,o),
(217,736,cs),
(238,749,o),
(256,751,o),
(271,741,cs)
);
}
);
width = 655;
}
);
unicode = 241;
},
{
glyphname = eng;
lastChange = "2023-11-16 23:28:50 +0000";
layers = (
{
layerId = "49F060A0-2273-4F54-8B81-08E0B15B03EC";
shapes = (
{
closed = 1;
nodes = (
(642,523,o),
(515,610,o),
(428,610,cs),
(375,610,o),
(346,586,o),
(311,554,cs),
(296,541,o),
(291,532,o),
(281,532,cs),
(270,532,o),
(266,540,o),
(259,551,cs),
(231,593,o),
(191,613,o),
(150,613,cs),
(81,613,o),
(21,553,o),
(21,446,cs),
(21,300,o),
(52,152,o),
(79,61,cs),
(93,13,o),
(113,-15,o),
(150,-15,cs),
(193,-15,o),
(216,22,o),
(232,85,cs),
(240,117,o),
(249,156,o),
(259,201,cs),
(261,210,o),
(263,220,o),
(269,228,cs),
(281,243,o),
(296,246,o),
(309,246,cs),
(383,246,o),
(390,155,o),
(394,82,cs),
(399,5,o),
(399,-64,o),
(385,-86,cs),
(372,-107,o),
(328,-113,o),
(297,-113,cs),
(266,-113,o),
(252,-136,o),
(252,-153,cs),
(252,-183,o),
(273,-193,o),
(300,-197,cs),
(316,-199,o),
(389,-206,o),
(443,-182,cs),
(550,-134,o),
(642,29,o),
(642,308,cs)
);
}
);
width = 658;
}
);
unicode = 331;
},
{
color = 10;
glyphname = o;
lastChange = "2023-11-16 23:28:50 +0000";
layers = (
{
layerId = "49F060A0-2273-4F54-8B81-08E0B15B03EC";
shapes = (
{
closed = 1;
nodes = (
(108,616,o),
(19,519,o),
(19,341,cs),
(19,127,o),
(151,-14,o),
(313,-14,cs),
(469,-14,o),
(597,126,o),
(597,339,cs),
(597,518,o),
(508,616,o),
(307,616,cs)
);
},
{
closed = 1;
nodes = (
(268,129,o),
(248,155,o),
(248,201,cs),
(248,247,o),
(268,273,o),
(309,273,cs),
(348,273,o),
(368,247,o),
(368,201,cs),
(368,155,o),
(348,129,o),
(309,129,cs)
);
}
);
width = 610;
}
);
unicode = 111;
},
{
glyphname = oacute;
lastChange = "2023-11-16 23:28:50 +0000";
layers = (
{
layerId = "49F060A0-2273-4F54-8B81-08E0B15B03EC";
shapes = (
{
ref = o;
},
{
closed = 1;
nodes = (
(331,700,o),
(278,675,o),
(234,669,cs),
(204,665,o),
(175,667,o),
(162,692,cs),
(146,724,o),
(166,748,o),
(206,768,cs),
(271,801,o),
(276,854,o),
(322,880,cs),
(352,897,o),
(387,892,o),
(412,859,cs),
(443,818,o),
(424,770,o),
(371,730,cs)
);
}
);
width = 604;
}
);
unicode = 243;
},
{
glyphname = ocircumflex;
lastChange = "2023-11-16 23:28:50 +0000";
layers = (
{
layerId = "49F060A0-2273-4F54-8B81-08E0B15B03EC";
shapes = (
{
ref = o;
},
{
closed = 1;
nodes = (
(291,730,o),
(282,721,o),
(258,704,cs),
(205,665,l),
(171,641,o),
(146,623,o),
(127,641,cs),
(112,657,o),
(126,676,o),
(144,714,cs),
(157,739,o),
(174,771,o),
(194,806,cs),
(221,854,o),
(257,884,o),
(301,884,cs),
(345,884,o),
(381,854,o),
(408,806,cs),
(428,771,o),
(445,739,o),
(458,714,cs),
(476,676,o),
(490,657,o),
(475,641,cs),
(456,623,o),
(431,641,o),
(397,665,cs),
(384,675,o),
(360,693,o),
(339,708,cs),
(321,721,o),
(311,730,o),
(301,730,cs)
);
}
);
width = 604;
}
);
unicode = 244;
},
{
glyphname = odieresis;
lastChange = "2023-11-16 23:28:50 +0000";
layers = (
{
anchors = (
{
name = top;
pos = (310,816);
}
);
layerId = "49F060A0-2273-4F54-8B81-08E0B15B03EC";
shapes = (
{
closed = 1;
nodes = (
(435,738,o),
(465,767,o),
(465,812,cs),
(465,856,o),
(435,884,o),
(389,884,cs),
(343,884,o),
(313,856,o),
(313,812,cs),
(313,767,o),
(343,738,o),
(389,738,cs)
);
},
{
ref = o;
},
{
closed = 1;
nodes = (
(239,738,o),
(269,767,o),
(269,812,cs),
(269,856,o),
(239,884,o),
(193,884,cs),
(147,884,o),
(117,856,o),
(117,812,cs),
(117,767,o),
(147,738,o),
(193,738,cs)
);
}
);
width = 604;
}
);
unicode = 246;
},
{
glyphname = ograve;
lastChange = "2023-11-16 23:28:50 +0000";
layers = (
{
layerId = "49F060A0-2273-4F54-8B81-08E0B15B03EC";
shapes = (
{
ref = o;
},
{
closed = 1;
nodes = (
(171,767,o),
(152,815,o),
(183,856,cs),
(208,889,o),
(243,894,o),
(273,877,cs),
(319,851,o),
(324,798,o),
(389,765,cs),
(429,745,o),
(449,721,o),
(433,689,cs),
(420,664,o),
(391,662,o),
(361,666,cs),
(317,672,o),
(264,697,o),
(224,727,cs)
);
}
);
width = 604;
}
);
unicode = 242;
},
{
glyphname = omacron;
lastChange = "2023-11-16 23:28:50 +0000";
layers = (
{
anchors = (
{
name = "top ";
pos = (285,877);
}
);
layerId = "49F060A0-2273-4F54-8B81-08E0B15B03EC";
shapes = (
{
ref = o;
},
{
closed = 1;
nodes = (
(104,702,o),
(66,735,o),
(66,782,cs),
(66,827,o),
(102,863,o),
(230,863,cs),
(337,863,o),
(422,849,o),
(444,845,cs),
(530,828,o),
(557,813,o),
(557,787,cs),
(557,761,o),
(527,741,o),
(450,725,cs),
(414,717,o),
(328,702,o),
(234,702,cs)
);
}
);
width = 604;
}
);
unicode = 333;
},
{
glyphname = oslash;
lastChange = "2023-11-16 23:28:50 +0000";
layers = (
{
layerId = "49F060A0-2273-4F54-8B81-08E0B15B03EC";
shapes = (
{
closed = 1;
nodes = (
(240,129,o),
(220,155,o),
(220,201,cs),
(220,247,o),
(240,273,o),
(281,273,cs),
(320,273,o),
(340,247,o),
(340,201,cs),
(340,155,o),
(320,129,o),
(281,129,cs)
);
},
{
closed = 1;
nodes = (
(48,89,o),
(40,77,o),
(33,66,c),
(10,30,o),
(10,12,o),
(27,-2,cs),
(45,-17,o),
(62,-12,o),
(94,17,c),
(101,24,o),
(108,31,o),
(114,37,cs),
(117,40,o),
(122,40,o),
(127,37,cs),
(173,4,o),
(227,-14,o),
(285,-14,cs),
(441,-14,o),
(569,126,o),
(569,339,cs),
(569,394,o),
(561,441,o),
(543,480,cs),
(541,484,o),
(541,487,o),
(546,492,cs),
(555,500,o),
(562,510,o),
(569,518,cs),
(639,604,o),
(632,657,o),
(590,691,cs),
(548,725,o),
(494,721,o),
(424,636,cs),
(418,627,o),
(410,618,o),
(404,609,cs),
(401,605,o),
(393,602,o),
(387,604,cs),
(355,613,o),
(320,616,o),
(279,616,cs),
(80,616,o),
(-9,519,o),
(-9,341,cs),
(-9,251,o),
(14,174,o),
(53,115,c),
(57,111,o),
(58,106,o),
(55,100,cs)
);
}
);
width = 613;
}
);
unicode = 248;
},
{
glyphname = otilde;
lastChange = "2023-11-16 23:28:50 +0000";
layers = (
{
anchors = (
{
name = top;
pos = (288,879);
}
);
layerId = "49F060A0-2273-4F54-8B81-08E0B15B03EC";
shapes = (
{
ref = o;
},
{
closed = 1;
nodes = (
(354,663,o),
(419,648,o),
(484,689,cs),
(544,727,o),
(564,789,o),
(534,839,cs),
(515,867,o),
(481,876,o),
(454,858,cs),
(440,849,o),
(412,822,o),
(398,812,cs),
(375,799,o),
(359,798,o),
(344,810,cs),
(242,889,o),
(177,904,o),
(111,860,cs),
(51,826,o),
(30,762,o),
(61,712,cs),
(79,685,o),
(112,675,o),
(141,694,cs),
(153,702,o),
(183,729,o),
(197,737,cs),
(218,754,o),
(233,754,o),
(250,741,cs)
);
}
);
width = 604;
}
);
unicode = 245;
},
{
glyphname = oe;
lastChange = "2023-11-16 23:28:50 +0000";
layers = (
{
layerId = "49F060A0-2273-4F54-8B81-08E0B15B03EC";
shapes = (
{
closed = 1;
nodes = (
(102,616,o),
(13,519,o),
(13,342,cs),
(13,127,o),
(145,-14,o),
(306,-14,cs),
(386,-14,o),
(455,21,o),
(507,82,c),
(556,31,o),
(633,-15,o),
(744,-15,cs),
(790,-15,o),
(839,-7,o),
(870,9,cs),
(897,23,o),
(913,45,o),
(913,63,cs),
(913,68,o),
(912,73,o),
(910,78,cs),
(905,90,o),
(888,105,o),
(867,105,cs),
(853,105,o),
(846,101,o),
(835,94,cs),
(803,73,o),
(787,60,o),
(752,60,cs),
(707,60,o),
(667,81,o),
(647,113,cs),
(645,116,o),
(643,120,o),
(643,123,cs),
(643,126,o),
(643,127,o),
(645,129,cs),
(648,132,o),
(651,133,o),
(654,133,cs),
(657,133,o),
(658,132,o),
(661,131,cs),
(689,119,o),
(711,116,o),
(735,116,cs),
(874,116,o),
(973,217,o),
(973,359,cs),
(973,485,o),
(895,616,o),
(673,616,cs),
(596,616,o),
(543,600,o),
(497,565,c),
(450,599,o),
(386,616,o),
(302,616,cs)
);
},
{
closed = 1;
nodes = (
(242,247,o),
(262,273,o),
(303,273,cs),
(342,273,o),
(362,247,o),
(362,201,cs),
(362,155,o),
(342,129,o),
(303,129,cs),
(262,129,o),
(242,155,o),
(242,201,cs)
);
},
{
closed = 0;
nodes = (
(647,113,l)
);
},
{
closed = 1;
nodes = (
(604,207,o),
(581,231,o),
(588,280,cs),
(595,326,o),
(611,345,o),
(650,343,cs),
(693,343,o),
(714,324,o),
(712,287,cs),
(710,255,o),
(681,207,o),
(642,207,cs)
);
}
);
width = 988;
}
);
unicode = 339;
},
{
color = 10;
glyphname = p;
lastChange = "2023-11-16 23:28:50 +0000";
layers = (
{
layerId = "49F060A0-2273-4F54-8B81-08E0B15B03EC";
shapes = (
{
closed = 1;
nodes = (
(474,616,o),
(439,604,o),
(412,588,cs),
(391,576,o),
(374,557,o),
(367,546,cs),
(359,533,o),
(353,527,o),
(345,527,cs),
(334,527,o),
(331,533,o),
(324,545,cs),
(296,595,o),
(246,618,o),
(195,618,cs),
(105,618,o),
(51,541,o),
(51,401,cs),
(51,213,o),
(83,18,o),
(116,-99,cs),
(135,-162,o),
(151,-198,o),
(198,-198,cs),
(246,-198,o),
(267,-160,o),
(285,-97,cs),
(294,-68,o),
(302,-34,o),
(311,3,cs),
(314,15,o),
(323,22,o),
(335,22,cs),
(344,22,o),
(354,14,o),
(369,2,cs),
(390,-15,o),
(415,-24,o),
(441,-24,cs),
(517,-24,o),
(575,31,o),
(622,89,cs),
(683,165,o),
(721,271,o),
(721,361,cs),
(721,518,o),
(639,614,o),
(509,616,cs)
);
},
{
closed = 1;
nodes = (
(347,122,o),
(324,146,o),
(331,195,cs),
(338,241,o),
(354,260,o),
(393,258,cs),
(436,258,o),
(457,239,o),
(455,202,cs),
(453,170,o),
(424,122,o),
(385,122,cs)
);
}
);
width = 741;
}
);
unicode = 112;
},
{
glyphname = thorn;
lastChange = "2023-11-16 23:28:50 +0000";
layers = (
{
layerId = "49F060A0-2273-4F54-8B81-08E0B15B03EC";
shapes = (
{
closed = 1;
nodes = (
(248,-199,o),
(269,-166,o),
(293,-99,cs),
(302,-75,o),
(316,-20,o),
(330,11,cs),
(334,20,o),
(340,26,o),
(349,26,cs),
(357,26,o),
(365,19,o),
(375,11,cs),
(393,-3,o),
(421,-13,o),
(444,-13,cs),
(499,-13,o),
(542,27,o),
(584,79,cs),
(633,139,o),
(656,224,o),
(656,295,cs),
(656,398,o),
(599,478,o),
(521,497,cs),
(475,508,o),
(424,486,o),
(403,455,cs),
(393,440,o),
(389,435,o),
(382,435,cs),
(374,435,o),
(368,439,o),
(366,449,cs),
(360,472,o),
(357,494,o),
(348,518,cs),
(321,590,o),
(262,627,o),
(199,627,c),
(108,627,o),
(30,549,o),
(30,407,cs),
(30,216,o),
(71,20,o),
(105,-99,cs),
(124,-162,o),
(150,-199,o),
(199,-199,cs)
);
},
{
closed = 1;
nodes = (
(353,122,o),
(330,146,o),
(337,195,cs),
(344,241,o),
(360,260,o),
(399,258,cs),
(442,258,o),
(463,239,o),
(461,202,cs),
(459,170,o),
(430,122,o),
(391,122,cs)
);
}
);
width = 676;
}
);
unicode = 254;
},
{
color = 10;
glyphname = q;
lastChange = "2023-11-16 23:28:50 +0000";
layers = (
{
layerId = "49F060A0-2273-4F54-8B81-08E0B15B03EC";
shapes = (
{
closed = 1;
nodes = (
(108,614,o),
(26,518,o),
(26,361,cs),
(26,271,o),
(64,165,o),
(125,89,cs),
(172,31,o),
(230,-24,o),
(306,-24,cs),
(332,-24,o),
(357,-15,o),
(378,2,cs),
(394,15,o),
(404,23,o),
(414,22,cs),
(425,21,o),
(433,14,o),
(436,3,cs),
(445,-34,o),
(453,-68,o),
(462,-97,cs),
(480,-160,o),
(501,-198,o),
(549,-198,cs),
(596,-198,o),
(612,-162,o),
(631,-99,cs),
(664,18,o),
(696,213,o),
(696,401,cs),
(696,541,o),
(642,618,o),
(552,618,cs),
(501,618,o),
(451,595,o),
(423,545,cs),
(416,533,o),
(413,527,o),
(402,527,cs),
(394,527,o),
(388,533,o),
(380,546,cs),
(373,557,o),
(356,576,o),
(335,588,cs),
(308,604,o),
(273,616,o),
(238,616,cs)
);
},
{
closed = 1;
nodes = (
(310,139,o),
(281,187,o),
(279,219,cs),
(277,256,o),
(298,275,o),
(341,275,cs),
(380,277,o),
(396,258,o),
(403,212,cs),
(410,163,o),
(387,139,o),
(349,139,cs)
);
}
);
width = 712;
}
);
unicode = 113;
},
{
color = 10;
glyphname = r;
lastChange = "2023-11-16 23:28:50 +0000";
layers = (
{
layerId = "49F060A0-2273-4F54-8B81-08E0B15B03EC";
shapes = (
{
closed = 1;
nodes = (
(402,615,o),
(354,530,o),
(309,430,cs),
(306,423,o),
(301,409,o),
(292,409,cs),
(284,409,o),
(283,416,o),
(283,430,cs),
(283,567,o),
(238,614,o),
(155,614,cs),
(86,614,o),
(26,554,o),
(26,447,cs),
(26,301,o),
(57,153,o),
(84,62,cs),
(98,14,o),
(121,-14,o),
(153,-14,cs),
(228,-14,o),
(268,152,o),
(279,200,cs),
(290,250,o),
(328,259,o),
(365,259,cs),
(383,259,o),
(401,259,o),
(414,259,cs),
(490,259,o),
(539,277,o),
(573,321,cs),
(604,361,o),
(619,412,o),
(619,461,cs),
(619,542,o),
(577,615,o),
(497,615,c)
);
}
);
width = 600;
}
);
unicode = 114;
},
{
glyphname = racute;
lastChange = "2023-11-16 23:28:50 +0000";
layers = (
{
layerId = "49F060A0-2273-4F54-8B81-08E0B15B03EC";
shapes = (
{
ref = r;
},
{
closed = 1;
nodes = (
(331,700,o),
(278,675,o),
(234,669,cs),
(204,665,o),
(175,667,o),
(162,692,cs),
(146,724,o),
(166,748,o),
(206,768,cs),
(271,801,o),
(276,854,o),
(322,880,cs),
(352,897,o),
(387,892,o),
(412,859,cs),
(443,818,o),
(424,770,o),
(371,730,cs)
);
}
);
width = 600;
}
);
unicode = 341;
},
{
glyphname = rcaron;
lastChange = "2023-11-16 23:28:50 +0000";
layers = (
{
anchors = (
{
name = top;
pos = (299,884);
}
);
layerId = "49F060A0-2273-4F54-8B81-08E0B15B03EC";
shapes = (
{
ref = r;
},
{
closed = 1;
nodes = (
(309,787,o),
(319,796,o),
(337,809,cs),
(358,824,o),
(382,842,o),
(395,852,cs),
(429,876,o),
(454,894,o),
(473,876,cs),
(488,860,o),
(474,841,o),
(456,803,cs),
(443,778,o),
(426,746,o),
(406,711,cs),
(379,663,o),
(343,633,o),
(299,633,cs),
(255,633,o),
(219,663,o),
(192,711,cs),
(172,746,o),
(155,778,o),
(142,803,cs),
(124,841,o),
(110,860,o),
(125,876,cs),
(144,894,o),
(169,876,o),
(203,852,c),
(256,813,ls),
(280,796,o),
(289,787,o),
(299,787,cs)
);
}
);
width = 600;
}
);
unicode = 345;
},
{
glyphname = rcommaaccent;
lastChange = "2023-11-16 23:28:50 +0000";
layers = (
{
anchors = (
{
name = bottom;
pos = (238,-31);
}
);
layerId = "49F060A0-2273-4F54-8B81-08E0B15B03EC";
shapes = (
{
ref = r;
},
{
closed = 1;
nodes = (
(217,-228,o),
(164,-253,o),
(120,-259,cs),
(90,-263,o),
(61,-261,o),
(48,-236,cs),
(32,-204,o),
(52,-180,o),
(92,-160,cs),
(157,-127,o),
(162,-74,o),
(208,-48,cs),
(238,-31,o),
(273,-36,o),
(298,-69,cs),
(329,-110,o),
(310,-158,o),
(257,-198,cs)
);
}
);
width = 600;
}
);
unicode = 343;
},
{
color = 10;
glyphname = s;
lastChange = "2023-11-16 23:28:50 +0000";
layers = (
{
layerId = "49F060A0-2273-4F54-8B81-08E0B15B03EC";
shapes = (
{
closed = 1;
nodes = (
(88,145,o),
(13,239,o),
(13,350,cs),
(13,524,o),
(187,602,o),
(297,602,cs),
(448,602,o),
(547,540,o),
(547,435,cs),
(547,371,o),
(508,319,o),
(439,319,cs),
(388,319,o),
(350,345,o),
(294,346,cs),
(249,346,o),
(228,326,o),
(228,299,cs),
(228,272,o),
(249,251,o),
(294,251,cs),
(421,252,o),
(485,208,o),
(485,122,cs),
(485,31,o),
(396,-18,o),
(264,-17,cs),
(177,-16,o),
(140,-7,o),
(113,6,cs),
(67,27,o),
(57,53,o),
(65,72,cs),
(72,91,o),
(94,112,o),
(129,94,cs),
(173,72,o),
(231,67,o),
(268,69,cs),
(330,72,o),
(347,87,o),
(347,110,cs),
(347,127,o),
(330,145,o),
(289,145,c)
);
}
);
width = 565;
}
);
unicode = 115;
},
{
glyphname = sacute;
lastChange = "2023-11-16 23:28:50 +0000";
layers = (
{
anchors = (
{
name = top;
pos = (323,886);
}
);
layerId = "49F060A0-2273-4F54-8B81-08E0B15B03EC";
shapes = (
{
ref = s;
},
{
closed = 1;
nodes = (
(333,665,o),
(280,640,o),
(236,634,cs),
(206,630,o),
(177,632,o),
(164,657,cs),
(148,689,o),
(168,713,o),
(208,733,cs),
(273,766,o),
(278,819,o),
(324,845,cs),
(354,862,o),
(389,857,o),
(414,824,cs),
(445,783,o),
(426,735,o),
(373,695,cs)
);
}
);
width = 565;
}
);
unicode = 347;
},
{
glyphname = scaron;
lastChange = "2023-11-16 23:28:50 +0000";
layers = (
{
anchors = (
{
name = top;
pos = (293,884);
}
);
layerId = "49F060A0-2273-4F54-8B81-08E0B15B03EC";
shapes = (
{
ref = s;
},
{
closed = 1;
nodes = (
(303,787,o),
(313,796,o),
(331,809,cs),
(352,824,o),
(376,842,o),
(389,852,cs),
(423,876,o),
(448,894,o),
(467,876,cs),
(482,860,o),
(468,841,o),
(450,803,cs),
(437,778,o),
(420,746,o),
(400,711,cs),
(373,663,o),
(337,633,o),
(293,633,cs),
(249,633,o),
(213,663,o),
(186,711,cs),
(166,746,o),
(149,778,o),
(136,803,cs),
(118,841,o),
(104,860,o),
(119,876,cs),
(138,894,o),
(163,876,o),
(197,852,c),
(250,813,ls),
(274,796,o),
(283,787,o),
(293,787,cs)
);
}
);
width = 565;
}
);
unicode = 353;
},
{
glyphname = scedilla;
lastChange = "2023-11-16 23:28:50 +0000";
layers = (
{
layerId = "49F060A0-2273-4F54-8B81-08E0B15B03EC";
shapes = (
{
ref = s;
},
{
closed = 1;
nodes = (
(327,-107,o),
(326,-94,o),
(322,-82,cs),
(306,-32,o),
(252,-8,o),
(224,-26,cs),
(214,-33,o),
(201,-46,o),
(201,-66,cs),
(201,-81,o),
(209,-89,o),
(219,-94,cs),
(230,-100,o),
(243,-102,o),
(252,-108,cs),
(257,-112,o),
(261,-118,o),
(261,-126,cs),
(261,-136,o),
(250,-144,o),
(225,-144,cs),
(212,-144,o),
(204,-149,o),
(204,-160,cs),
(204,-174,o),
(216,-177,o),
(236,-177,cs),
(253,-177,o),
(274,-175,o),
(290,-169,cs),
(312,-160,o),
(327,-144,o),
(327,-115,c)
);
}
);
width = 565;
}
);
unicode = 351;
},
{
glyphname = scommaaccent;
lastChange = "2023-11-16 23:28:50 +0000";
layers = (
{
anchors = (
{
name = bottom;
pos = (438,-103);
}
);
layerId = "49F060A0-2273-4F54-8B81-08E0B15B03EC";
shapes = (
{
ref = s;
},
{
closed = 1;
nodes = (
(256,-223,o),
(203,-248,o),
(159,-254,cs),
(129,-258,o),
(100,-256,o),
(87,-231,cs),
(71,-199,o),
(91,-175,o),
(131,-155,cs),
(196,-122,o),
(201,-69,o),
(247,-43,cs),
(277,-26,o),
(312,-31,o),
(337,-64,cs),
(368,-105,o),
(349,-153,o),
(296,-193,cs)
);
}
);
width = 565;
}
);
unicode = 537;
},
{
glyphname = germandbls;
lastChange = "2023-11-16 23:28:50 +0000";
layers = (
{
layerId = "49F060A0-2273-4F54-8B81-08E0B15B03EC";
shapes = (
{
closed = 1;
nodes = (
(329,66,o),
(358,66,o),
(304,66,c),
(271,66,o),
(253,48,o),
(253,25,cs),
(253,1,o),
(271,-16,o),
(304,-16,c),
(351,-16,o),
(329,-16,o),
(361,-16,c),
(416,-16,o),
(463,-16,o),
(493,3,cs),
(526,25,o),
(532,65,o),
(532,101,cs),
(532,151,o),
(514,188,o),
(476,191,c),
(469,191,o),
(469,198,o),
(476,198,c),
(547,198,o),
(549,341,o),
(549,401,cs),
(549,500,o),
(527,610,o),
(358,610,cs),
(258,610,o),
(267,609,o),
(145,609,cs),
(61,609,o),
(2,560,o),
(2,421,cs),
(2,321,o),
(32,142,o),
(59,58,cs),
(75,6,o),
(93,-18,o),
(129,-18,cs),
(168,-18,o),
(190,12,o),
(202,58,cs),
(220,132,o),
(214,245,o),
(222,294,cs),
(237,377,o),
(310,377,o),
(350,377,cs),
(388,377,o),
(417,368,o),
(417,326,cs),
(417,307,o),
(408,293,o),
(389,284,c),
(354,265,o),
(338,242,o),
(338,208,c),
(338,183,o),
(354,164,o),
(393,134,c),
(402,127,o),
(408,119,o),
(408,109,c),
(408,84,o),
(407,66,o),
(358,66,c)
);
}
);
width = 562;
}
);
unicode = 223;
},
{
color = 10;
glyphname = t;
lastChange = "2023-11-16 23:28:50 +0000";
layers = (
{
layerId = "49F060A0-2273-4F54-8B81-08E0B15B03EC";
shapes = (
{
closed = 1;
nodes = (
(391,603,o),
(403,594,o),
(417,594,cs),
(431,594,o),
(436,594,o),
(453,594,cs),
(497,594,o),
(519,571,o),
(519,541,cs),
(519,511,o),
(496,480,o),
(453,483,cs),
(389,488,o),
(389,488,o),
(374,488,cs),
(361,488,o),
(351,481,o),
(346,469,cs),
(340,456,o),
(335,444,o),
(330,432,cs),
(203,130,o),
(322,99,o),
(370,99,cs),
(398,99,o),
(426,100,o),
(447,100,cs),
(482,100,o),
(503,77,o),
(503,50,cs),
(503,-3,o),
(410,-15,o),
(364,-14,cs),
(309,-13,o),
(267,-3,o),
(231,20,cs),
(116,95,o),
(16,275,o),
(16,494,cs),
(16,711,o),
(129,811,o),
(246,811,cs),
(327,811,o),
(406,759,o),
(406,671,cs),
(406,644,o),
(399,626,o),
(395,615,cs)
);
}
);
width = 505;
}
);
unicode = 116;
},
{
glyphname = tcaron;
lastChange = "2023-11-16 23:28:50 +0000";
layers = (
{
anchors = (
{
name = top;
pos = (569,811);
}
);
layerId = "49F060A0-2273-4F54-8B81-08E0B15B03EC";
shapes = (
{
ref = t;
},
{
closed = 1;
nodes = (
(550,655,o),
(516,654,o),
(516,626,cs),
(516,594,o),
(554,585,o),
(577,585,cs),
(647,585,o),
(705,635,o),
(705,715,cs),
(705,794,o),
(667,811,o),
(634,811,cs),
(607,811,o),
(583,795,o),
(583,764,cs),
(583,752,o),
(589,722,o),
(589,709,cs),
(589,692,o),
(581,682,o),
(571,673,cs)
);
}
);
width = 706;
}
);
unicode = 357;
},
{
glyphname = tcommaaccent;
lastChange = "2023-11-16 23:28:50 +0000";
layers = (
{
anchors = (
{
name = bottom;
pos = (257,-38);
}
);
layerId = "49F060A0-2273-4F54-8B81-08E0B15B03EC";
shapes = (
{
ref = t;
},
{
closed = 1;
nodes = (
(316,-226,o),
(263,-251,o),
(219,-257,cs),
(189,-261,o),
(160,-259,o),
(147,-234,cs),
(131,-202,o),
(151,-178,o),
(191,-158,cs),
(256,-125,o),
(261,-72,o),
(307,-46,cs),
(337,-29,o),
(372,-34,o),
(397,-67,cs),
(428,-108,o),
(409,-156,o),
(356,-196,cs)
);
}
);
width = 505;
}
);
unicode = 539;
},
{
color = 10;
glyphname = u;
lastChange = "2023-11-16 23:28:50 +0000";
layers = (
{
guides = (
{
pos = (-380,175);
}
);
layerId = "49F060A0-2273-4F54-8B81-08E0B15B03EC";
shapes = (
{
closed = 1;
nodes = (
(96,615,o),
(13,519,o),
(13,372,cs),
(13,274,o),
(50,168,o),
(112,92,cs),
(159,34,o),
(219,-11,o),
(287,-11,cs),
(340,-11,o),
(387,12,o),
(418,53,cs),
(424,61,o),
(431,68,o),
(441,68,cs),
(452,68,o),
(460,62,o),
(463,53,cs),
(476,13,o),
(496,-11,o),
(531,-11,cs),
(568,-11,o),
(587,16,o),
(602,65,cs),
(621,126,o),
(660,304,o),
(660,423,cs),
(660,556,o),
(612,613,o),
(533,613,cs),
(452,613,o),
(406,554,o),
(406,421,cs),
(406,342,o),
(422,258,o),
(435,191,cs),
(436,188,o),
(436,185,o),
(436,180,cs),
(436,176,o),
(436,172,o),
(434,167,cs),
(425,142,o),
(400,133,o),
(381,133,cs),
(340,133,o),
(298,173,o),
(298,274,cs),
(298,370,o),
(336,462,o),
(336,516,cs),
(336,579,o),
(283,615,o),
(221,615,cs)
);
}
);
width = 681;
}
);
unicode = 117;
},
{
glyphname = uacute;
lastChange = "2023-11-16 23:28:50 +0000";
layers = (
{
layerId = "49F060A0-2273-4F54-8B81-08E0B15B03EC";
shapes = (
{
ref = u;
},
{
closed = 1;
nodes = (
(400,700,o),
(347,675,o),
(303,669,cs),
(273,665,o),
(244,667,o),
(231,692,cs),
(215,724,o),
(235,748,o),
(275,768,cs),
(340,801,o),
(345,854,o),
(391,880,cs),
(421,897,o),
(456,892,o),
(481,859,cs),
(512,818,o),
(493,770,o),
(440,730,cs)
);
}
);
width = 681;
}
);
unicode = 250;
},
{
glyphname = ubreve;
lastChange = "2023-11-16 23:28:50 +0000";
layers = (
{
anchors = (
{
name = top;
pos = (335,884);
}
);
layerId = "49F060A0-2273-4F54-8B81-08E0B15B03EC";
shapes = (
{
ref = u;
},
{
closed = 1;
nodes = (
(228,641,o),
(148,677,o),
(120,744,cs),
(95,806,o),
(114,863,o),
(166,880,cs),
(199,892,o),
(231,876,o),
(242,845,cs),
(248,828,o),
(250,802,o),
(256,780,cs),
(273,719,o),
(310,707,o),
(359,707,cs),
(407,707,o),
(443,719,o),
(460,780,cs),
(468,810,o),
(470,830,o),
(474,845,cs),
(484,876,o),
(515,891,o),
(549,880,cs),
(602,863,o),
(621,806,o),
(596,743,cs),
(568,675,o),
(484,641,o),
(359,641,cs)
);
}
);
width = 681;
}
);
unicode = 365;
},
{
glyphname = ucircumflex;
lastChange = "2023-11-16 23:28:50 +0000";
layers = (
{
anchors = (
{
name = top;
pos = (343,884);
}
);
layerId = "49F060A0-2273-4F54-8B81-08E0B15B03EC";
shapes = (
{
ref = u;
},
{
closed = 1;
nodes = (
(330,730,o),
(321,721,o),
(297,704,cs),
(244,665,l),
(210,641,o),
(185,623,o),
(166,641,cs),
(151,657,o),
(165,676,o),
(183,714,cs),
(196,739,o),
(213,771,o),
(233,806,cs),
(260,854,o),
(296,884,o),
(340,884,cs),
(384,884,o),
(420,854,o),
(447,806,cs),
(467,771,o),
(484,739,o),
(497,714,cs),
(515,676,o),
(529,657,o),
(514,641,cs),
(495,623,o),
(470,641,o),
(436,665,cs),
(423,675,o),
(399,693,o),
(378,708,cs),
(360,721,o),
(350,730,o),
(340,730,cs)
);
}
);
width = 681;
}
);
unicode = 251;
},
{
glyphname = udieresis;
lastChange = "2023-11-16 23:28:50 +0000";
layers = (
{
layerId = "49F060A0-2273-4F54-8B81-08E0B15B03EC";
shapes = (
{
ref = u;
},
{
closed = 1;
nodes = (
(187,693,o),
(217,664,o),
(263,664,cs),
(309,664,o),
(339,693,o),
(339,738,cs),
(339,782,o),
(309,810,o),
(263,810,cs),
(217,810,o),
(187,782,o),
(187,738,cs)
);
},
{
closed = 1;
nodes = (
(383,693,o),
(413,664,o),
(459,664,cs),
(505,664,o),
(535,693,o),
(535,738,cs),
(535,782,o),
(505,810,o),
(459,810,cs),
(413,810,o),
(383,782,o),
(383,738,cs)
);
}
);
width = 681;
}
);
unicode = 252;
},
{
glyphname = ugrave;
lastChange = "2023-11-16 23:28:50 +0000";
layers = (
{
anchors = (
{
name = top;
pos = (545,853);
}
);
layerId = "49F060A0-2273-4F54-8B81-08E0B15B03EC";
shapes = (
{
ref = u;
},
{
closed = 1;
nodes = (
(228,770,o),
(209,818,o),
(240,859,cs),
(265,892,o),
(300,897,o),
(330,880,cs),
(376,854,o),
(381,801,o),
(446,768,cs),
(486,748,o),
(506,724,o),
(490,692,cs),
(477,667,o),
(448,665,o),
(418,669,cs),
(374,675,o),
(321,700,o),
(281,730,cs)
);
}
);
width = 681;
}
);
unicode = 249;
},
{
glyphname = uhungarumlaut;
lastChange = "2023-11-16 23:28:50 +0000";
layers = (
{
anchors = (
{
name = top;
pos = (355,884);
}
);
layerId = "49F060A0-2273-4F54-8B81-08E0B15B03EC";
shapes = (
{
ref = u;
},
{
closed = 1;
nodes = (
(382,840,o),
(385,801,o),
(343,755,cs),
(307,715,o),
(269,689,o),
(248,675,cs),
(199,643,o),
(177,638,o),
(160,652,cs),
(144,667,o),
(147,690,o),
(174,742,cs),
(186,764,o),
(208,805,o),
(244,845,cs),
(285,891,o),
(324,892,o),
(353,866,cs)
);
},
{
closed = 1;
nodes = (
(588,840,o),
(590,801,o),
(549,755,cs),
(513,715,o),
(474,689,o),
(454,675,cs),
(405,643,o),
(382,637,o),
(366,652,cs),
(349,667,o),
(353,689,o),
(380,742,cs),
(391,764,o),
(413,804,o),
(449,845,cs),
(491,891,o),
(530,892,o),
(559,866,cs)
);
}
);
width = 681;
}
);
unicode = 369;
},
{
glyphname = umacron;
lastChange = "2023-11-16 23:28:50 +0000";
layers = (
{
anchors = (
{
name = top;
pos = (311,830);
}
);
layerId = "49F060A0-2273-4F54-8B81-08E0B15B03EC";
shapes = (
{
ref = u;
},
{
closed = 1;
nodes = (
(158,666,o),
(120,699,o),
(120,746,cs),
(120,791,o),
(156,827,o),
(284,827,cs),
(391,827,o),
(476,813,o),
(498,809,cs),
(584,792,o),
(611,777,o),
(611,751,cs),
(611,725,o),
(581,705,o),
(504,689,cs),
(468,681,o),
(382,666,o),
(288,666,cs)
);
}
);
width = 681;
}
);
unicode = 363;
},
{
glyphname = uogonek;
lastChange = "2023-11-16 23:28:50 +0000";
layers = (
{
layerId = "49F060A0-2273-4F54-8B81-08E0B15B03EC";
shapes = (
{
ref = u;
},
{
closed = 1;
nodes = (
(650,-129,o),
(662,-114,o),
(657,-97,cs),
(652,-81,o),
(634,-75,o),
(611,-81,cs),
(573,-92,o),
(548,-86,o),
(540,-58,cs),
(533,-35,o),
(546,-20,o),
(558,-3,cs),
(580,29,o),
(586,64,o),
(541,88,cs),
(508,105,o),
(463,81,o),
(439,31,cs),
(405,-42,o),
(434,-112,o),
(497,-142,cs),
(537,-163,o),
(578,-161,o),
(629,-139,c)
);
}
);
width = 659;
}
);
unicode = 371;
},
{
glyphname = uring;
lastChange = "2023-11-16 23:28:50 +0000";
layers = (
{
anchors = (
{
name = top;
pos = (370,863);
}
);
layerId = "49F060A0-2273-4F54-8B81-08E0B15B03EC";
shapes = (
{
ref = u;
},
{
closed = 1;
nodes = (
(429,648,o),
(482,699,o),
(482,766,cs),
(482,830,o),
(429,881,o),
(368,881,cs),
(307,881,o),
(251,830,o),
(251,765,cs),
(251,699,o),
(307,648,o),
(366,648,cs)
);
},
{
closed = 1;
nodes = (
(341,682,o),
(324,705,o),
(324,735,cs),
(324,766,o),
(341,789,o),
(366,789,cs),
(392,789,o),
(409,766,o),
(409,735,cs),
(409,705,o),
(392,682,o),
(366,682,cs)
);
}
);
width = 681;
}
);
unicode = 367;
},
{
color = 10;
glyphname = v;
lastChange = "2023-11-16 23:28:50 +0000";
layers = (
{
layerId = "49F060A0-2273-4F54-8B81-08E0B15B03EC";
shapes = (
{
closed = 1;
nodes = (
(430,-14,o),
(525,27,o),
(582,88,cs),
(649,159,o),
(717,260,o),
(717,368,cs),
(717,515,o),
(634,612,o),
(509,612,cs),
(447,612,o),
(394,575,o),
(394,512,cs),
(394,458,o),
(432,366,o),
(432,270,cs),
(432,159,o),
(390,138,o),
(365,138,cs),
(340,138,o),
(298,159,o),
(298,270,cs),
(298,366,o),
(336,458,o),
(336,512,cs),
(336,575,o),
(282,612,o),
(220,612,cs),
(95,612,o),
(12,515,o),
(12,368,cs),
(12,260,o),
(80,159,o),
(147,88,cs),
(204,27,o),
(300,-14,o),
(365,-14,cs)
);
}
);
width = 730;
}
);
unicode = 118;
},
{
color = 10;
glyphname = w;
lastChange = "2023-11-17 19:35:24 +0000";
layers = (
{
layerId = "49F060A0-2273-4F54-8B81-08E0B15B03EC";
shapes = (
{
closed = 1;
nodes = (
(493,331,o),
(485,301,o),
(484,290,cs),
(482,269,o),
(483,240,o),
(483,210,cs),
(483,195,o),
(479,73,o),
(476,52,cs),
(470,9,o),
(444,-10,o),
(375,-10,cs),
(194,-10,o),
(25,197,o),
(25,371,cs),
(25,535,o),
(120,616,o),
(239,616,cs),
(329,616,o),
(383,568,o),
(383,478,cs),
(383,408,o),
(344,351,o),
(329,264,cs),
(308,140,o),
(319,68,o),
(368,68,cs),
(422,68,o),
(417,165,o),
(422,288,cs),
(426,413,o),
(458,457,o),
(522,457,cs),
(586,457,o),
(618,413,o),
(622,288,cs),
(627,165,o),
(622,68,o),
(676,68,cs),
(725,68,o),
(737,140,o),
(715,264,cs),
(700,350,o),
(661,408,o),
(661,478,cs),
(661,568,o),
(715,616,o),
(805,616,cs),
(924,616,o),
(1019,535,o),
(1019,371,cs),
(1019,197,o),
(850,-10,o),
(669,-10,cs),
(600,-10,o),
(574,9,o),
(568,52,cs),
(565,73,o),
(561,195,o),
(561,210,cs),
(561,240,o),
(562,268,o),
(560,290,cs),
(559,301,o),
(551,331,o),
(522,331,cs)
);
}
);
width = 1044;
}
);
unicode = 119;
},
{
glyphname = wacute;
lastChange = "2023-11-16 23:28:50 +0000";
layers = (
{
layerId = "49F060A0-2273-4F54-8B81-08E0B15B03EC";
shapes = (
{
ref = w;
},
{
closed = 1;
nodes = (
(568,700,o),
(515,675,o),
(471,669,cs),
(441,665,o),
(412,667,o),
(399,692,cs),
(383,724,o),
(403,748,o),
(443,768,cs),
(508,801,o),
(513,854,o),
(559,880,cs),
(589,897,o),
(624,892,o),
(649,859,cs),
(680,818,o),
(661,770,o),
(608,730,cs)
);
}
);
width = 1066;
}
);
unicode = 7811;
},
{
glyphname = wcircumflex;
lastChange = "2023-11-16 23:28:50 +0000";
layers = (
{
anchors = (
{
name = top;
pos = (533,881);
}
);
layerId = "49F060A0-2273-4F54-8B81-08E0B15B03EC";
shapes = (
{
ref = w;
},
{
closed = 1;
nodes = (
(519,731,o),
(510,722,o),
(486,705,cs),
(433,666,l),
(399,642,o),
(374,624,o),
(355,642,cs),
(340,658,o),
(354,677,o),
(372,715,cs),
(385,740,o),
(402,772,o),
(422,807,cs),
(449,855,o),
(485,885,o),
(529,885,cs),
(573,885,o),
(609,855,o),
(636,807,cs),
(656,772,o),
(673,740,o),
(686,715,cs),
(704,677,o),
(718,658,o),
(703,642,cs),
(684,624,o),
(659,642,o),
(625,666,cs),
(612,676,o),
(588,694,o),
(567,709,cs),
(549,722,o),
(539,731,o),
(529,731,cs)
);
}
);
width = 1066;
}
);
unicode = 373;
},
{
glyphname = wdieresis;
lastChange = "2023-11-16 23:28:50 +0000";
layers = (
{
anchors = (
{
name = top;
pos = (526,809);
}
);
layerId = "49F060A0-2273-4F54-8B81-08E0B15B03EC";
shapes = (
{
ref = w;
},
{
closed = 1;
nodes = (
(352,694,o),
(382,665,o),
(428,665,cs),
(474,665,o),
(504,694,o),
(504,739,cs),
(504,783,o),
(474,811,o),
(428,811,cs),
(382,811,o),
(352,783,o),
(352,739,cs)
);
},
{
closed = 1;
nodes = (
(548,694,o),
(578,665,o),
(624,665,cs),
(670,665,o),
(700,694,o),
(700,739,cs),
(700,783,o),
(670,811,o),
(624,811,cs),
(578,811,o),
(548,783,o),
(548,739,cs)
);
}
);
width = 1066;
}
);
unicode = 7813;
},
{
glyphname = wgrave;
lastChange = "2023-11-16 23:28:50 +0000";
layers = (
{
layerId = "49F060A0-2273-4F54-8B81-08E0B15B03EC";
shapes = (
{
ref = w;
},
{
closed = 1;
nodes = (
(418,770,o),
(399,818,o),
(430,859,cs),
(455,892,o),
(490,897,o),
(520,880,cs),
(566,854,o),
(571,801,o),
(636,768,cs),
(676,748,o),
(696,724,o),
(680,692,cs),
(667,667,o),
(638,665,o),
(608,669,cs),
(564,675,o),
(511,700,o),
(471,730,cs)
);
}
);
width = 1066;
}
);
unicode = 7809;
},
{
color = 10;
glyphname = x;
lastChange = "2023-11-16 23:28:50 +0000";
layers = (
{
layerId = "49F060A0-2273-4F54-8B81-08E0B15B03EC";
shapes = (
{
closed = 0;
nodes = (
(-1246,592,l)
);
},
{
closed = 0;
nodes = (
(392,127,l)
);
},
{
closed = 1;
nodes = (
(385,134,o),
(389,132,o),
(392,127,cs),
(411,98,o),
(420,89,o),
(442,69,cs),
(497,19,o),
(567,-7,o),
(631,-14,cs),
(667,-19,o),
(687,-14,o),
(696,1,cs),
(705,15,o),
(705,36,o),
(682,55,cs),
(655,77,o),
(603,92,o),
(555,144,cs),
(534,166,o),
(514,196,o),
(514,230,cs),
(514,267,o),
(538,306,o),
(603,320,cs),
(675,337,o),
(726,386,o),
(726,463,cs),
(726,556,o),
(652,615,o),
(576,615,cs),
(514,615,o),
(461,575,o),
(434,538,cs),
(427,529,o),
(415,510,o),
(409,492,cs),
(403,477,o),
(403,470,o),
(402,462,cs),
(401,450,o),
(392,443,o),
(381,443,cs),
(370,443,o),
(361,450,o),
(360,462,cs),
(360,470,o),
(359,477,o),
(354,492,cs),
(347,510,o),
(335,529,o),
(328,538,cs),
(301,575,o),
(248,615,o),
(186,615,cs),
(111,615,o),
(36,556,o),
(36,463,cs),
(36,386,o),
(87,337,o),
(159,320,cs),
(225,306,o),
(248,267,o),
(248,230,cs),
(248,196,o),
(228,166,o),
(208,144,cs),
(159,92,o),
(107,77,o),
(80,55,cs),
(57,36,o),
(57,15,o),
(66,1,cs),
(76,-14,o),
(95,-19,o),
(132,-14,cs),
(195,-7,o),
(265,19,o),
(321,69,cs),
(342,89,o),
(351,98,o),
(370,127,cs),
(373,132,o),
(377,134,o),
(381,134,cs)
);
}
);
width = 762;
}
);
unicode = 120;
},
{
color = 10;
glyphname = y;
lastChange = "2023-11-16 23:28:50 +0000";
layers = (
{
layerId = "49F060A0-2273-4F54-8B81-08E0B15B03EC";
shapes = (
{
closed = 1;
nodes = (
(532,614,ls),
(451,614,o),
(405,549,o),
(405,428,cs),
(405,331,o),
(435,188,o),
(435,179,cs),
(435,175,o),
(435,171,o),
(433,166,cs),
(424,141,o),
(399,132,o),
(380,132,cs),
(339,132,o),
(297,172,o),
(297,273,cs),
(297,369,o),
(335,461,o),
(335,515,cs),
(335,574,o),
(290,614,o),
(215,614,cs),
(96,614,o),
(13,513,o),
(13,367,cs),
(13,271,o),
(49,168,o),
(112,89,cs),
(160,29,o),
(219,-11,o),
(292,-11,cs),
(359,-11,o),
(394,23,o),
(415,50,cs),
(422,58,o),
(425,65,o),
(436,65,cs),
(446,65,o),
(455,59,o),
(457,45,cs),
(458,36,o),
(459,21,o),
(459,10,cs),
(459,-17,o),
(453,-38,o),
(439,-53,cs),
(424,-69,o),
(404,-76,o),
(387,-76,cs),
(378,-76,o),
(374,-74,o),
(371,-73,cs),
(365,-71,o),
(355,-68,o),
(345,-68,cs),
(318,-68,o),
(298,-91,o),
(298,-118,cs),
(298,-137,o),
(308,-151,o),
(332,-169,cs),
(352,-184,o),
(378,-199,o),
(423,-199,cs),
(629,-199,o),
(675,117,o),
(675,332,cs),
(675,505,o),
(645,614,o),
(532,614,cs),
(531,614,l)
);
}
);
width = 696;
}
);
unicode = 121;
},
{
glyphname = yacute;
lastChange = "2023-11-16 23:28:50 +0000";
layers = (
{
layerId = "49F060A0-2273-4F54-8B81-08E0B15B03EC";
shapes = (
{
ref = y;
},
{
closed = 1;
nodes = (
(417,699,o),
(364,674,o),
(320,668,cs),
(290,664,o),
(261,666,o),
(248,691,cs),
(232,723,o),
(252,747,o),
(292,767,cs),
(357,800,o),
(362,853,o),
(408,879,cs),
(438,896,o),
(473,891,o),
(498,858,cs),
(529,817,o),
(510,769,o),
(457,729,cs)
);
}
);
width = 696;
}
);
unicode = 253;
},
{
glyphname = ycircumflex;
lastChange = "2023-11-16 23:28:50 +0000";
layers = (
{
anchors = (
{
name = top;
pos = (365,885);
}
);
layerId = "49F060A0-2273-4F54-8B81-08E0B15B03EC";
shapes = (
{
ref = y;
},
{
closed = 1;
nodes = (
(356,730,o),
(347,721,o),
(323,704,cs),
(270,665,l),
(236,641,o),
(211,623,o),
(192,641,cs),
(177,657,o),
(191,676,o),
(209,714,cs),
(222,739,o),
(239,771,o),
(259,806,cs),
(286,854,o),
(322,884,o),
(366,884,cs),
(410,884,o),
(446,854,o),
(473,806,cs),
(493,771,o),
(510,739,o),
(523,714,cs),
(541,676,o),
(555,657,o),
(540,641,cs),
(521,623,o),
(496,641,o),
(462,665,cs),
(449,675,o),
(425,693,o),
(404,708,cs),
(386,721,o),
(376,730,o),
(366,730,cs)
);
}
);
width = 696;
}
);
unicode = 375;
},
{
glyphname = ydieresis;
lastChange = "2023-11-16 23:28:50 +0000";
layers = (
{
anchors = (
{
name = top;
pos = (366,811);
}
);
layerId = "49F060A0-2273-4F54-8B81-08E0B15B03EC";
shapes = (
{
ref = y;
},
{
closed = 1;
nodes = (
(192,692,o),
(222,663,o),
(268,663,cs),
(314,663,o),
(344,692,o),
(344,737,cs),
(344,781,o),
(314,809,o),
(268,809,cs),
(222,809,o),
(192,781,o),
(192,737,cs)
);
},
{
closed = 1;
nodes = (
(388,692,o),
(418,663,o),
(464,663,cs),
(510,663,o),
(540,692,o),
(540,737,cs),
(540,781,o),
(510,809,o),
(464,809,cs),
(418,809,o),
(388,781,o),
(388,737,cs)
);
}
);
width = 696;
}
);
unicode = 255;
},
{
glyphname = ygrave;
lastChange = "2023-11-16 23:28:50 +0000";
layers = (
{
layerId = "49F060A0-2273-4F54-8B81-08E0B15B03EC";
shapes = (
{
ref = y;
},
{
closed = 1;
nodes = (
(239,770,o),
(220,818,o),
(251,859,cs),
(276,892,o),
(311,897,o),
(341,880,cs),
(387,854,o),
(392,801,o),
(457,768,cs),
(497,748,o),
(517,724,o),
(501,692,cs),
(488,667,o),
(459,665,o),
(429,669,cs),
(385,675,o),
(332,700,o),
(292,730,cs)
);
}
);
width = 696;
}
);
unicode = 7923;
},
{
color = 10;
glyphname = z;
lastChange = "2023-11-16 23:28:50 +0000";
layers = (
{
layerId = "49F060A0-2273-4F54-8B81-08E0B15B03EC";
shapes = (
{
closed = 1;
nodes = (
(252,64,o),
(252,79,cs),
(252,87,o),
(258,91,o),
(270,97,cs),
(368,143,o),
(429,182,o),
(483,262,cs),
(515,309,o),
(524,368,o),
(524,406,cs),
(524,521,o),
(441,614,o),
(260,614,cs),
(108,614,o),
(1,549,o),
(1,442,cs),
(1,376,o),
(42,323,o),
(110,323,cs),
(159,323,o),
(213,351,o),
(262,351,cs),
(306,351,o),
(332,329,o),
(332,294,cs),
(332,274,o),
(324,262,o),
(311,248,cs),
(291,227,o),
(274,218,o),
(247,203,cs),
(114,129,o),
(96,102,o),
(96,68,cs),
(96,-5,o),
(178,-16,o),
(279,-16,cs),
(354,-16,o),
(387,-10,o),
(399,-7,cs),
(422,-1,o),
(438,10,o),
(438,31,cs),
(438,54,o),
(420,70,o),
(387,70,cs),
(375,70,o),
(332,68,o),
(319,67,cs),
(307,67,o)
);
}
);
width = 525;
}
);
unicode = 122;
},
{
glyphname = zacute;
lastChange = "2023-11-16 23:28:50 +0000";
layers = (
{
anchors = (
{
name = top;
pos = (420,859);
}
);
layerId = "49F060A0-2273-4F54-8B81-08E0B15B03EC";
shapes = (
{
ref = z;
},
{
closed = 1;
nodes = (
(305,700,o),
(252,675,o),
(208,669,cs),
(178,665,o),
(149,667,o),
(136,692,cs),
(120,724,o),
(140,748,o),
(180,768,cs),
(245,801,o),
(250,854,o),
(296,880,cs),
(326,897,o),
(361,892,o),
(386,859,cs),
(417,818,o),
(398,770,o),
(345,730,cs)
);
}
);
width = 525;
}
);
unicode = 378;
},
{
glyphname = zcaron;
lastChange = "2023-11-16 23:28:50 +0000";
layers = (
{
anchors = (
{
name = top;
pos = (264,878);
}
);
layerId = "49F060A0-2273-4F54-8B81-08E0B15B03EC";
shapes = (
{
ref = z;
},
{
closed = 1;
nodes = (
(275,788,o),
(285,797,o),
(303,810,cs),
(324,825,o),
(348,843,o),
(361,853,cs),
(395,877,o),
(420,895,o),
(439,877,cs),
(454,861,o),
(440,842,o),
(422,804,cs),
(409,779,o),
(392,747,o),
(372,712,cs),
(345,664,o),
(309,634,o),
(265,634,cs),
(221,634,o),
(185,664,o),
(158,712,cs),
(138,747,o),
(121,779,o),
(108,804,cs),
(90,842,o),
(76,861,o),
(91,877,cs),
(110,895,o),
(135,877,o),
(169,853,c),
(222,814,ls),
(246,797,o),
(255,788,o),
(265,788,cs)
);
}
);
width = 567;
}
);
unicode = 382;
},
{
glyphname = zdotaccent;
lastChange = "2023-11-16 23:28:50 +0000";
layers = (
{
anchors = (
{
name = top;
pos = (252,883);
}
);
layerId = "49F060A0-2273-4F54-8B81-08E0B15B03EC";
shapes = (
{
ref = z;
},
{
closed = 1;
nodes = (
(176,766,o),
(206,737,o),
(252,737,cs),
(298,737,o),
(328,766,o),
(328,811,cs),
(328,855,o),
(298,883,o),
(252,883,cs),
(206,883,o),
(176,855,o),
(176,811,cs)
);
}
);
width = 525;
}
);
unicode = 380;
},
{
glyphname = ordfeminine;
lastChange = "2023-11-16 23:28:50 +0000";
layers = (
{
layerId = "49F060A0-2273-4F54-8B81-08E0B15B03EC";
shapes = (
{
closed = 1;
nodes = (
(167,690,o),
(166,687,o),
(161,687,cs),
(158,687,o),
(155,690,o),
(153,692,cs),
(141,708,o),
(121,717,o),
(94,717,cs),
(48,717,o),
(17,681,o),
(17,623,cs),
(17,588,o),
(31,549,o),
(54,521,cs),
(71,499,o),
(93,484,o),
(119,483,cs),
(139,482,o),
(157,491,o),
(168,506,cs),
(170,509,o),
(173,512,o),
(177,512,cs),
(181,512,o),
(184,509,o),
(185,506,cs),
(190,492,o),
(197,482,o),
(211,482,cs),
(225,482,o),
(232,492,o),
(237,511,cs),
(247,544,o),
(259,600,o),
(259,654,cs),
(259,695,o),
(236,717,o),
(211,717,c),
(195,717,o),
(180,710,o),
(170,694,cs)
);
},
{
closed = 1;
nodes = (
(136,538,o),
(126,555,o),
(126,568,cs),
(124,581,o),
(132,589,o),
(148,589,cs),
(162,590,o),
(168,582,o),
(171,566,cs),
(174,548,o),
(165,538,o),
(152,538,cs)
);
}
);
width = 292;
}
);
unicode = 170;
},
{
glyphname = ordmasculine;
lastChange = "2023-11-16 23:28:50 +0000";
layers = (
{
layerId = "49F060A0-2273-4F54-8B81-08E0B15B03EC";
shapes = (
{
closed = 1;
nodes = (
(191,484,o),
(244,535,o),
(244,602,cs),
(244,666,o),
(191,717,o),
(130,717,cs),
(69,717,o),
(13,666,o),
(13,601,cs),
(13,535,o),
(69,484,o),
(128,484,cs)
);
},
{
closed = 1;
nodes = (
(103,518,o),
(86,541,o),
(86,571,cs),
(86,602,o),
(103,625,o),
(128,625,cs),
(154,625,o),
(171,602,o),
(171,571,cs),
(171,541,o),
(154,518,o),
(128,518,cs)
);
}
);
width = 257;
}
);
unicode = 186;
},
{
color = 10;
glyphname = zero;
lastChange = "2023-11-16 23:28:50 +0000";
layers = (
{
layerId = "49F060A0-2273-4F54-8B81-08E0B15B03EC";
shapes = (
{
closed = 1;
nodes = (
(8,105,o),
(133,-16,o),
(313,-16,cs),
(499,-16,o),
(617,106,o),
(617,389,cs),
(617,685,o),
(541,784,o),
(313,784,cs),
(84,784,o),
(8,685,o),
(8,389,c)
);
},
{
closed = 1;
nodes = (
(396,123,o),
(366,94,o),
(311,94,cs),
(255,94,o),
(228,123,o),
(228,261,cs),
(228,401,o),
(254,432,o),
(312,432,cs),
(373,432,o),
(396,400,o),
(396,262,cs)
);
}
);
width = 626;
}
);
unicode = 48;
},
{
color = 10;
glyphname = one;
lastChange = "2023-11-17 18:39:30 +0000";
layers = (
{
layerId = "49F060A0-2273-4F54-8B81-08E0B15B03EC";
shapes = (
{
closed = 1;
nodes = (
(492,784,o),
(566,708,o),
(566,570,cs),
(566,385,o),
(527,196,o),
(496,80,cs),
(478,19,o),
(454,-16,o),
(408,-16,cs),
(362,-16,o),
(338,19,o),
(320,80,cs),
(301,153,o),
(268,350,o),
(267,356,cs),
(265,364,o),
(263,373,o),
(251,363,cs),
(217,336,o),
(185,315,o),
(155,309,cs),
(114,300,o),
(75,319,o),
(35,387,cs),
(-32,502,o),
(7,636,o),
(180,733,cs),
(239,766,o),
(314,784,o),
(408,784,cs)
);
}
);
width = 587;
}
);
unicode = 49;
},
{
color = 10;
glyphname = two;
lastChange = "2023-11-17 18:22:55 +0000";
layers = (
{
layerId = "49F060A0-2273-4F54-8B81-08E0B15B03EC";
shapes = (
{
closed = 0;
nodes = (
(286,98,l)
);
},
{
closed = 1;
nodes = (
(386,-14,o),
(457,-14,cs),
(499,-14,o),
(522,9,o),
(522,38,cs),
(522,68,o),
(499,91,o),
(457,91,cs),
(418,91,o),
(400,85,o),
(368,81,cs),
(341,78,o),
(314,75,o),
(294,82,cs),
(281,87,o),
(277,103,o),
(299,118,cs),
(398,182,o),
(430,187,o),
(533,282,cs),
(622,364,o),
(641,455,o),
(641,543,cs),
(641,701,o),
(533,788,o),
(342,788,cs),
(144,788,o),
(43,694,o),
(43,555,cs),
(43,495,o),
(62,454,o),
(97,437,cs),
(117,427,o),
(144,425,o),
(168,425,cs),
(226,425,o),
(295,437,o),
(343,437,cs),
(384,437,o),
(418,428,o),
(418,383,cs),
(418,360,o),
(409,353,o),
(386,334,cs),
(336,291,o),
(294,262,o),
(256,229,cs),
(215,195,o),
(168,151,o),
(149,131,cs),
(121,101,o),
(114,76,o),
(119,41,cs),
(124,6,o),
(152,-16,o),
(210,-16,cs),
(281,-16,o)
);
}
);
width = 669;
}
);
unicode = 50;
},
{
color = 10;
glyphname = three;
lastChange = "2023-11-17 17:08:08 +0000";
layers = (
{
layerId = "49F060A0-2273-4F54-8B81-08E0B15B03EC";
shapes = (
{
closed = 1;
nodes = (
(129,787,o),
(28,693,o),
(28,554,cs),
(28,494,o),
(47,453,o),
(82,436,cs),
(102,426,o),
(129,424,o),
(153,424,cs),
(211,424,o),
(280,436,o),
(328,436,cs),
(369,436,o),
(403,427,o),
(403,382,cs),
(403,359,o),
(394,345,o),
(372,333,cs),
(335,313,o),
(316,286,o),
(316,253,cs),
(316,213,o),
(342,195,o),
(369,174,cs),
(383,163,o),
(392,150,o),
(392,135,cs),
(392,88,o),
(352,74,o),
(303,76,cs),
(267,77,o),
(226,86,o),
(194,96,cs),
(155,108,o),
(130,78,o),
(130,51,cs),
(130,-15,o),
(274,-17,o),
(301,-17,cs),
(471,-17,o),
(566,60,o),
(566,185,cs),
(566,226,o),
(556,255,o),
(534,281,cs),
(523,294,o),
(524,308,o),
(534,317,cs),
(592,372,o),
(626,454,o),
(626,542,cs),
(626,700,o),
(518,787,o),
(327,787,cs)
);
}
);
width = 656;
}
);
unicode = 51;
},
{
color = 10;
glyphname = four;
lastChange = "2023-11-17 19:15:08 +0000";
layers = (
{
layerId = "49F060A0-2273-4F54-8B81-08E0B15B03EC";
shapes = (
{
closed = 1;
nodes = (
(312,268,o),
(300,273,o),
(296,282,cs),
(295,284,o),
(294,288,o),
(294,293,cs),
(294,299,o),
(296,306,o),
(304,321,cs),
(320,351,o),
(338,376,o),
(370,376,cs),
(389,376,o),
(402,367,o),
(402,322,cs),
(402,268,o),
(384,268,o),
(365,268,cs),
(329,268,ls)
);
},
{
closed = 0;
nodes = (
(621,265,l)
);
},
{
closed = 1;
nodes = (
(633,348,o),
(650,446,o),
(648,531,cs),
(645,671,o),
(593,785,o),
(445,785,cs),
(257,785,o),
(159,603,o),
(89,472,cs),
(50,399,o),
(32,339,o),
(32,291,cs),
(32,244,o),
(49,210,o),
(95,188,cs),
(150,162,o),
(246,152,o),
(402,152,cs),
(419,152,o),
(418,150,o),
(422,131,cs),
(441,36,o),
(472,-15,o),
(510,-15,cs),
(549,-15,o),
(575,40,o),
(597,140,cs),
(599,149,o),
(601,153,o),
(606,153,cs),
(665,153,o),
(673,188,o),
(673,213,cs),
(673,232,o),
(670,265,o),
(621,265,cs),
(613,265,o),
(616,274,o),
(617,279,cs)
);
}
);
width = 714;
}
);
unicode = 52;
},
{
color = 10;
glyphname = five;
lastChange = "2023-11-17 18:36:16 +0000";
layers = (
{
layerId = "49F060A0-2273-4F54-8B81-08E0B15B03EC";
shapes = (
{
closed = 1;
nodes = (
(318,-10,o),
(315,-10,o),
(164,-12,cs),
(132,-13,o),
(112,11,o),
(112,39,cs),
(112,69,o),
(132,94,o),
(169,92,cs),
(337,81,ls),
(370,79,o),
(380,103,o),
(380,134,cs),
(380,160,o),
(373,186,o),
(242,186,cs),
(216,186,o),
(143,186,o),
(111,207,cs),
(77,230,o),
(42,295,o),
(42,439,cs),
(42,700,o),
(123,787,o),
(306,787,cs),
(501,786,o),
(600,692,o),
(600,561,cs),
(600,498,o),
(583,459,o),
(548,440,cs),
(528,431,o),
(505,428,o),
(476,428,cs),
(420,428,o),
(353,440,o),
(303,440,cs),
(262,440,o),
(230,425,o),
(232,377,cs),
(233,347,o),
(239,326,o),
(293,319,cs),
(384,307,o),
(511,290,o),
(511,162,cs),
(512,71,o),
(458,-4,o),
(321,-10,cs)
);
}
);
width = 624;
}
);
unicode = 53;
},
{
color = 10;
glyphname = six;
lastChange = "2023-11-17 17:05:35 +0000";
layers = (
{
layerId = "49F060A0-2273-4F54-8B81-08E0B15B03EC";
shapes = (
{
closed = 1;
nodes = (
(299,70,o),
(266,93,o),
(266,131,cs),
(266,158,o),
(268,195,o),
(341,184,cs),
(387,176,o),
(417,167,o),
(416,131,cs),
(415,86,o),
(393,70,o),
(346,70,cs)
);
},
{
closed = 1;
nodes = (
(344,-14,cs),
(471,-13,o),
(528,64,o),
(528,158,cs),
(528,288,o),
(399,305,o),
(307,317,cs),
(252,324,o),
(246,345,o),
(245,376,cs),
(243,424,o),
(275,440,o),
(317,440,cs),
(368,440,o),
(435,428,o),
(492,428,cs),
(521,428,o),
(545,431,o),
(565,440,cs),
(600,459,o),
(618,498,o),
(618,562,cs),
(618,695,o),
(517,790,o),
(320,791,cs),
(128,791,o),
(20,703,o),
(20,416,cs),
(20,357,o),
(70,-16,o)
);
}
);
width = 646;
}
);
unicode = 54;
},
{
color = 10;
glyphname = seven;
lastChange = "2023-11-17 19:12:22 +0000";
layers = (
{
layerId = "49F060A0-2273-4F54-8B81-08E0B15B03EC";
shapes = (
{
closed = 1;
nodes = (
(214,53,o),
(416,185,o),
(476,231,cs),
(537,278,o),
(576,332,o),
(592,372,cs),
(645,501,o),
(594,788,o),
(287,788,cs),
(110,788,o),
(4,693,o),
(4,554,cs),
(4,495,o),
(23,453,o),
(58,436,cs),
(76,427,o),
(100,424,o),
(131,424,cs),
(192,424,o),
(249,436,o),
(313,436,cs),
(350,436,o),
(380,432,o),
(380,391,cs),
(380,361,o),
(364,345,o),
(350,332,cs),
(307,294,o),
(210,215,o),
(86,92,cs),
(57,63,o),
(57,30,o),
(77,9,cs),
(98,-13,o),
(127,-5,o),
(174,27,c)
);
}
);
width = 659;
}
);
unicode = 55;
},
{
color = 10;
glyphname = eight;
lastChange = "2023-11-17 18:57:44 +0000";
layers = (
{
layerId = "49F060A0-2273-4F54-8B81-08E0B15B03EC";
shapes = (
{
closed = 1;
nodes = (
(599,375,o),
(633,453,o),
(633,548,cs),
(633,702,o),
(525,790,o),
(333,790,cs),
(143,790,o),
(35,703,o),
(35,550,cs),
(35,455,o),
(69,377,o),
(128,322,cs),
(138,312,o),
(138,299,o),
(129,288,cs),
(107,263,o),
(96,232,o),
(96,195,cs),
(96,71,o),
(205,-10,o),
(337,-10,cs),
(466,-10,o),
(573,71,o),
(573,194,cs),
(573,231,o),
(561,261,o),
(539,286,cs),
(531,297,o),
(531,310,o),
(540,320,cs)
);
},
{
closed = 1;
nodes = (
(276,324,o),
(250,345,o),
(250,388,cs),
(250,429,o),
(276,451,o),
(336,451,cs),
(391,451,o),
(419,429,o),
(419,388,cs),
(419,345,o),
(391,324,o),
(336,324,cs)
);
},
{
closed = 1;
nodes = (
(290,88,o),
(270,104,o),
(270,136,cs),
(270,165,o),
(290,182,o),
(336,182,cs),
(378,182,o),
(399,165,o),
(399,136,cs),
(399,104,o),
(378,88,o),
(336,88,cs)
);
}
);
width = 668;
}
);
unicode = 56;
},
{
color = 10;
glyphname = nine;
lastChange = "2023-11-17 16:23:29 +0000";
layers = (
{
layerId = "49F060A0-2273-4F54-8B81-08E0B15B03EC";
shapes = (
{
closed = 1;
nodes = (
(166,774,o),
(28,672,o),
(28,501,cs),
(28,350,o),
(144,172,o),
(289,172,cs),
(353,172,o),
(390,207,o),
(407,230,cs),
(413,238,o),
(416,245,o),
(427,245,cs),
(436,245,o),
(444,238,o),
(447,226,cs),
(457,186,o),
(416,77,o),
(366,84,cs),
(354,86,o),
(300,99,o),
(262,99,cs),
(206,99,o),
(200,71,o),
(200,54,cs),
(200,28,o),
(213,16,o),
(247,5,cs),
(332,-23,o),
(437,-8,o),
(499,33,cs),
(600,100,o),
(657,286,o),
(657,446,cs),
(657,655,o),
(559,774,o),
(356,774,cs)
);
},
{
closed = 1;
nodes = (
(345,311,o),
(322,357,o),
(319,388,cs),
(316,421,o),
(337,442,o),
(377,442,cs),
(416,442,o),
(434,423,o),
(438,381,cs),
(443,333,o),
(423,311,o),
(391,311,cs)
);
}
);
width = 677;
}
);
unicode = 57;
},
{
color = 10;
glyphname = period;
lastChange = "2023-11-16 23:28:50 +0000";
layers = (
{
anchors = (
{
name = _bottom;
pos = (97,-6);
}
);
layerId = "49F060A0-2273-4F54-8B81-08E0B15B03EC";
shapes = (
{
closed = 1;
nodes = (
(129,-9,o),
(157,17,o),
(157,53,cs),
(157,90,o),
(129,117,o),
(90,117,cs),
(51,117,o),
(23,90,o),
(23,53,cs),
(23,17,o),
(51,-9,o),
(90,-9,cs)
);
}
);
width = 180;
}
);
unicode = 46;
},
{
color = 10;
glyphname = comma;
lastChange = "2023-11-16 23:28:50 +0000";
layers = (
{
anchors = (
{
name = _top;
pos = (75,112);
}
);
layerId = "49F060A0-2273-4F54-8B81-08E0B15B03EC";
shapes = (
{
closed = 1;
nodes = (
(-9,18,o),
(-1,-11,o),
(22,-20,cs),
(39,-27,o),
(42,-43,o),
(28,-58,cs),
(9,-79,o),
(3,-103,o),
(14,-119,cs),
(25,-135,o),
(49,-139,o),
(80,-119,cs),
(125,-89,o),
(145,-30,o),
(145,22,cs),
(145,86,o),
(120,118,o),
(71,118,cs),
(18,118,o),
(-9,91,o),
(-9,39,cs)
);
}
);
width = 136;
}
);
unicode = 44;
},
{
color = 10;
glyphname = colon;
lastChange = "2023-11-16 23:28:50 +0000";
layers = (
{
layerId = "49F060A0-2273-4F54-8B81-08E0B15B03EC";
shapes = (
{
closed = 1;
nodes = (
(-9,234,o),
(41,196,o),
(120,196,cs),
(202,196,o),
(252,234,o),
(252,303,cs),
(252,372,o),
(202,408,o),
(120,408,cs),
(41,408,o),
(-9,372,o),
(-9,303,cs)
);
},
{
closed = 1;
nodes = (
(162,0,o),
(190,26,o),
(190,62,cs),
(190,99,o),
(162,126,o),
(123,126,cs),
(84,126,o),
(56,99,o),
(56,62,cs),
(56,26,o),
(84,0,o),
(123,0,cs)
);
}
);
width = 243;
}
);
unicode = 58;
},
{
color = 10;
glyphname = semicolon;
lastChange = "2023-11-16 23:28:50 +0000";
layers = (
{
layerId = "49F060A0-2273-4F54-8B81-08E0B15B03EC";
shapes = (
{
closed = 1;
nodes = (
(43,18,o),
(51,-11,o),
(74,-20,cs),
(91,-27,o),
(94,-43,o),
(80,-58,cs),
(61,-79,o),
(55,-103,o),
(66,-119,cs),
(77,-135,o),
(101,-139,o),
(132,-119,cs),
(177,-89,o),
(197,-30,o),
(197,22,cs),
(197,86,o),
(172,118,o),
(123,118,cs),
(70,118,o),
(43,91,o),
(43,39,cs)
);
},
{
closed = 1;
nodes = (
(-9,237,o),
(41,199,o),
(120,199,cs),
(202,199,o),
(252,237,o),
(252,306,cs),
(252,375,o),
(202,411,o),
(120,411,cs),
(41,411,o),
(-9,375,o),
(-9,306,cs)
);
}
);
width = 243;
}
);
unicode = 59;
},
{
color = 10;
glyphname = ellipsis;
lastChange = "2023-11-16 23:28:50 +0000";
layers = (
{
layerId = "49F060A0-2273-4F54-8B81-08E0B15B03EC";
shapes = (
{
closed = 1;
nodes = (
(117,-1,o),
(145,25,o),
(145,61,cs),
(145,98,o),
(117,125,o),
(78,125,cs),
(39,125,o),
(11,98,o),
(11,61,cs),
(11,25,o),
(39,-1,o),
(78,-1,cs)
);
},
{
closed = 1;
nodes = (
(315,-3,o),
(343,23,o),
(343,59,cs),
(343,96,o),
(315,123,o),
(276,123,cs),
(237,123,o),
(209,96,o),
(209,59,cs),
(209,23,o),
(237,-3,o),
(276,-3,cs)
);
},
{
closed = 1;
nodes = (
(513,-3,o),
(541,23,o),
(541,59,cs),
(541,96,o),
(513,123,o),
(474,123,cs),
(435,123,o),
(407,96,o),
(407,59,cs),
(407,23,o),
(435,-3,o),
(474,-3,cs)
);
}
);
width = 562;
}
);
unicode = 8230;
},
{
color = 10;
glyphname = exclam;
lastChange = "2023-11-16 23:28:50 +0000";
layers = (
{
layerId = "49F060A0-2273-4F54-8B81-08E0B15B03EC";
shapes = (
{
closed = 1;
nodes = (
(174,-1,o),
(202,25,o),
(202,61,cs),
(202,98,o),
(174,125,o),
(135,125,cs),
(96,125,o),
(68,98,o),
(68,61,cs),
(68,25,o),
(96,-1,o),
(135,-1,cs)
);
},
{
closed = 1;
nodes = (
(172,188,o),
(191,214,o),
(205,260,cs),
(230,346,o),
(260,488,o),
(260,627,cs),
(260,729,o),
(203,786,o),
(135,786,cs),
(68,786,o),
(10,729,o),
(10,627,cs),
(10,488,o),
(40,346,o),
(66,260,cs),
(80,214,o),
(99,188,o),
(135,188,cs)
);
}
);
width = 263;
}
);
unicode = 33;
},
{
glyphname = exclamdown;
lastChange = "2023-11-16 23:28:50 +0000";
layers = (
{
layerId = "49F060A0-2273-4F54-8B81-08E0B15B03EC";
shapes = (
{
closed = 1;
nodes = (
(211,758,o),
(181,784,o),
(131,784,cs),
(81,784,o),
(51,758,o),
(51,710,cs),
(51,661,o),
(81,634,o),
(131,634,cs),
(181,634,o),
(211,661,o),
(211,710,cs)
);
},
{
closed = 1;
nodes = (
(169,-1,o),
(188,25,o),
(202,71,cs),
(227,157,o),
(257,299,o),
(257,438,cs),
(257,540,o),
(200,597,o),
(132,597,cs),
(65,597,o),
(7,540,o),
(7,438,cs),
(7,299,o),
(37,157,o),
(63,71,cs),
(77,25,o),
(96,-1,o),
(132,-1,cs)
);
}
);
width = 263;
}
);
unicode = 161;
},
{
color = 10;
glyphname = question;
lastChange = "2023-11-16 23:28:50 +0000";
layers = (
{
layerId = "49F060A0-2273-4F54-8B81-08E0B15B03EC";
shapes = (
{
closed = 1;
nodes = (
(281,357,o),
(309,417,o),
(309,446,cs),
(309,462,o),
(293,462,o),
(234,462,cs),
(200,462,o),
(121,458,o),
(92,458,cs),
(16,458,o),
(-22,506,o),
(-22,585,cs),
(-22,705,o),
(64,784,o),
(228,784,cs),
(389,784,o),
(482,699,o),
(482,565,cs),
(482,425,o),
(407,309,o),
(309,211,cs),
(281,183,o),
(239,185,o),
(221,205,cs),
(202,226,o),
(214,260,o),
(237,293,cs)
);
},
{
closed = 1;
nodes = (
(301,0,o),
(329,26,o),
(329,62,cs),
(329,99,o),
(301,126,o),
(262,126,cs),
(223,126,o),
(195,99,o),
(195,62,cs),
(195,26,o),
(223,0,o),
(262,0,cs)
);
}
);
width = 536;
}
);
unicode = 63;
},
{
glyphname = questiondown;
lastChange = "2023-11-16 23:28:50 +0000";
layers = (
{
layerId = "49F060A0-2273-4F54-8B81-08E0B15B03EC";
shapes = (
{
closed = 1;
nodes = (
(334,756,o),
(300,786,o),
(244,786,cs),
(187,786,o),
(153,756,o),
(153,700,cs),
(153,646,o),
(187,617,o),
(244,617,cs),
(300,617,o),
(334,646,o),
(334,700,cs)
);
},
{
closed = 1;
nodes = (
(478,-32,o),
(383,-37,o),
(300,-37,cs),
(284,-37,o),
(269,-37,o),
(255,-37,cs),
(94,-37,o),
(1,48,o),
(1,182,cs),
(1,322,o),
(49,425,o),
(130,506,cs),
(157,533,o),
(188,547,o),
(223,547,cs),
(247,547,o),
(273,540,o),
(300,526,cs),
(357,497,o),
(381,460,o),
(381,419,cs),
(381,363,o),
(337,301,o),
(276,241,cs),
(232,198,o),
(146,135,o),
(146,106,cs),
(146,90,o),
(162,90,o),
(221,90,cs),
(255,90,o),
(334,94,o),
(363,94,cs),
(373,94,o),
(384,94,o),
(394,94,cs),
(439,94,o),
(478,90,o),
(478,40,c)
);
}
);
width = 509;
}
);
unicode = 191;
},
{
color = 10;
glyphname = periodcentered;
lastChange = "2023-11-16 23:28:50 +0000";
layers = (
{
anchors = (
{
name = _centered;
pos = (92,396);
}
);
layerId = "49F060A0-2273-4F54-8B81-08E0B15B03EC";
shapes = (
{
closed = 1;
nodes = (
(172,372,o),
(142,399,o),
(92,399,cs),
(42,399,o),
(12,372,o),
(12,323,cs),
(12,275,o),
(42,249,o),
(92,249,cs),
(142,249,o),
(172,275,o),
(172,323,cs)
);
}
);
width = 183;
}
);
unicode = 183;
},
{
color = 10;
glyphname = bullet;
lastChange = "2023-11-16 23:28:50 +0000";
layers = (
{
layerId = "49F060A0-2273-4F54-8B81-08E0B15B03EC";
shapes = (
{
closed = 1;
nodes = (
(233,405,o),
(191,442,o),
(122,442,cs),
(53,442,o),
(11,405,o),
(11,336,cs),
(11,270,o),
(53,234,o),
(122,234,cs),
(191,234,o),
(233,270,o),
(233,336,cs)
);
}
);
width = 244;
}
);
unicode = 8226;
},
{
color = 10;
glyphname = asterisk;
lastChange = "2023-11-16 23:28:50 +0000";
layers = (
{
layerId = "49F060A0-2273-4F54-8B81-08E0B15B03EC";
shapes = (
{
closed = 1;
nodes = (
(91,498,o),
(66,487,o),
(41,472,cs),
(16,457,o),
(11,449,o),
(17,435,cs),
(22,422,o),
(34,419,o),
(60,427,cs),
(94,437,o),
(125,447,o),
(154,456,cs),
(160,458,o),
(161,454,o),
(162,448,cs),
(168,423,o),
(175,399,o),
(181,378,cs),
(191,341,o),
(208,321,o),
(236,321,cs),
(265,321,o),
(281,341,o),
(292,378,cs),
(298,398,o),
(304,422,o),
(310,448,cs),
(311,452,o),
(313,457,o),
(319,455,cs),
(349,446,o),
(379,436,o),
(412,426,cs),
(438,418,o),
(451,421,o),
(455,434,cs),
(462,447,o),
(456,456,o),
(431,471,cs),
(405,486,o),
(381,501,o),
(357,516,cs),
(355,517,o),
(350,519,o),
(357,522,cs),
(370,527,o),
(382,531,o),
(392,536,cs),
(458,565,o),
(469,598,o),
(455,631,cs),
(441,664,o),
(409,689,o),
(346,650,cs),
(338,645,o),
(337,653,o),
(337,657,cs),
(337,663,o),
(337,668,o),
(337,673,cs),
(337,754,o),
(291,800,o),
(236,800,cs),
(183,800,o),
(136,754,o),
(136,673,cs),
(136,667,o),
(136,661,o),
(136,655,cs),
(136,651,o),
(135,645,o),
(128,648,cs),
(63,677,o),
(31,663,o),
(17,630,cs),
(3,597,o),
(14,564,o),
(80,535,cs),
(89,531,o),
(100,527,o),
(111,522,cs),
(117,520,o),
(118,516,o),
(113,512,cs)
);
}
);
width = 472;
}
);
unicode = 42;
},
{
color = 10;
glyphname = numbersign;
lastChange = "2023-11-16 23:28:50 +0000";
layers = (
{
layerId = "49F060A0-2273-4F54-8B81-08E0B15B03EC";
shapes = (
{
closed = 1;
nodes = (
(141,-21,o),
(154,-14,o),
(178,23,cs),
(199,55,o),
(236,120,o),
(263,165,cs),
(267,171,o),
(271,174,o),
(278,175,cs),
(307,178,o),
(260,174,o),
(396,184,cs),
(404,185,o),
(408,181,o),
(405,171,cs),
(390,130,o),
(375,88,o),
(363,53,cs),
(349,13,o),
(355,-2,o),
(373,-11,cs),
(393,-21,o),
(408,-13,o),
(430,22,cs),
(475,94,o),
(494,129,o),
(530,190,cs),
(533,195,o),
(539,198,o),
(544,198,cs),
(605,198,o),
(665,210,o),
(736,218,cs),
(772,222,o),
(787,233,o),
(787,257,cs),
(787,278,o),
(775,287,o),
(736,291,cs),
(611,305,ls),
(602,306,o),
(600,311,o),
(604,318,cs),
(605,319,o),
(620,346,o),
(678,452,cs),
(681,457,o),
(683,458,o),
(694,459,cs),
(745,463,o),
(774,468,o),
(854,477,cs),
(888,481,o),
(904,492,o),
(904,516,cs),
(904,543,o),
(884,546,o),
(853,550,cs),
(798,557,o),
(777,558,o),
(747,562,cs),
(743,563,o),
(736,563,o),
(740,571,cs),
(752,594,ls),
(800,687,o),
(779,735,o),
(732,757,cs),
(686,779,o),
(637,763,o),
(594,667,cs),
(585,646,o),
(564,601,o),
(561,592,cs),
(558,584,o),
(557,581,o),
(547,581,cs),
(537,581,o),
(511,583,o),
(503,584,cs),
(496,585,o),
(500,591,o),
(501,593,cs),
(546,686,o),
(527,736,o),
(480,758,cs),
(434,779,o),
(385,763,o),
(341,668,cs),
(333,650,o),
(323,627,o),
(314,604,cs),
(312,599,o),
(309,598,o),
(298,598,cs),
(279,598,o),
(250,600,o),
(233,600,cs),
(131,600,o),
(98,565,o),
(98,514,cs),
(98,462,o),
(133,426,o),
(231,426,cs),
(235,426,o),
(242,424,o),
(238,414,cs),
(233,401,o),
(223,370,o),
(215,346,cs),
(212,337,o),
(206,338,o),
(201,338,cs),
(168,338,o),
(141,341,o),
(113,341,cs),
(14,341,o),
(-19,305,o),
(-19,255,cs),
(-19,203,o),
(16,167,o),
(114,167,cs),
(122,167,o),
(131,167,o),
(140,167,cs),
(145,167,o),
(150,165,o),
(147,157,cs),
(111,53,ls),
(97,13,o),
(103,-2,o),
(121,-11,cs)
);
},
{
closed = 1;
nodes = (
(364,327,ls),
(359,327,o),
(358,330,o),
(361,335,cs),
(376,361,o),
(400,403,o),
(413,428,cs),
(415,431,o),
(417,436,o),
(423,436,cs),
(448,436,o),
(486,441,o),
(495,441,cs),
(501,441,o),
(503,440,o),
(500,433,cs),
(489,403,o),
(478,375,o),
(461,327,cs),
(459,322,o),
(456,320,o),
(451,320,c)
);
}
);
width = 885;
}
);
unicode = 35;
},
{
color = 10;
glyphname = slash;
lastChange = "2023-11-16 23:28:50 +0000";
layers = (
{
layerId = "49F060A0-2273-4F54-8B81-08E0B15B03EC";
shapes = (
{
closed = 1;
nodes = (
(8,-18,o),
(4,-1,o),
(17,40,c),
(118,332,o),
(204,559,o),
(259,687,cs),
(306,787,o),
(357,804,o),
(406,781,cs),
(455,758,o),
(475,708,o),
(428,608,cs),
(365,483,o),
(247,272,o),
(88,7,c),
(64,-29,o),
(49,-38,o),
(28,-28,cs)
);
}
);
width = 459;
}
);
unicode = 47;
},
{
color = 10;
glyphname = backslash;
lastChange = "2023-11-16 23:28:50 +0000";
layers = (
{
layerId = "49F060A0-2273-4F54-8B81-08E0B15B03EC";
shapes = (
{
closed = 1;
nodes = (
(410,-36,o),
(395,-27,o),
(371,9,c),
(212,274,o),
(94,485,o),
(31,610,cs),
(-16,710,o),
(4,760,o),
(53,783,cs),
(102,806,o),
(153,789,o),
(200,689,cs),
(255,561,o),
(341,334,o),
(442,42,c),
(455,1,o),
(451,-16,o),
(431,-26,cs)
);
}
);
width = 459;
}
);
unicode = 92;
},
{
glyphname = periodcentered.loclCAT;
lastChange = "2023-11-16 23:28:50 +0000";
layers = (
{
layerId = "49F060A0-2273-4F54-8B81-08E0B15B03EC";
shapes = (
{
closed = 1;
nodes = (
(356,338,o),
(326,365,o),
(276,365,cs),
(226,365,o),
(196,338,o),
(196,289,cs),
(196,241,o),
(226,215,o),
(276,215,cs),
(326,215,o),
(356,241,o),
(356,289,cs)
);
}
);
width = 562;
}
);
},
{
glyphname = periodcentered.loclCAT.case;
lastChange = "2023-11-16 23:28:50 +0000";
layers = (
{
layerId = "49F060A0-2273-4F54-8B81-08E0B15B03EC";
shapes = (
{
closed = 1;
nodes = (
(357,340,o),
(327,367,o),
(277,367,cs),
(227,367,o),
(197,340,o),
(197,291,cs),
(197,243,o),
(227,217,o),
(277,217,cs),
(327,217,o),
(357,243,o),
(357,291,cs)
);
}
);
width = 562;
}
);
},
{
color = 10;
glyphname = hyphen;
lastChange = "2023-11-16 23:28:50 +0000";
layers = (
{
layerId = "49F060A0-2273-4F54-8B81-08E0B15B03EC";
shapes = (
{
closed = 1;
nodes = (
(286,248,o),
(231,248,o),
(282,248,cs),
(317,248,o),
(336,267,o),
(336,291,cs),
(336,316,o),
(317,335,o),
(282,335,cs),
(231,335,o),
(286,335,o),
(249,335,cs),
(212,335,o),
(103,335,o),
(52,335,cs),
(17,335,o),
(-2,316,o),
(-2,291,cs),
(-2,267,o),
(17,248,o),
(52,248,cs),
(103,248,o),
(212,248,o),
(249,248,cs)
);
}
);
width = 336;
}
);
unicode = 45;
},
{
color = 10;
glyphname = endash;
lastChange = "2023-11-16 23:28:50 +0000";
layers = (
{
layerId = "49F060A0-2273-4F54-8B81-08E0B15B03EC";
shapes = (
{
closed = 1;
nodes = (
(266,239,o),
(352,252,o),
(388,259,cs),
(464,274,o),
(494,292,o),
(494,315,cs),
(494,339,o),
(467,352,o),
(382,368,cs),
(360,371,o),
(276,384,o),
(169,384,cs),
(42,384,o),
(7,352,o),
(7,311,cs),
(7,268,o),
(44,239,o),
(173,239,cs)
);
}
);
width = 501;
}
);
unicode = 8211;
},
{
color = 10;
glyphname = emdash;
lastChange = "2023-11-16 23:28:50 +0000";
layers = (
{
layerId = "49F060A0-2273-4F54-8B81-08E0B15B03EC";
shapes = (
{
closed = 1;
nodes = (
(410,225,o),
(536,239,o),
(589,247,cs),
(701,263,o),
(745,283,o),
(745,308,cs),
(745,335,o),
(705,349,o),
(580,366,cs),
(548,370,o),
(425,384,o),
(268,384,cs),
(82,384,o),
(31,349,o),
(31,304,cs),
(31,257,o),
(85,225,o),
(274,225,cs)
);
}
);
width = 776;
}
);
unicode = 8212;
},
{
color = 10;
glyphname = underscore;
lastChange = "2023-11-16 23:28:50 +0000";
layers = (
{
layerId = "49F060A0-2273-4F54-8B81-08E0B15B03EC";
shapes = (
{
closed = 1;
nodes = (
(273,-180,o),
(359,-167,o),
(395,-160,cs),
(471,-145,o),
(501,-127,o),
(501,-104,cs),
(501,-80,o),
(474,-67,o),
(389,-51,cs),
(367,-48,o),
(283,-35,o),
(176,-35,cs),
(49,-35,o),
(14,-67,o),
(14,-108,cs),
(14,-151,o),
(51,-180,o),
(180,-180,cs)
);
}
);
width = 502;
}
);
unicode = 95;
},
{
color = 10;
glyphname = parenleft;
lastChange = "2023-11-16 23:28:50 +0000";
layers = (
{
layerId = "49F060A0-2273-4F54-8B81-08E0B15B03EC";
shapes = (
{
closed = 1;
nodes = (
(210,370,o),
(187,266,o),
(187,186,cs),
(187,92,o),
(219,32,o),
(236,-6,cs),
(252,-39,o),
(260,-57,o),
(260,-70,cs),
(260,-79,o),
(256,-89,o),
(248,-95,cs),
(242,-99,o),
(236,-101,o),
(229,-101,cs),
(205,-101,o),
(175,-78,o),
(139,-26,cs),
(65,83,o),
(22,204,o),
(22,350,cs),
(22,417,o),
(30,489,o),
(49,566,cs),
(86,724,o),
(141,799,o),
(228,799,cs),
(293,799,o),
(350,755,o),
(350,675,cs),
(350,628,o),
(309,562,o),
(283,507,c)
);
}
);
width = 353;
}
);
unicode = 40;
},
{
color = 10;
glyphname = parenright;
lastChange = "2023-11-16 23:28:50 +0000";
layers = (
{
layerId = "49F060A0-2273-4F54-8B81-08E0B15B03EC";
shapes = (
{
closed = 1;
nodes = (
(42,562,o),
(1,628,o),
(1,675,cs),
(1,755,o),
(58,799,o),
(123,799,cs),
(210,799,o),
(265,724,o),
(302,566,cs),
(321,489,o),
(329,417,o),
(329,350,cs),
(329,204,o),
(286,83,o),
(212,-26,cs),
(176,-78,o),
(146,-101,o),
(122,-101,cs),
(115,-101,o),
(109,-99,o),
(103,-95,cs),
(95,-89,o),
(91,-79,o),
(91,-70,cs),
(91,-57,o),
(99,-39,o),
(115,-6,cs),
(132,32,o),
(164,92,o),
(164,186,cs),
(164,266,o),
(141,370,o),
(68,507,c)
);
}
);
width = 351;
}
);
unicode = 41;
},
{
color = 10;
glyphname = braceleft;
lastChange = "2023-11-16 23:28:50 +0000";
layers = (
{
layerId = "49F060A0-2273-4F54-8B81-08E0B15B03EC";
shapes = (
{
closed = 1;
nodes = (
(176,364,o),
(233,401,o),
(233,468,cs),
(233,509,o),
(219,538,o),
(219,569,cs),
(219,583,o),
(221,600,o),
(253,600,cs),
(313,600,o),
(344,626,o),
(344,696,cs),
(344,777,o),
(292,807,o),
(189,807,cs),
(106,807,o),
(58,767,o),
(58,676,cs),
(58,590,o),
(90,553,o),
(90,499,cs),
(90,463,o),
(75,444,o),
(60,432,cs),
(13,395,o),
(-2,372,o),
(-2,354,cs),
(-2,332,o),
(13,317,o),
(60,280,cs),
(71,271,o),
(90,253,o),
(90,215,cs),
(90,162,o),
(53,129,o),
(53,51,cs),
(53,-62,o),
(128,-96,o),
(207,-96,cs),
(241,-96,o),
(276,-89,o),
(298,-80,cs),
(335,-63,o),
(351,-38,o),
(335,-22,cs),
(324,-11,o),
(306,-13,o),
(281,-30,cs),
(236,-63,o),
(202,-48,o),
(184,-38,cs),
(155,-22,o),
(152,11,o),
(152,45,cs),
(152,114,o),
(183,157,o),
(196,216,cs),
(208,273,o),
(188,305,o),
(155,338,cs),
(154,339,o),
(154,340,o),
(154,341,cs),
(154,342,o),
(155,343,o),
(156,344,cs)
);
}
);
width = 343;
}
);
unicode = 123;
},
{
color = 10;
glyphname = braceright;
lastChange = "2023-11-16 23:28:50 +0000";
layers = (
{
layerId = "49F060A0-2273-4F54-8B81-08E0B15B03EC";
shapes = (
{
closed = 1;
nodes = (
(188,343,o),
(189,342,o),
(189,341,cs),
(189,340,o),
(189,339,o),
(188,338,cs),
(155,305,o),
(135,273,o),
(147,216,cs),
(160,157,o),
(191,114,o),
(191,45,cs),
(191,11,o),
(188,-22,o),
(159,-38,cs),
(141,-48,o),
(107,-63,o),
(62,-30,cs),
(37,-13,o),
(19,-11,o),
(8,-22,cs),
(-8,-38,o),
(8,-63,o),
(45,-80,cs),
(67,-89,o),
(102,-96,o),
(136,-96,cs),
(215,-96,o),
(290,-62,o),
(290,51,cs),
(290,129,o),
(253,162,o),
(253,215,cs),
(253,253,o),
(272,271,o),
(283,280,cs),
(330,317,o),
(345,332,o),
(345,354,cs),
(345,372,o),
(330,395,o),
(283,432,cs),
(268,444,o),
(253,463,o),
(253,499,cs),
(253,553,o),
(285,590,o),
(285,676,cs),
(285,767,o),
(237,807,o),
(154,807,cs),
(51,807,o),
(-1,777,o),
(-1,696,cs),
(-1,626,o),
(30,600,o),
(90,600,cs),
(122,600,o),
(124,583,o),
(124,569,cs),
(124,538,o),
(110,509,o),
(110,468,cs),
(110,401,o),
(167,364,o),
(187,344,cs)
);
}
);
width = 343;
}
);
unicode = 125;
},
{
color = 10;
glyphname = bracketleft;
lastChange = "2023-11-16 23:28:50 +0000";
layers = (
{
layerId = "49F060A0-2273-4F54-8B81-08E0B15B03EC";
shapes = (
{
closed = 1;
nodes = (
(252,-60,o),
(243,-75,o),
(225,-83,cs),
(200,-94,o),
(160,-99,o),
(107,-99,cs),
(96,-99,o),
(86,-99,o),
(77,-97,cs),
(63,-92,o),
(54,-83,o),
(51,-74,cs),
(34,-30,o),
(23,255,o),
(23,653,cs),
(23,739,o),
(34,778,o),
(64,794,cs),
(76,801,o),
(100,804,o),
(148,804,cs),
(273,804,o),
(355,770,o),
(355,689,cs),
(355,618,o),
(312,589,o),
(250,587,cs),
(240,587,o),
(237,582,o),
(237,572,cs),
(237,510,o),
(180,162,o),
(180,28,cs),
(180,15,o),
(180,14,o),
(196,11,cs),
(210,8,o),
(217,7,o),
(223,4,cs),
(239,-3,o),
(252,-11,o),
(252,-38,cs)
);
}
);
width = 359;
}
);
unicode = 91;
},
{
color = 10;
glyphname = bracketright;
lastChange = "2023-11-16 23:28:50 +0000";
layers = (
{
layerId = "49F060A0-2273-4F54-8B81-08E0B15B03EC";
shapes = (
{
closed = 1;
nodes = (
(107,-11,o),
(120,-3,o),
(136,4,cs),
(142,7,o),
(149,8,o),
(163,11,cs),
(179,14,o),
(179,15,o),
(179,28,cs),
(179,162,o),
(122,510,o),
(122,572,cs),
(122,582,o),
(119,587,o),
(109,587,cs),
(47,589,o),
(4,618,o),
(4,689,cs),
(4,770,o),
(86,804,o),
(211,804,cs),
(259,804,o),
(283,801,o),
(295,794,cs),
(325,778,o),
(336,739,o),
(336,653,cs),
(336,255,o),
(325,-30,o),
(308,-74,cs),
(305,-83,o),
(296,-92,o),
(282,-97,cs),
(273,-99,o),
(263,-99,o),
(252,-99,cs),
(199,-99,o),
(159,-94,o),
(134,-83,cs),
(116,-75,o),
(107,-60,o),
(107,-38,cs)
);
}
);
width = 359;
}
);
unicode = 93;
},
{
glyphname = quotesinglbase;
lastChange = "2023-11-16 23:28:50 +0000";
layers = (
{
layerId = "49F060A0-2273-4F54-8B81-08E0B15B03EC";
shapes = (
{
closed = 1;
nodes = (
(-9,19,o),
(-1,-10,o),
(22,-19,cs),
(39,-26,o),
(42,-42,o),
(28,-57,cs),
(9,-78,o),
(3,-102,o),
(14,-118,cs),
(25,-134,o),
(49,-138,o),
(80,-118,cs),
(125,-88,o),
(145,-29,o),
(145,23,cs),
(145,87,o),
(120,119,o),
(71,119,cs),
(18,119,o),
(-9,92,o),
(-9,40,cs)
);
}
);
width = 157;
}
);
unicode = 8218;
},
{
glyphname = quotedblbase;
lastChange = "2023-11-16 23:28:50 +0000";
layers = (
{
layerId = "49F060A0-2273-4F54-8B81-08E0B15B03EC";
shapes = (
{
closed = 1;
nodes = (
(193,18,o),
(201,-11,o),
(224,-20,cs),
(241,-27,o),
(244,-43,o),
(230,-58,cs),
(211,-79,o),
(205,-103,o),
(216,-119,cs),
(227,-135,o),
(251,-139,o),
(282,-119,cs),
(327,-89,o),
(347,-30,o),
(347,22,cs),
(347,86,o),
(322,118,o),
(273,118,cs),
(220,118,o),
(193,91,o),
(193,39,cs)
);
},
{
closed = 1;
nodes = (
(-9,18,o),
(-1,-11,o),
(22,-20,cs),
(39,-27,o),
(42,-43,o),
(28,-58,cs),
(9,-79,o),
(3,-103,o),
(14,-119,cs),
(25,-135,o),
(49,-139,o),
(80,-119,cs),
(125,-89,o),
(145,-30,o),
(145,22,cs),
(145,86,o),
(120,118,o),
(71,118,cs),
(18,118,o),
(-9,91,o),
(-9,39,cs)
);
}
);
width = 359;
}
);
unicode = 8222;
},
{
color = 10;
glyphname = quotedblleft;
lastChange = "2023-11-16 23:28:50 +0000";
layers = (
{
anchors = (
{
name = _top;
pos = (185,664);
}
);
layerId = "49F060A0-2273-4F54-8B81-08E0B15B03EC";
shapes = (
{
closed = 1;
nodes = (
(166,663,o),
(158,692,o),
(135,701,cs),
(118,708,o),
(115,724,o),
(129,739,cs),
(148,760,o),
(154,784,o),
(143,800,cs),
(132,816,o),
(108,820,o),
(77,800,cs),
(32,770,o),
(12,711,o),
(12,659,cs),
(12,595,o),
(37,563,o),
(86,563,cs),
(139,563,o),
(166,590,o),
(166,642,cs)
);
},
{
closed = 1;
nodes = (
(368,663,o),
(360,692,o),
(337,701,cs),
(320,708,o),
(317,724,o),
(331,739,cs),
(350,760,o),
(356,784,o),
(345,800,cs),
(334,816,o),
(310,820,o),
(279,800,cs),
(234,770,o),
(214,711,o),
(214,659,cs),
(214,595,o),
(239,563,o),
(288,563,cs),
(341,563,o),
(368,590,o),
(368,642,cs)
);
}
);
width = 360;
}
);
unicode = 8220;
},
